ISO-10303-21;
HEADER;
/* Generated by software containing ST-Developer
 * from STEP Tools, Inc. (www.steptools.com) 
 */

FILE_DESCRIPTION(
/* description */ (''),
/* implementation_level */ '2;1');

FILE_NAME(
/* name */ 'pan col.step',
/* time_stamp */ '2026-09-25T19:54:38+02:00',
/* author */ (''),
/* organization */ (''),
/* preprocessor_version */ 'ST-DEVELOPER v20.2',
/* originating_system */ 'Autodesk Translation Framework v15.15.0.0',
/* authorisation */ '');

FILE_SCHEMA (('AUTOMOTIVE_DESIGN { 1 0 10303 214 3 1 1 }'));
ENDSEC;

DATA;
#10=MECHANICAL_DESIGN_GEOMETRIC_PRESENTATION_REPRESENTATION('',(#13,#14),
#1256);
#11=SHAPE_REPRESENTATION_RELATIONSHIP('SRR','None',#1262,#12);
#12=ADVANCED_BREP_SHAPE_REPRESENTATION('',(#15,#16),#1255);
#13=STYLED_ITEM('',(#1271),#15);
#14=STYLED_ITEM('',(#1271),#16);
#15=MANIFOLD_SOLID_BREP('Cuerpo3',#727);
#16=MANIFOLD_SOLID_BREP('Cuerpo5',#728);
#17=TOROIDAL_SURFACE('',#750,8.,2.);
#18=TOROIDAL_SURFACE('',#756,8.,2.);
#19=TOROIDAL_SURFACE('',#791,8.,2.);
#20=TOROIDAL_SURFACE('',#797,8.,2.);
#21=FACE_BOUND('',#109,.T.);
#22=FACE_BOUND('',#111,.T.);
#23=FACE_BOUND('',#123,.T.);
#24=FACE_BOUND('',#127,.T.);
#25=FACE_BOUND('',#136,.T.);
#26=FACE_BOUND('',#147,.T.);
#27=FACE_BOUND('',#150,.T.);
#28=FACE_BOUND('',#153,.T.);
#29=CONICAL_SURFACE('',#735,9.80000000000001,0.785398163397438);
#30=CONICAL_SURFACE('',#739,9.80000000000001,0.785398163397453);
#31=CONICAL_SURFACE('',#778,9.8,0.785398163397443);
#32=CONICAL_SURFACE('',#782,9.8,0.785398163397416);
#33=PLANE('',#733);
#34=PLANE('',#734);
#35=PLANE('',#738);
#36=PLANE('',#742);
#37=PLANE('',#743);
#38=PLANE('',#745);
#39=PLANE('',#762);
#40=PLANE('',#764);
#41=PLANE('',#768);
#42=PLANE('',#771);
#43=PLANE('',#772);
#44=PLANE('',#776);
#45=PLANE('',#777);
#46=PLANE('',#781);
#47=PLANE('',#785);
#48=PLANE('',#786);
#49=PLANE('',#803);
#50=PLANE('',#805);
#51=PLANE('',#807);
#52=PLANE('',#808);
#53=PLANE('',#809);
#54=PLANE('',#813);
#55=FACE_OUTER_BOUND('',#101,.T.);
#56=FACE_OUTER_BOUND('',#102,.T.);
#57=FACE_OUTER_BOUND('',#103,.T.);
#58=FACE_OUTER_BOUND('',#104,.T.);
#59=FACE_OUTER_BOUND('',#105,.T.);
#60=FACE_OUTER_BOUND('',#106,.T.);
#61=FACE_OUTER_BOUND('',#107,.T.);
#62=FACE_OUTER_BOUND('',#108,.T.);
#63=FACE_OUTER_BOUND('',#110,.T.);
#64=FACE_OUTER_BOUND('',#112,.T.);
#65=FACE_OUTER_BOUND('',#113,.T.);
#66=FACE_OUTER_BOUND('',#114,.T.);
#67=FACE_OUTER_BOUND('',#115,.T.);
#68=FACE_OUTER_BOUND('',#116,.T.);
#69=FACE_OUTER_BOUND('',#117,.T.);
#70=FACE_OUTER_BOUND('',#118,.T.);
#71=FACE_OUTER_BOUND('',#119,.T.);
#72=FACE_OUTER_BOUND('',#120,.T.);
#73=FACE_OUTER_BOUND('',#121,.T.);
#74=FACE_OUTER_BOUND('',#122,.T.);
#75=FACE_OUTER_BOUND('',#124,.T.);
#76=FACE_OUTER_BOUND('',#125,.T.);
#77=FACE_OUTER_BOUND('',#126,.T.);
#78=FACE_OUTER_BOUND('',#128,.T.);
#79=FACE_OUTER_BOUND('',#129,.T.);
#80=FACE_OUTER_BOUND('',#130,.T.);
#81=FACE_OUTER_BOUND('',#131,.T.);
#82=FACE_OUTER_BOUND('',#132,.T.);
#83=FACE_OUTER_BOUND('',#133,.T.);
#84=FACE_OUTER_BOUND('',#134,.T.);
#85=FACE_OUTER_BOUND('',#135,.T.);
#86=FACE_OUTER_BOUND('',#137,.T.);
#87=FACE_OUTER_BOUND('',#138,.T.);
#88=FACE_OUTER_BOUND('',#139,.T.);
#89=FACE_OUTER_BOUND('',#140,.T.);
#90=FACE_OUTER_BOUND('',#141,.T.);
#91=FACE_OUTER_BOUND('',#142,.T.);
#92=FACE_OUTER_BOUND('',#143,.T.);
#93=FACE_OUTER_BOUND('',#144,.T.);
#94=FACE_OUTER_BOUND('',#145,.T.);
#95=FACE_OUTER_BOUND('',#146,.T.);
#96=FACE_OUTER_BOUND('',#148,.T.);
#97=FACE_OUTER_BOUND('',#149,.T.);
#98=FACE_OUTER_BOUND('',#151,.T.);
#99=FACE_OUTER_BOUND('',#152,.T.);
#100=FACE_OUTER_BOUND('',#154,.T.);
#101=EDGE_LOOP('',(#469,#470,#471,#472));
#102=EDGE_LOOP('',(#473));
#103=EDGE_LOOP('',(#474,#475,#476,#477));
#104=EDGE_LOOP('',(#478,#479,#480,#481));
#105=EDGE_LOOP('',(#482,#483,#484,#485));
#106=EDGE_LOOP('',(#486,#487,#488,#489));
#107=EDGE_LOOP('',(#490,#491,#492,#493));
#108=EDGE_LOOP('',(#494,#495,#496,#497,#498,#499));
#109=EDGE_LOOP('',(#500));
#110=EDGE_LOOP('',(#501,#502,#503,#504,#505,#506,#507,#508));
#111=EDGE_LOOP('',(#509));
#112=EDGE_LOOP('',(#510,#511,#512,#513));
#113=EDGE_LOOP('',(#514,#515,#516,#517));
#114=EDGE_LOOP('',(#518,#519,#520,#521));
#115=EDGE_LOOP('',(#522,#523,#524,#525));
#116=EDGE_LOOP('',(#526,#527,#528,#529));
#117=EDGE_LOOP('',(#530,#531,#532,#533));
#118=EDGE_LOOP('',(#534,#535,#536,#537));
#119=EDGE_LOOP('',(#538,#539,#540,#541));
#120=EDGE_LOOP('',(#542,#543,#544,#545));
#121=EDGE_LOOP('',(#546,#547,#548,#549));
#122=EDGE_LOOP('',(#550));
#123=EDGE_LOOP('',(#551));
#124=EDGE_LOOP('',(#552,#553,#554,#555));
#125=EDGE_LOOP('',(#556,#557,#558,#559));
#126=EDGE_LOOP('',(#560,#561,#562,#563,#564,#565));
#127=EDGE_LOOP('',(#566));
#128=EDGE_LOOP('',(#567,#568,#569,#570));
#129=EDGE_LOOP('',(#571));
#130=EDGE_LOOP('',(#572,#573,#574,#575));
#131=EDGE_LOOP('',(#576,#577,#578,#579));
#132=EDGE_LOOP('',(#580,#581,#582,#583));
#133=EDGE_LOOP('',(#584,#585,#586,#587));
#134=EDGE_LOOP('',(#588,#589,#590,#591));
#135=EDGE_LOOP('',(#592,#593,#594,#595,#596,#597));
#136=EDGE_LOOP('',(#598));
#137=EDGE_LOOP('',(#599,#600,#601,#602));
#138=EDGE_LOOP('',(#603,#604,#605,#606));
#139=EDGE_LOOP('',(#607,#608,#609,#610));
#140=EDGE_LOOP('',(#611,#612,#613,#614));
#141=EDGE_LOOP('',(#615,#616,#617,#618));
#142=EDGE_LOOP('',(#619,#620,#621,#622));
#143=EDGE_LOOP('',(#623,#624,#625,#626));
#144=EDGE_LOOP('',(#627,#628,#629,#630));
#145=EDGE_LOOP('',(#631,#632,#633,#634));
#146=EDGE_LOOP('',(#635,#636,#637,#638,#639,#640,#641,#642));
#147=EDGE_LOOP('',(#643));
#148=EDGE_LOOP('',(#644,#645,#646,#647));
#149=EDGE_LOOP('',(#648,#649,#650,#651,#652,#653));
#150=EDGE_LOOP('',(#654));
#151=EDGE_LOOP('',(#655,#656,#657,#658));
#152=EDGE_LOOP('',(#659));
#153=EDGE_LOOP('',(#660));
#154=EDGE_LOOP('',(#661,#662,#663,#664));
#155=LINE('',#1053,#213);
#156=LINE('',#1059,#214);
#157=LINE('',#1061,#215);
#158=LINE('',#1063,#216);
#159=LINE('',#1064,#217);
#160=LINE('',#1068,#218);
#161=LINE('',#1074,#219);
#162=LINE('',#1075,#220);
#163=LINE('',#1076,#221);
#164=LINE('',#1080,#222);
#165=LINE('',#1086,#223);
#166=LINE('',#1087,#224);
#167=LINE('',#1088,#225);
#168=LINE('',#1090,#226);
#169=LINE('',#1095,#227);
#170=LINE('',#1099,#228);
#171=LINE('',#1102,#229);
#172=LINE('',#1105,#230);
#173=LINE('',#1108,#231);
#174=LINE('',#1119,#232);
#175=LINE('',#1120,#233);
#176=LINE('',#1128,#234);
#177=LINE('',#1129,#235);
#178=LINE('',#1131,#236);
#179=LINE('',#1132,#237);
#180=LINE('',#1134,#238);
#181=LINE('',#1136,#239);
#182=LINE('',#1142,#240);
#183=LINE('',#1148,#241);
#184=LINE('',#1155,#242);
#185=LINE('',#1161,#243);
#186=LINE('',#1163,#244);
#187=LINE('',#1165,#245);
#188=LINE('',#1166,#246);
#189=LINE('',#1171,#247);
#190=LINE('',#1175,#248);
#191=LINE('',#1177,#249);
#192=LINE('',#1178,#250);
#193=LINE('',#1183,#251);
#194=LINE('',#1188,#252);
#195=LINE('',#1189,#253);
#196=LINE('',#1190,#254);
#197=LINE('',#1192,#255);
#198=LINE('',#1200,#256);
#199=LINE('',#1203,#257);
#200=LINE('',#1214,#258);
#201=LINE('',#1215,#259);
#202=LINE('',#1226,#260);
#203=LINE('',#1227,#261);
#204=LINE('',#1229,#262);
#205=LINE('',#1230,#263);
#206=LINE('',#1232,#264);
#207=LINE('',#1234,#265);
#208=LINE('',#1236,#266);
#209=LINE('',#1238,#267);
#210=LINE('',#1239,#268);
#211=LINE('',#1247,#269);
#212=LINE('',#1252,#270);
#213=VECTOR('',#822,1.5);
#214=VECTOR('',#829,10.);
#215=VECTOR('',#830,10.);
#216=VECTOR('',#831,10.);
#217=VECTOR('',#832,10.);
#218=VECTOR('',#835,10.);
#219=VECTOR('',#842,10.);
#220=VECTOR('',#843,10.);
#221=VECTOR('',#844,10.);
#222=VECTOR('',#847,10.);
#223=VECTOR('',#854,10.);
#224=VECTOR('',#855,10.);
#225=VECTOR('',#856,10.);
#226=VECTOR('',#859,10.);
#227=VECTOR('',#864,10.);
#228=VECTOR('',#867,10.);
#229=VECTOR('',#870,10.);
#230=VECTOR('',#873,10.);
#231=VECTOR('',#876,10.);
#232=VECTOR('',#889,10.);
#233=VECTOR('',#890,10.);
#234=VECTOR('',#901,10.);
#235=VECTOR('',#902,10.);
#236=VECTOR('',#905,10.);
#237=VECTOR('',#906,10.);
#238=VECTOR('',#909,10.);
#239=VECTOR('',#912,10.);
#240=VECTOR('',#919,8.525);
#241=VECTOR('',#928,6.);
#242=VECTOR('',#937,1.5);
#243=VECTOR('',#944,10.);
#244=VECTOR('',#945,10.);
#245=VECTOR('',#946,10.);
#246=VECTOR('',#947,10.);
#247=VECTOR('',#952,10.);
#248=VECTOR('',#957,10.);
#249=VECTOR('',#958,10.);
#250=VECTOR('',#959,10.);
#251=VECTOR('',#964,10.);
#252=VECTOR('',#969,10.);
#253=VECTOR('',#970,10.);
#254=VECTOR('',#971,10.);
#255=VECTOR('',#974,10.);
#256=VECTOR('',#981,10.);
#257=VECTOR('',#984,10.);
#258=VECTOR('',#997,10.);
#259=VECTOR('',#998,10.);
#260=VECTOR('',#1011,10.);
#261=VECTOR('',#1012,10.);
#262=VECTOR('',#1015,10.);
#263=VECTOR('',#1016,10.);
#264=VECTOR('',#1019,10.);
#265=VECTOR('',#1022,10.);
#266=VECTOR('',#1025,10.);
#267=VECTOR('',#1028,10.);
#268=VECTOR('',#1029,10.);
#269=VECTOR('',#1040,8.525);
#270=VECTOR('',#1047,6.);
#271=CIRCLE('',#731,1.5);
#272=CIRCLE('',#732,1.5);
#273=CIRCLE('',#736,10.);
#274=CIRCLE('',#737,9.60000000000001);
#275=CIRCLE('',#740,10.);
#276=CIRCLE('',#741,9.60000000000001);
#277=CIRCLE('',#744,6.);
#278=CIRCLE('',#746,2.);
#279=CIRCLE('',#747,2.);
#280=CIRCLE('',#749,2.);
#281=CIRCLE('',#751,1.99999999999999);
#282=CIRCLE('',#752,8.);
#283=CIRCLE('',#753,10.);
#284=CIRCLE('',#755,1.99999999999999);
#285=CIRCLE('',#757,2.);
#286=CIRCLE('',#758,8.);
#287=CIRCLE('',#759,10.);
#288=CIRCLE('',#766,8.525);
#289=CIRCLE('',#767,8.525);
#290=CIRCLE('',#769,6.);
#291=CIRCLE('',#774,1.5);
#292=CIRCLE('',#775,1.5);
#293=CIRCLE('',#779,10.);
#294=CIRCLE('',#780,9.6);
#295=CIRCLE('',#783,10.);
#296=CIRCLE('',#784,9.60000000000001);
#297=CIRCLE('',#787,6.);
#298=CIRCLE('',#789,2.);
#299=CIRCLE('',#790,2.);
#300=CIRCLE('',#792,1.99999999999999);
#301=CIRCLE('',#793,8.);
#302=CIRCLE('',#794,10.);
#303=CIRCLE('',#796,1.99999999999999);
#304=CIRCLE('',#798,2.);
#305=CIRCLE('',#799,8.);
#306=CIRCLE('',#800,10.);
#307=CIRCLE('',#802,2.);
#308=CIRCLE('',#810,8.525);
#309=CIRCLE('',#812,8.525);
#310=CIRCLE('',#814,6.);
#311=VERTEX_POINT('',#1050);
#312=VERTEX_POINT('',#1052);
#313=VERTEX_POINT('',#1057);
#314=VERTEX_POINT('',#1058);
#315=VERTEX_POINT('',#1060);
#316=VERTEX_POINT('',#1062);
#317=VERTEX_POINT('',#1066);
#318=VERTEX_POINT('',#1067);
#319=VERTEX_POINT('',#1072);
#320=VERTEX_POINT('',#1073);
#321=VERTEX_POINT('',#1078);
#322=VERTEX_POINT('',#1079);
#323=VERTEX_POINT('',#1084);
#324=VERTEX_POINT('',#1085);
#325=VERTEX_POINT('',#1091);
#326=VERTEX_POINT('',#1094);
#327=VERTEX_POINT('',#1096);
#328=VERTEX_POINT('',#1098);
#329=VERTEX_POINT('',#1100);
#330=VERTEX_POINT('',#1104);
#331=VERTEX_POINT('',#1106);
#332=VERTEX_POINT('',#1110);
#333=VERTEX_POINT('',#1111);
#334=VERTEX_POINT('',#1116);
#335=VERTEX_POINT('',#1117);
#336=VERTEX_POINT('',#1122);
#337=VERTEX_POINT('',#1123);
#338=VERTEX_POINT('',#1139);
#339=VERTEX_POINT('',#1141);
#340=VERTEX_POINT('',#1145);
#341=VERTEX_POINT('',#1152);
#342=VERTEX_POINT('',#1154);
#343=VERTEX_POINT('',#1159);
#344=VERTEX_POINT('',#1160);
#345=VERTEX_POINT('',#1162);
#346=VERTEX_POINT('',#1164);
#347=VERTEX_POINT('',#1168);
#348=VERTEX_POINT('',#1170);
#349=VERTEX_POINT('',#1174);
#350=VERTEX_POINT('',#1176);
#351=VERTEX_POINT('',#1180);
#352=VERTEX_POINT('',#1182);
#353=VERTEX_POINT('',#1186);
#354=VERTEX_POINT('',#1187);
#355=VERTEX_POINT('',#1193);
#356=VERTEX_POINT('',#1196);
#357=VERTEX_POINT('',#1197);
#358=VERTEX_POINT('',#1199);
#359=VERTEX_POINT('',#1201);
#360=VERTEX_POINT('',#1205);
#361=VERTEX_POINT('',#1206);
#362=VERTEX_POINT('',#1211);
#363=VERTEX_POINT('',#1212);
#364=VERTEX_POINT('',#1217);
#365=VERTEX_POINT('',#1218);
#366=VERTEX_POINT('',#1223);
#367=VERTEX_POINT('',#1224);
#368=VERTEX_POINT('',#1242);
#369=VERTEX_POINT('',#1245);
#370=VERTEX_POINT('',#1249);
#371=EDGE_CURVE('',#311,#311,#271,.T.);
#372=EDGE_CURVE('',#311,#312,#155,.T.);
#373=EDGE_CURVE('',#312,#312,#272,.T.);
#374=EDGE_CURVE('',#313,#314,#156,.T.);
#375=EDGE_CURVE('',#314,#315,#157,.T.);
#376=EDGE_CURVE('',#315,#316,#158,.T.);
#377=EDGE_CURVE('',#316,#313,#159,.T.);
#378=EDGE_CURVE('',#317,#318,#160,.T.);
#379=EDGE_CURVE('',#318,#316,#273,.T.);
#380=EDGE_CURVE('',#315,#317,#274,.T.);
#381=EDGE_CURVE('',#319,#320,#161,.T.);
#382=EDGE_CURVE('',#320,#318,#162,.T.);
#383=EDGE_CURVE('',#317,#319,#163,.T.);
#384=EDGE_CURVE('',#321,#322,#164,.T.);
#385=EDGE_CURVE('',#322,#320,#275,.T.);
#386=EDGE_CURVE('',#319,#321,#276,.T.);
#387=EDGE_CURVE('',#323,#324,#165,.T.);
#388=EDGE_CURVE('',#324,#322,#166,.T.);
#389=EDGE_CURVE('',#321,#323,#167,.T.);
#390=EDGE_CURVE('',#323,#314,#168,.T.);
#391=EDGE_CURVE('',#325,#325,#277,.T.);
#392=EDGE_CURVE('',#313,#326,#169,.T.);
#393=EDGE_CURVE('',#327,#326,#278,.T.);
#394=EDGE_CURVE('',#327,#328,#170,.T.);
#395=EDGE_CURVE('',#329,#328,#279,.T.);
#396=EDGE_CURVE('',#329,#324,#171,.T.);
#397=EDGE_CURVE('',#326,#330,#172,.T.);
#398=EDGE_CURVE('',#330,#331,#280,.T.);
#399=EDGE_CURVE('',#331,#327,#173,.T.);
#400=EDGE_CURVE('',#332,#333,#281,.T.);
#401=EDGE_CURVE('',#333,#331,#282,.T.);
#402=EDGE_CURVE('',#330,#332,#283,.T.);
#403=EDGE_CURVE('',#334,#335,#284,.T.);
#404=EDGE_CURVE('',#335,#333,#174,.T.);
#405=EDGE_CURVE('',#332,#334,#175,.T.);
#406=EDGE_CURVE('',#336,#337,#285,.T.);
#407=EDGE_CURVE('',#337,#335,#286,.T.);
#408=EDGE_CURVE('',#334,#336,#287,.T.);
#409=EDGE_CURVE('',#328,#337,#176,.T.);
#410=EDGE_CURVE('',#336,#329,#177,.T.);
#411=EDGE_CURVE('',#322,#336,#178,.T.);
#412=EDGE_CURVE('',#334,#320,#179,.T.);
#413=EDGE_CURVE('',#318,#332,#180,.T.);
#414=EDGE_CURVE('',#330,#316,#181,.T.);
#415=EDGE_CURVE('',#338,#338,#288,.T.);
#416=EDGE_CURVE('',#338,#339,#182,.T.);
#417=EDGE_CURVE('',#339,#339,#289,.T.);
#418=EDGE_CURVE('',#340,#340,#290,.T.);
#419=EDGE_CURVE('',#325,#340,#183,.T.);
#420=EDGE_CURVE('',#341,#341,#291,.T.);
#421=EDGE_CURVE('',#341,#342,#184,.T.);
#422=EDGE_CURVE('',#342,#342,#292,.T.);
#423=EDGE_CURVE('',#343,#344,#185,.T.);
#424=EDGE_CURVE('',#344,#345,#186,.T.);
#425=EDGE_CURVE('',#345,#346,#187,.T.);
#426=EDGE_CURVE('',#346,#343,#188,.T.);
#427=EDGE_CURVE('',#345,#347,#293,.T.);
#428=EDGE_CURVE('',#347,#348,#189,.T.);
#429=EDGE_CURVE('',#348,#346,#294,.T.);
#430=EDGE_CURVE('',#347,#349,#190,.T.);
#431=EDGE_CURVE('',#349,#350,#191,.T.);
#432=EDGE_CURVE('',#350,#348,#192,.T.);
#433=EDGE_CURVE('',#349,#351,#295,.T.);
#434=EDGE_CURVE('',#351,#352,#193,.T.);
#435=EDGE_CURVE('',#352,#350,#296,.T.);
#436=EDGE_CURVE('',#353,#354,#194,.T.);
#437=EDGE_CURVE('',#354,#352,#195,.T.);
#438=EDGE_CURVE('',#351,#353,#196,.T.);
#439=EDGE_CURVE('',#354,#343,#197,.T.);
#440=EDGE_CURVE('',#355,#355,#297,.T.);
#441=EDGE_CURVE('',#356,#357,#298,.T.);
#442=EDGE_CURVE('',#357,#358,#198,.T.);
#443=EDGE_CURVE('',#358,#359,#299,.T.);
#444=EDGE_CURVE('',#359,#356,#199,.T.);
#445=EDGE_CURVE('',#360,#361,#300,.T.);
#446=EDGE_CURVE('',#361,#359,#301,.T.);
#447=EDGE_CURVE('',#358,#360,#302,.T.);
#448=EDGE_CURVE('',#362,#363,#303,.T.);
#449=EDGE_CURVE('',#363,#361,#200,.T.);
#450=EDGE_CURVE('',#360,#362,#201,.T.);
#451=EDGE_CURVE('',#364,#365,#304,.T.);
#452=EDGE_CURVE('',#365,#363,#305,.T.);
#453=EDGE_CURVE('',#362,#364,#306,.T.);
#454=EDGE_CURVE('',#366,#367,#307,.T.);
#455=EDGE_CURVE('',#367,#365,#202,.T.);
#456=EDGE_CURVE('',#364,#366,#203,.T.);
#457=EDGE_CURVE('',#344,#366,#204,.T.);
#458=EDGE_CURVE('',#345,#364,#205,.T.);
#459=EDGE_CURVE('',#362,#347,#206,.T.);
#460=EDGE_CURVE('',#349,#360,#207,.T.);
#461=EDGE_CURVE('',#358,#351,#208,.T.);
#462=EDGE_CURVE('',#357,#353,#209,.T.);
#463=EDGE_CURVE('',#367,#356,#210,.T.);
#464=EDGE_CURVE('',#368,#368,#308,.T.);
#465=EDGE_CURVE('',#369,#369,#309,.T.);
#466=EDGE_CURVE('',#369,#368,#211,.T.);
#467=EDGE_CURVE('',#370,#370,#310,.T.);
#468=EDGE_CURVE('',#355,#370,#212,.T.);
#469=ORIENTED_EDGE('',*,*,#371,.F.);
#470=ORIENTED_EDGE('',*,*,#372,.T.);
#471=ORIENTED_EDGE('',*,*,#373,.T.);
#472=ORIENTED_EDGE('',*,*,#372,.F.);
#473=ORIENTED_EDGE('',*,*,#373,.F.);
#474=ORIENTED_EDGE('',*,*,#374,.T.);
#475=ORIENTED_EDGE('',*,*,#375,.T.);
#476=ORIENTED_EDGE('',*,*,#376,.T.);
#477=ORIENTED_EDGE('',*,*,#377,.T.);
#478=ORIENTED_EDGE('',*,*,#378,.T.);
#479=ORIENTED_EDGE('',*,*,#379,.T.);
#480=ORIENTED_EDGE('',*,*,#376,.F.);
#481=ORIENTED_EDGE('',*,*,#380,.T.);
#482=ORIENTED_EDGE('',*,*,#381,.T.);
#483=ORIENTED_EDGE('',*,*,#382,.T.);
#484=ORIENTED_EDGE('',*,*,#378,.F.);
#485=ORIENTED_EDGE('',*,*,#383,.T.);
#486=ORIENTED_EDGE('',*,*,#384,.T.);
#487=ORIENTED_EDGE('',*,*,#385,.T.);
#488=ORIENTED_EDGE('',*,*,#381,.F.);
#489=ORIENTED_EDGE('',*,*,#386,.T.);
#490=ORIENTED_EDGE('',*,*,#387,.T.);
#491=ORIENTED_EDGE('',*,*,#388,.T.);
#492=ORIENTED_EDGE('',*,*,#384,.F.);
#493=ORIENTED_EDGE('',*,*,#389,.T.);
#494=ORIENTED_EDGE('',*,*,#389,.F.);
#495=ORIENTED_EDGE('',*,*,#386,.F.);
#496=ORIENTED_EDGE('',*,*,#383,.F.);
#497=ORIENTED_EDGE('',*,*,#380,.F.);
#498=ORIENTED_EDGE('',*,*,#375,.F.);
#499=ORIENTED_EDGE('',*,*,#390,.F.);
#500=ORIENTED_EDGE('',*,*,#391,.T.);
#501=ORIENTED_EDGE('',*,*,#387,.F.);
#502=ORIENTED_EDGE('',*,*,#390,.T.);
#503=ORIENTED_EDGE('',*,*,#374,.F.);
#504=ORIENTED_EDGE('',*,*,#392,.T.);
#505=ORIENTED_EDGE('',*,*,#393,.F.);
#506=ORIENTED_EDGE('',*,*,#394,.T.);
#507=ORIENTED_EDGE('',*,*,#395,.F.);
#508=ORIENTED_EDGE('',*,*,#396,.T.);
#509=ORIENTED_EDGE('',*,*,#371,.T.);
#510=ORIENTED_EDGE('',*,*,#393,.T.);
#511=ORIENTED_EDGE('',*,*,#397,.T.);
#512=ORIENTED_EDGE('',*,*,#398,.T.);
#513=ORIENTED_EDGE('',*,*,#399,.T.);
#514=ORIENTED_EDGE('',*,*,#400,.T.);
#515=ORIENTED_EDGE('',*,*,#401,.T.);
#516=ORIENTED_EDGE('',*,*,#398,.F.);
#517=ORIENTED_EDGE('',*,*,#402,.T.);
#518=ORIENTED_EDGE('',*,*,#403,.T.);
#519=ORIENTED_EDGE('',*,*,#404,.T.);
#520=ORIENTED_EDGE('',*,*,#400,.F.);
#521=ORIENTED_EDGE('',*,*,#405,.T.);
#522=ORIENTED_EDGE('',*,*,#406,.T.);
#523=ORIENTED_EDGE('',*,*,#407,.T.);
#524=ORIENTED_EDGE('',*,*,#403,.F.);
#525=ORIENTED_EDGE('',*,*,#408,.T.);
#526=ORIENTED_EDGE('',*,*,#395,.T.);
#527=ORIENTED_EDGE('',*,*,#409,.T.);
#528=ORIENTED_EDGE('',*,*,#406,.F.);
#529=ORIENTED_EDGE('',*,*,#410,.T.);
#530=ORIENTED_EDGE('',*,*,#385,.F.);
#531=ORIENTED_EDGE('',*,*,#411,.T.);
#532=ORIENTED_EDGE('',*,*,#408,.F.);
#533=ORIENTED_EDGE('',*,*,#412,.T.);
#534=ORIENTED_EDGE('',*,*,#382,.F.);
#535=ORIENTED_EDGE('',*,*,#412,.F.);
#536=ORIENTED_EDGE('',*,*,#405,.F.);
#537=ORIENTED_EDGE('',*,*,#413,.F.);
#538=ORIENTED_EDGE('',*,*,#379,.F.);
#539=ORIENTED_EDGE('',*,*,#413,.T.);
#540=ORIENTED_EDGE('',*,*,#402,.F.);
#541=ORIENTED_EDGE('',*,*,#414,.T.);
#542=ORIENTED_EDGE('',*,*,#377,.F.);
#543=ORIENTED_EDGE('',*,*,#414,.F.);
#544=ORIENTED_EDGE('',*,*,#397,.F.);
#545=ORIENTED_EDGE('',*,*,#392,.F.);
#546=ORIENTED_EDGE('',*,*,#415,.F.);
#547=ORIENTED_EDGE('',*,*,#416,.T.);
#548=ORIENTED_EDGE('',*,*,#417,.F.);
#549=ORIENTED_EDGE('',*,*,#416,.F.);
#550=ORIENTED_EDGE('',*,*,#415,.T.);
#551=ORIENTED_EDGE('',*,*,#418,.F.);
#552=ORIENTED_EDGE('',*,*,#391,.F.);
#553=ORIENTED_EDGE('',*,*,#419,.T.);
#554=ORIENTED_EDGE('',*,*,#418,.T.);
#555=ORIENTED_EDGE('',*,*,#419,.F.);
#556=ORIENTED_EDGE('',*,*,#388,.F.);
#557=ORIENTED_EDGE('',*,*,#396,.F.);
#558=ORIENTED_EDGE('',*,*,#410,.F.);
#559=ORIENTED_EDGE('',*,*,#411,.F.);
#560=ORIENTED_EDGE('',*,*,#409,.F.);
#561=ORIENTED_EDGE('',*,*,#394,.F.);
#562=ORIENTED_EDGE('',*,*,#399,.F.);
#563=ORIENTED_EDGE('',*,*,#401,.F.);
#564=ORIENTED_EDGE('',*,*,#404,.F.);
#565=ORIENTED_EDGE('',*,*,#407,.F.);
#566=ORIENTED_EDGE('',*,*,#417,.T.);
#567=ORIENTED_EDGE('',*,*,#420,.F.);
#568=ORIENTED_EDGE('',*,*,#421,.T.);
#569=ORIENTED_EDGE('',*,*,#422,.T.);
#570=ORIENTED_EDGE('',*,*,#421,.F.);
#571=ORIENTED_EDGE('',*,*,#422,.F.);
#572=ORIENTED_EDGE('',*,*,#423,.T.);
#573=ORIENTED_EDGE('',*,*,#424,.T.);
#574=ORIENTED_EDGE('',*,*,#425,.T.);
#575=ORIENTED_EDGE('',*,*,#426,.T.);
#576=ORIENTED_EDGE('',*,*,#425,.F.);
#577=ORIENTED_EDGE('',*,*,#427,.T.);
#578=ORIENTED_EDGE('',*,*,#428,.T.);
#579=ORIENTED_EDGE('',*,*,#429,.T.);
#580=ORIENTED_EDGE('',*,*,#428,.F.);
#581=ORIENTED_EDGE('',*,*,#430,.T.);
#582=ORIENTED_EDGE('',*,*,#431,.T.);
#583=ORIENTED_EDGE('',*,*,#432,.T.);
#584=ORIENTED_EDGE('',*,*,#431,.F.);
#585=ORIENTED_EDGE('',*,*,#433,.T.);
#586=ORIENTED_EDGE('',*,*,#434,.T.);
#587=ORIENTED_EDGE('',*,*,#435,.T.);
#588=ORIENTED_EDGE('',*,*,#436,.T.);
#589=ORIENTED_EDGE('',*,*,#437,.T.);
#590=ORIENTED_EDGE('',*,*,#434,.F.);
#591=ORIENTED_EDGE('',*,*,#438,.T.);
#592=ORIENTED_EDGE('',*,*,#426,.F.);
#593=ORIENTED_EDGE('',*,*,#429,.F.);
#594=ORIENTED_EDGE('',*,*,#432,.F.);
#595=ORIENTED_EDGE('',*,*,#435,.F.);
#596=ORIENTED_EDGE('',*,*,#437,.F.);
#597=ORIENTED_EDGE('',*,*,#439,.T.);
#598=ORIENTED_EDGE('',*,*,#440,.T.);
#599=ORIENTED_EDGE('',*,*,#441,.T.);
#600=ORIENTED_EDGE('',*,*,#442,.T.);
#601=ORIENTED_EDGE('',*,*,#443,.T.);
#602=ORIENTED_EDGE('',*,*,#444,.T.);
#603=ORIENTED_EDGE('',*,*,#445,.T.);
#604=ORIENTED_EDGE('',*,*,#446,.T.);
#605=ORIENTED_EDGE('',*,*,#443,.F.);
#606=ORIENTED_EDGE('',*,*,#447,.T.);
#607=ORIENTED_EDGE('',*,*,#448,.T.);
#608=ORIENTED_EDGE('',*,*,#449,.T.);
#609=ORIENTED_EDGE('',*,*,#445,.F.);
#610=ORIENTED_EDGE('',*,*,#450,.T.);
#611=ORIENTED_EDGE('',*,*,#451,.T.);
#612=ORIENTED_EDGE('',*,*,#452,.T.);
#613=ORIENTED_EDGE('',*,*,#448,.F.);
#614=ORIENTED_EDGE('',*,*,#453,.T.);
#615=ORIENTED_EDGE('',*,*,#454,.T.);
#616=ORIENTED_EDGE('',*,*,#455,.T.);
#617=ORIENTED_EDGE('',*,*,#451,.F.);
#618=ORIENTED_EDGE('',*,*,#456,.T.);
#619=ORIENTED_EDGE('',*,*,#424,.F.);
#620=ORIENTED_EDGE('',*,*,#457,.T.);
#621=ORIENTED_EDGE('',*,*,#456,.F.);
#622=ORIENTED_EDGE('',*,*,#458,.F.);
#623=ORIENTED_EDGE('',*,*,#427,.F.);
#624=ORIENTED_EDGE('',*,*,#458,.T.);
#625=ORIENTED_EDGE('',*,*,#453,.F.);
#626=ORIENTED_EDGE('',*,*,#459,.T.);
#627=ORIENTED_EDGE('',*,*,#430,.F.);
#628=ORIENTED_EDGE('',*,*,#459,.F.);
#629=ORIENTED_EDGE('',*,*,#450,.F.);
#630=ORIENTED_EDGE('',*,*,#460,.F.);
#631=ORIENTED_EDGE('',*,*,#433,.F.);
#632=ORIENTED_EDGE('',*,*,#460,.T.);
#633=ORIENTED_EDGE('',*,*,#447,.F.);
#634=ORIENTED_EDGE('',*,*,#461,.T.);
#635=ORIENTED_EDGE('',*,*,#423,.F.);
#636=ORIENTED_EDGE('',*,*,#439,.F.);
#637=ORIENTED_EDGE('',*,*,#436,.F.);
#638=ORIENTED_EDGE('',*,*,#462,.F.);
#639=ORIENTED_EDGE('',*,*,#441,.F.);
#640=ORIENTED_EDGE('',*,*,#463,.F.);
#641=ORIENTED_EDGE('',*,*,#454,.F.);
#642=ORIENTED_EDGE('',*,*,#457,.F.);
#643=ORIENTED_EDGE('',*,*,#420,.T.);
#644=ORIENTED_EDGE('',*,*,#438,.F.);
#645=ORIENTED_EDGE('',*,*,#461,.F.);
#646=ORIENTED_EDGE('',*,*,#442,.F.);
#647=ORIENTED_EDGE('',*,*,#462,.T.);
#648=ORIENTED_EDGE('',*,*,#455,.F.);
#649=ORIENTED_EDGE('',*,*,#463,.T.);
#650=ORIENTED_EDGE('',*,*,#444,.F.);
#651=ORIENTED_EDGE('',*,*,#446,.F.);
#652=ORIENTED_EDGE('',*,*,#449,.F.);
#653=ORIENTED_EDGE('',*,*,#452,.F.);
#654=ORIENTED_EDGE('',*,*,#464,.T.);
#655=ORIENTED_EDGE('',*,*,#465,.F.);
#656=ORIENTED_EDGE('',*,*,#466,.T.);
#657=ORIENTED_EDGE('',*,*,#464,.F.);
#658=ORIENTED_EDGE('',*,*,#466,.F.);
#659=ORIENTED_EDGE('',*,*,#465,.T.);
#660=ORIENTED_EDGE('',*,*,#467,.F.);
#661=ORIENTED_EDGE('',*,*,#440,.F.);
#662=ORIENTED_EDGE('',*,*,#468,.T.);
#663=ORIENTED_EDGE('',*,*,#467,.T.);
#664=ORIENTED_EDGE('',*,*,#468,.F.);
#665=CYLINDRICAL_SURFACE('',#730,1.5);
#666=CYLINDRICAL_SURFACE('',#748,2.);
#667=CYLINDRICAL_SURFACE('',#754,2.);
#668=CYLINDRICAL_SURFACE('',#760,2.);
#669=CYLINDRICAL_SURFACE('',#761,10.);
#670=CYLINDRICAL_SURFACE('',#763,10.);
#671=CYLINDRICAL_SURFACE('',#765,8.525);
#672=CYLINDRICAL_SURFACE('',#770,6.);
#673=CYLINDRICAL_SURFACE('',#773,1.5);
#674=CYLINDRICAL_SURFACE('',#788,2.);
#675=CYLINDRICAL_SURFACE('',#795,2.);
#676=CYLINDRICAL_SURFACE('',#801,2.);
#677=CYLINDRICAL_SURFACE('',#804,10.);
#678=CYLINDRICAL_SURFACE('',#806,10.);
#679=CYLINDRICAL_SURFACE('',#811,8.525);
#680=CYLINDRICAL_SURFACE('',#815,6.);
#681=ADVANCED_FACE('',(#55),#665,.F.);
#682=ADVANCED_FACE('',(#56),#33,.F.);
#683=ADVANCED_FACE('',(#57),#34,.T.);
#684=ADVANCED_FACE('',(#58),#29,.T.);
#685=ADVANCED_FACE('',(#59),#35,.T.);
#686=ADVANCED_FACE('',(#60),#30,.T.);
#687=ADVANCED_FACE('',(#61),#36,.T.);
#688=ADVANCED_FACE('',(#62,#21),#37,.T.);
#689=ADVANCED_FACE('',(#63,#22),#38,.F.);
#690=ADVANCED_FACE('',(#64),#666,.T.);
#691=ADVANCED_FACE('',(#65),#17,.T.);
#692=ADVANCED_FACE('',(#66),#667,.T.);
#693=ADVANCED_FACE('',(#67),#18,.T.);
#694=ADVANCED_FACE('',(#68),#668,.T.);
#695=ADVANCED_FACE('',(#69),#669,.T.);
#696=ADVANCED_FACE('',(#70),#39,.T.);
#697=ADVANCED_FACE('',(#71),#670,.T.);
#698=ADVANCED_FACE('',(#72),#40,.T.);
#699=ADVANCED_FACE('',(#73),#671,.F.);
#700=ADVANCED_FACE('',(#74,#23),#41,.F.);
#701=ADVANCED_FACE('',(#75),#672,.F.);
#702=ADVANCED_FACE('',(#76),#42,.T.);
#703=ADVANCED_FACE('',(#77,#24),#43,.T.);
#704=ADVANCED_FACE('',(#78),#673,.F.);
#705=ADVANCED_FACE('',(#79),#44,.F.);
#706=ADVANCED_FACE('',(#80),#45,.T.);
#707=ADVANCED_FACE('',(#81),#31,.T.);
#708=ADVANCED_FACE('',(#82),#46,.T.);
#709=ADVANCED_FACE('',(#83),#32,.T.);
#710=ADVANCED_FACE('',(#84),#47,.T.);
#711=ADVANCED_FACE('',(#85,#25),#48,.T.);
#712=ADVANCED_FACE('',(#86),#674,.T.);
#713=ADVANCED_FACE('',(#87),#19,.T.);
#714=ADVANCED_FACE('',(#88),#675,.T.);
#715=ADVANCED_FACE('',(#89),#20,.T.);
#716=ADVANCED_FACE('',(#90),#676,.T.);
#717=ADVANCED_FACE('',(#91),#49,.T.);
#718=ADVANCED_FACE('',(#92),#677,.T.);
#719=ADVANCED_FACE('',(#93),#50,.T.);
#720=ADVANCED_FACE('',(#94),#678,.T.);
#721=ADVANCED_FACE('',(#95,#26),#51,.F.);
#722=ADVANCED_FACE('',(#96),#52,.T.);
#723=ADVANCED_FACE('',(#97,#27),#53,.T.);
#724=ADVANCED_FACE('',(#98),#679,.F.);
#725=ADVANCED_FACE('',(#99,#28),#54,.F.);
#726=ADVANCED_FACE('',(#100),#680,.F.);
#727=CLOSED_SHELL('',(#681,#682,#683,#684,#685,#686,#687,#688,#689,#690,
#691,#692,#693,#694,#695,#696,#697,#698,#699,#700,#701,#702,#703));
#728=CLOSED_SHELL('',(#704,#705,#706,#707,#708,#709,#710,#711,#712,#713,
#714,#715,#716,#717,#718,#719,#720,#721,#722,#723,#724,#725,#726));
#729=AXIS2_PLACEMENT_3D('',#1048,#816,#817);
#730=AXIS2_PLACEMENT_3D('',#1049,#818,#819);
#731=AXIS2_PLACEMENT_3D('',#1051,#820,#821);
#732=AXIS2_PLACEMENT_3D('',#1054,#823,#824);
#733=AXIS2_PLACEMENT_3D('',#1055,#825,#826);
#734=AXIS2_PLACEMENT_3D('',#1056,#827,#828);
#735=AXIS2_PLACEMENT_3D('',#1065,#833,#834);
#736=AXIS2_PLACEMENT_3D('',#1069,#836,#837);
#737=AXIS2_PLACEMENT_3D('',#1070,#838,#839);
#738=AXIS2_PLACEMENT_3D('',#1071,#840,#841);
#739=AXIS2_PLACEMENT_3D('',#1077,#845,#846);
#740=AXIS2_PLACEMENT_3D('',#1081,#848,#849);
#741=AXIS2_PLACEMENT_3D('',#1082,#850,#851);
#742=AXIS2_PLACEMENT_3D('',#1083,#852,#853);
#743=AXIS2_PLACEMENT_3D('',#1089,#857,#858);
#744=AXIS2_PLACEMENT_3D('',#1092,#860,#861);
#745=AXIS2_PLACEMENT_3D('',#1093,#862,#863);
#746=AXIS2_PLACEMENT_3D('',#1097,#865,#866);
#747=AXIS2_PLACEMENT_3D('',#1101,#868,#869);
#748=AXIS2_PLACEMENT_3D('',#1103,#871,#872);
#749=AXIS2_PLACEMENT_3D('',#1107,#874,#875);
#750=AXIS2_PLACEMENT_3D('',#1109,#877,#878);
#751=AXIS2_PLACEMENT_3D('',#1112,#879,#880);
#752=AXIS2_PLACEMENT_3D('',#1113,#881,#882);
#753=AXIS2_PLACEMENT_3D('',#1114,#883,#884);
#754=AXIS2_PLACEMENT_3D('',#1115,#885,#886);
#755=AXIS2_PLACEMENT_3D('',#1118,#887,#888);
#756=AXIS2_PLACEMENT_3D('',#1121,#891,#892);
#757=AXIS2_PLACEMENT_3D('',#1124,#893,#894);
#758=AXIS2_PLACEMENT_3D('',#1125,#895,#896);
#759=AXIS2_PLACEMENT_3D('',#1126,#897,#898);
#760=AXIS2_PLACEMENT_3D('',#1127,#899,#900);
#761=AXIS2_PLACEMENT_3D('',#1130,#903,#904);
#762=AXIS2_PLACEMENT_3D('',#1133,#907,#908);
#763=AXIS2_PLACEMENT_3D('',#1135,#910,#911);
#764=AXIS2_PLACEMENT_3D('',#1137,#913,#914);
#765=AXIS2_PLACEMENT_3D('',#1138,#915,#916);
#766=AXIS2_PLACEMENT_3D('',#1140,#917,#918);
#767=AXIS2_PLACEMENT_3D('',#1143,#920,#921);
#768=AXIS2_PLACEMENT_3D('',#1144,#922,#923);
#769=AXIS2_PLACEMENT_3D('',#1146,#924,#925);
#770=AXIS2_PLACEMENT_3D('',#1147,#926,#927);
#771=AXIS2_PLACEMENT_3D('',#1149,#929,#930);
#772=AXIS2_PLACEMENT_3D('',#1150,#931,#932);
#773=AXIS2_PLACEMENT_3D('',#1151,#933,#934);
#774=AXIS2_PLACEMENT_3D('',#1153,#935,#936);
#775=AXIS2_PLACEMENT_3D('',#1156,#938,#939);
#776=AXIS2_PLACEMENT_3D('',#1157,#940,#941);
#777=AXIS2_PLACEMENT_3D('',#1158,#942,#943);
#778=AXIS2_PLACEMENT_3D('',#1167,#948,#949);
#779=AXIS2_PLACEMENT_3D('',#1169,#950,#951);
#780=AXIS2_PLACEMENT_3D('',#1172,#953,#954);
#781=AXIS2_PLACEMENT_3D('',#1173,#955,#956);
#782=AXIS2_PLACEMENT_3D('',#1179,#960,#961);
#783=AXIS2_PLACEMENT_3D('',#1181,#962,#963);
#784=AXIS2_PLACEMENT_3D('',#1184,#965,#966);
#785=AXIS2_PLACEMENT_3D('',#1185,#967,#968);
#786=AXIS2_PLACEMENT_3D('',#1191,#972,#973);
#787=AXIS2_PLACEMENT_3D('',#1194,#975,#976);
#788=AXIS2_PLACEMENT_3D('',#1195,#977,#978);
#789=AXIS2_PLACEMENT_3D('',#1198,#979,#980);
#790=AXIS2_PLACEMENT_3D('',#1202,#982,#983);
#791=AXIS2_PLACEMENT_3D('',#1204,#985,#986);
#792=AXIS2_PLACEMENT_3D('',#1207,#987,#988);
#793=AXIS2_PLACEMENT_3D('',#1208,#989,#990);
#794=AXIS2_PLACEMENT_3D('',#1209,#991,#992);
#795=AXIS2_PLACEMENT_3D('',#1210,#993,#994);
#796=AXIS2_PLACEMENT_3D('',#1213,#995,#996);
#797=AXIS2_PLACEMENT_3D('',#1216,#999,#1000);
#798=AXIS2_PLACEMENT_3D('',#1219,#1001,#1002);
#799=AXIS2_PLACEMENT_3D('',#1220,#1003,#1004);
#800=AXIS2_PLACEMENT_3D('',#1221,#1005,#1006);
#801=AXIS2_PLACEMENT_3D('',#1222,#1007,#1008);
#802=AXIS2_PLACEMENT_3D('',#1225,#1009,#1010);
#803=AXIS2_PLACEMENT_3D('',#1228,#1013,#1014);
#804=AXIS2_PLACEMENT_3D('',#1231,#1017,#1018);
#805=AXIS2_PLACEMENT_3D('',#1233,#1020,#1021);
#806=AXIS2_PLACEMENT_3D('',#1235,#1023,#1024);
#807=AXIS2_PLACEMENT_3D('',#1237,#1026,#1027);
#808=AXIS2_PLACEMENT_3D('',#1240,#1030,#1031);
#809=AXIS2_PLACEMENT_3D('',#1241,#1032,#1033);
#810=AXIS2_PLACEMENT_3D('',#1243,#1034,#1035);
#811=AXIS2_PLACEMENT_3D('',#1244,#1036,#1037);
#812=AXIS2_PLACEMENT_3D('',#1246,#1038,#1039);
#813=AXIS2_PLACEMENT_3D('',#1248,#1041,#1042);
#814=AXIS2_PLACEMENT_3D('',#1250,#1043,#1044);
#815=AXIS2_PLACEMENT_3D('',#1251,#1045,#1046);
#816=DIRECTION('axis',(0.,0.,1.));
#817=DIRECTION('refdir',(1.,0.,0.));
#818=DIRECTION('center_axis',(0.,1.,-4.84460956200068E-15));
#819=DIRECTION('ref_axis',(1.,0.,1.46146437701312E-45));
#820=DIRECTION('center_axis',(-3.0166814442103E-31,1.,-4.92661467177413E-15));
#821=DIRECTION('ref_axis',(1.,0.,1.46146437701312E-45));
#822=DIRECTION('',(0.,1.,-4.84460956200068E-15));
#823=DIRECTION('center_axis',(-3.0166814442103E-31,1.,-4.92661467177413E-15));
#824=DIRECTION('ref_axis',(1.,3.0166814442103E-31,0.));
#825=DIRECTION('center_axis',(-3.0166814442103E-31,1.,-4.92661467177413E-15));
#826=DIRECTION('ref_axis',(1.,3.0166814442103E-31,0.));
#827=DIRECTION('center_axis',(0.707106781186548,-3.47966436789377E-15,-0.707106781186548));
#828=DIRECTION('ref_axis',(-0.707106781186548,0.,-0.707106781186548));
#829=DIRECTION('',(-0.707106781186547,-3.48364264270462E-15,-0.707106781186547));
#830=DIRECTION('',(0.,1.,-4.92098854158178E-15));
#831=DIRECTION('',(0.707106781186548,0.,0.707106781186548));
#832=DIRECTION('',(0.,-1.,4.92098854158178E-15));
#833=DIRECTION('center_axis',(3.46944695195365E-16,0.,1.));
#834=DIRECTION('ref_axis',(0.707106781186547,0.707106781186547,-3.76671030402981E-15));
#835=DIRECTION('',(1.22663473334672E-15,0.707106781186544,0.707106781186551));
#836=DIRECTION('center_axis',(-4.03717463500057E-16,-4.92098854158178E-15,
-1.));
#837=DIRECTION('ref_axis',(0.707106781186547,0.707106781186548,-3.76822190084106E-15));
#838=DIRECTION('center_axis',(4.03717463500057E-16,4.92098854158178E-15,
1.));
#839=DIRECTION('ref_axis',(0.707106781186547,0.707106781186548,-3.76513572401809E-15));
#840=DIRECTION('center_axis',(-2.85471356124325E-16,0.70710678118654,-0.707106781186555));
#841=DIRECTION('ref_axis',(-1.,0.,4.03717463500055E-16));
#842=DIRECTION('',(-2.45326946669342E-16,0.70710678118654,0.707106781186555));
#843=DIRECTION('',(1.,-1.98668901192024E-30,-4.03717463500057E-16));
#844=DIRECTION('',(-1.,1.98668901192024E-30,4.03717463500057E-16));
#845=DIRECTION('center_axis',(3.4694469519538E-16,0.,1.));
#846=DIRECTION('ref_axis',(-0.707106781186547,0.707106781186547,-3.48706489394884E-15));
#847=DIRECTION('',(-0.707106781186557,0.,0.707106781186538));
#848=DIRECTION('center_axis',(-4.03717463500057E-16,-4.92098854158178E-15,
-1.));
#849=DIRECTION('ref_axis',(-0.707106781186547,0.707106781186548,-3.76822190084106E-15));
#850=DIRECTION('center_axis',(4.03717463500057E-16,4.92098854158178E-15,
1.));
#851=DIRECTION('ref_axis',(-0.707106781186547,0.707106781186548,-3.19419301176945E-15));
#852=DIRECTION('center_axis',(-0.707106781186548,-3.47966436789377E-15,
-0.707106781186548));
#853=DIRECTION('ref_axis',(-0.707106781186548,0.,0.707106781186548));
#854=DIRECTION('',(-0.707106781186547,3.48364264270462E-15,0.707106781186547));
#855=DIRECTION('',(0.,1.,-4.92098854158178E-15));
#856=DIRECTION('',(0.,-1.,4.92098854158178E-15));
#857=DIRECTION('center_axis',(-4.03717463500057E-16,-4.92098854158178E-15,
-1.));
#858=DIRECTION('ref_axis',(-1.,1.68729223450979E-30,4.03717463500057E-16));
#859=DIRECTION('',(1.,-1.68729223450979E-30,-4.03717463500057E-16));
#860=DIRECTION('center_axis',(4.03717463500057E-16,4.92098854158178E-15,
1.));
#861=DIRECTION('ref_axis',(1.,0.,0.));
#862=DIRECTION('center_axis',(-3.0166814442103E-31,1.,-4.92661467177413E-15));
#863=DIRECTION('ref_axis',(1.,3.0166814442103E-31,0.));
#864=DIRECTION('',(4.44089209850061E-16,4.92661467177413E-15,1.));
#865=DIRECTION('center_axis',(-3.0166814442103E-31,1.,-4.92661467177413E-15));
#866=DIRECTION('ref_axis',(0.707106781186547,3.14018491736755E-15,0.707106781186548));
#867=DIRECTION('',(-1.,-8.2575096601443E-30,-1.61486985400023E-15));
#868=DIRECTION('center_axis',(-3.0166814442103E-31,1.,-4.92661467177413E-15));
#869=DIRECTION('ref_axis',(-0.707106781186548,3.14018491736755E-15,0.707106781186548));
#870=DIRECTION('',(4.44089209850063E-16,-4.92661467177413E-15,-1.));
#871=DIRECTION('center_axis',(0.,1.,-4.92098854158178E-15));
#872=DIRECTION('ref_axis',(0.707106781186547,3.14018491736755E-15,0.707106781186548));
#873=DIRECTION('',(0.,1.,-4.92098854158178E-15));
#874=DIRECTION('center_axis',(0.,-1.,0.));
#875=DIRECTION('ref_axis',(1.,0.,0.));
#876=DIRECTION('',(0.,-1.,4.92098854158178E-15));
#877=DIRECTION('center_axis',(1.61486985400023E-15,-4.92098854158178E-15,
-1.));
#878=DIRECTION('ref_axis',(-1.,0.,-1.4210854715202E-15));
#879=DIRECTION('center_axis',(1.,1.38777878078152E-16,1.66533453693771E-15));
#880=DIRECTION('ref_axis',(-1.38777878078145E-16,1.,-4.44089209850064E-15));
#881=DIRECTION('center_axis',(1.61486985400023E-15,-4.92098854158178E-15,
-1.));
#882=DIRECTION('ref_axis',(0.707106781186548,0.707106781186548,-2.33777894339648E-15));
#883=DIRECTION('center_axis',(-1.61486985400023E-15,4.92098854158178E-15,
1.));
#884=DIRECTION('ref_axis',(0.707106781186548,0.707106781186548,-2.33146835171282E-15));
#885=DIRECTION('center_axis',(1.,7.94675604768096E-30,1.61486985400023E-15));
#886=DIRECTION('ref_axis',(-7.85046229341884E-16,0.707106781186554,0.707106781186541));
#887=DIRECTION('center_axis',(1.,1.38777878078152E-16,1.66533453693773E-15));
#888=DIRECTION('ref_axis',(-1.38777878078145E-16,1.,-4.44089209850064E-15));
#889=DIRECTION('',(1.,7.94675604768096E-30,1.61486985400023E-15));
#890=DIRECTION('',(-1.,-7.94675604768096E-30,-1.61486985400023E-15));
#891=DIRECTION('center_axis',(1.61486985400023E-15,-4.92098854158178E-15,
-1.));
#892=DIRECTION('ref_axis',(-1.,0.,-1.4210854715202E-15));
#893=DIRECTION('center_axis',(1.97215226305252E-29,1.,-8.88178419700118E-15));
#894=DIRECTION('ref_axis',(-1.,0.,-2.22044604925032E-15));
#895=DIRECTION('center_axis',(1.61486985400023E-15,-4.92098854158178E-15,
-1.));
#896=DIRECTION('ref_axis',(-0.707106781186548,0.707106781186547,-4.62154979239106E-15));
#897=DIRECTION('center_axis',(-1.61486985400023E-15,4.92098854158178E-15,
1.));
#898=DIRECTION('ref_axis',(-0.707106781186548,0.707106781186547,-4.63518112781003E-15));
#899=DIRECTION('center_axis',(0.,1.,-4.92098854158178E-15));
#900=DIRECTION('ref_axis',(-0.707106781186548,3.14018491736755E-15,0.707106781186548));
#901=DIRECTION('',(0.,1.,-4.92098854158178E-15));
#902=DIRECTION('',(0.,-1.,4.92098854158178E-15));
#903=DIRECTION('center_axis',(-4.44089209850063E-16,4.92098854158178E-15,
1.));
#904=DIRECTION('ref_axis',(-0.707106781186547,0.707106781186548,-3.76822190084106E-15));
#905=DIRECTION('',(-4.44089209850063E-16,4.92098854158178E-15,1.));
#906=DIRECTION('',(4.44089209850063E-16,-4.92098854158178E-15,-1.));
#907=DIRECTION('center_axis',(0.,1.,-4.92098854158178E-15));
#908=DIRECTION('ref_axis',(0.,4.92098854158178E-15,1.));
#909=DIRECTION('',(4.44089209850061E-16,4.92098854158178E-15,1.));
#910=DIRECTION('center_axis',(-4.44089209850061E-16,-4.92098854158178E-15,
-1.));
#911=DIRECTION('ref_axis',(0.707106781186547,0.707106781186548,-3.76822190084106E-15));
#912=DIRECTION('',(-4.44089209850061E-16,-4.92098854158178E-15,-1.));
#913=DIRECTION('center_axis',(1.,-2.18535791311225E-30,-4.44089209850061E-16));
#914=DIRECTION('ref_axis',(-4.44089209850061E-16,-4.92661467177413E-15,
-1.));
#915=DIRECTION('center_axis',(0.,0.,1.));
#916=DIRECTION('ref_axis',(1.,0.,0.));
#917=DIRECTION('center_axis',(4.03717463500057E-16,4.92098854158178E-15,
1.));
#918=DIRECTION('ref_axis',(1.,0.,0.));
#919=DIRECTION('',(0.,0.,1.));
#920=DIRECTION('center_axis',(1.61486985400023E-15,-4.92098854158178E-15,
-1.));
#921=DIRECTION('ref_axis',(1.,0.,0.));
#922=DIRECTION('center_axis',(-4.03717463500057E-16,-4.92098854158178E-15,
-1.));
#923=DIRECTION('ref_axis',(-1.,0.,4.03717463500057E-16));
#924=DIRECTION('center_axis',(4.03717463500057E-16,4.92098854158178E-15,
1.));
#925=DIRECTION('ref_axis',(1.,0.,0.));
#926=DIRECTION('center_axis',(0.,0.,1.));
#927=DIRECTION('ref_axis',(1.,0.,0.));
#928=DIRECTION('',(0.,0.,1.));
#929=DIRECTION('center_axis',(-1.,-2.18535791311226E-30,-4.44089209850063E-16));
#930=DIRECTION('ref_axis',(-4.44089209850063E-16,4.92661467177413E-15,1.));
#931=DIRECTION('center_axis',(-1.61486985400023E-15,4.92098854158178E-15,
1.));
#932=DIRECTION('ref_axis',(1.,8.2575096601443E-30,1.61486985400023E-15));
#933=DIRECTION('center_axis',(0.,1.,-4.84460956200068E-15));
#934=DIRECTION('ref_axis',(1.,0.,1.46146437701312E-45));
#935=DIRECTION('center_axis',(-3.0166814442103E-31,1.,-4.92661467177413E-15));
#936=DIRECTION('ref_axis',(1.,0.,1.46146437701312E-45));
#937=DIRECTION('',(0.,1.,-4.84460956200068E-15));
#938=DIRECTION('center_axis',(-3.0166814442103E-31,1.,-4.92661467177413E-15));
#939=DIRECTION('ref_axis',(1.,3.0166814442103E-31,0.));
#940=DIRECTION('center_axis',(-3.0166814442103E-31,1.,-4.92661467177413E-15));
#941=DIRECTION('ref_axis',(1.,3.0166814442103E-31,0.));
#942=DIRECTION('center_axis',(0.707106781186548,3.47966436789377E-15,0.707106781186548));
#943=DIRECTION('ref_axis',(0.707106781186548,0.,-0.707106781186548));
#944=DIRECTION('',(0.707106781186547,-3.48364264270462E-15,-0.707106781186547));
#945=DIRECTION('',(0.,1.,-4.92098854158177E-15));
#946=DIRECTION('',(-0.707106781186548,0.,0.707106781186548));
#947=DIRECTION('',(0.,-1.,4.92098854158177E-15));
#948=DIRECTION('center_axis',(3.46944695195361E-16,0.,-1.));
#949=DIRECTION('ref_axis',(0.707106781186547,0.707106781186548,-3.1666378615644E-15));
#950=DIRECTION('center_axis',(-4.03717463500057E-16,4.92098854158177E-15,
1.));
#951=DIRECTION('ref_axis',(0.707106781186547,0.707106781186548,-3.14018491736755E-15));
#952=DIRECTION('',(-1.22663473334671E-15,-0.70710678118654,0.707106781186555));
#953=DIRECTION('center_axis',(4.03717463500057E-16,-4.92098854158177E-15,
-1.));
#954=DIRECTION('ref_axis',(0.707106781186548,0.707106781186548,-3.19419301176945E-15));
#955=DIRECTION('center_axis',(-2.85471356124315E-16,0.707106781186571,0.707106781186524));
#956=DIRECTION('ref_axis',(1.,0.,4.03717463500059E-16));
#957=DIRECTION('',(-1.,-1.98668901192024E-30,-4.03717463500057E-16));
#958=DIRECTION('',(2.45326946669349E-16,-0.707106781186528,0.707106781186567));
#959=DIRECTION('',(1.,1.98668901192024E-30,4.03717463500057E-16));
#960=DIRECTION('center_axis',(3.4694469519535E-16,0.,-1.));
#961=DIRECTION('ref_axis',(-0.707106781186547,0.707106781186548,-3.44628327164537E-15));
#962=DIRECTION('center_axis',(-4.03717463500057E-16,4.92098854158177E-15,
1.));
#963=DIRECTION('ref_axis',(-0.707106781186547,0.707106781186548,-3.14018491736755E-15));
#964=DIRECTION('',(0.707106781186528,0.,0.707106781186567));
#965=DIRECTION('center_axis',(4.03717463500057E-16,-4.92098854158177E-15,
-1.));
#966=DIRECTION('ref_axis',(-0.707106781186547,0.707106781186548,-3.76513572401809E-15));
#967=DIRECTION('center_axis',(-0.707106781186548,3.47966436789377E-15,0.707106781186548));
#968=DIRECTION('ref_axis',(0.707106781186548,0.,0.707106781186548));
#969=DIRECTION('',(0.707106781186547,3.48364264270462E-15,0.707106781186547));
#970=DIRECTION('',(0.,1.,-4.92098854158177E-15));
#971=DIRECTION('',(0.,-1.,4.92098854158177E-15));
#972=DIRECTION('center_axis',(-4.03717463500057E-16,4.92098854158177E-15,
1.));
#973=DIRECTION('ref_axis',(1.,2.29062852335185E-30,4.03717463500057E-16));
#974=DIRECTION('',(1.,2.29062852335185E-30,4.03717463500057E-16));
#975=DIRECTION('center_axis',(4.03717463500057E-16,-4.92098854158177E-15,
-1.));
#976=DIRECTION('ref_axis',(1.,0.,0.));
#977=DIRECTION('center_axis',(0.,1.,-4.92098854158177E-15));
#978=DIRECTION('ref_axis',(-0.707106781186548,-3.14018491736755E-15,-0.707106781186548));
#979=DIRECTION('center_axis',(-3.0166814442103E-31,1.,-4.92661467177413E-15));
#980=DIRECTION('ref_axis',(-0.707106781186548,-3.14018491736755E-15,-0.707106781186548));
#981=DIRECTION('',(0.,1.,-4.92098854158177E-15));
#982=DIRECTION('center_axis',(0.,-1.,0.));
#983=DIRECTION('ref_axis',(-1.,0.,0.));
#984=DIRECTION('',(0.,-1.,4.92098854158177E-15));
#985=DIRECTION('center_axis',(1.61486985400023E-15,4.92098854158177E-15,
1.));
#986=DIRECTION('ref_axis',(1.,0.,-1.4210854715202E-15));
#987=DIRECTION('center_axis',(-1.,-1.38777878078138E-16,1.66533453693775E-15));
#988=DIRECTION('ref_axis',(-1.38777878078145E-16,1.,-4.44089209850064E-15));
#989=DIRECTION('center_axis',(1.61486985400023E-15,4.92098854158177E-15,
1.));
#990=DIRECTION('ref_axis',(-0.707106781186548,0.707106781186547,-2.33777894339648E-15));
#991=DIRECTION('center_axis',(-1.61486985400023E-15,-4.92098854158177E-15,
-1.));
#992=DIRECTION('ref_axis',(-0.707106781186548,0.707106781186547,-2.33146835171283E-15));
#993=DIRECTION('center_axis',(-1.,7.94675604768095E-30,1.61486985400023E-15));
#994=DIRECTION('ref_axis',(-7.85046229341894E-16,0.707106781186538,-0.707106781186557));
#995=DIRECTION('center_axis',(-1.,1.38777878078152E-16,1.66533453693773E-15));
#996=DIRECTION('ref_axis',(1.38777878078145E-16,1.,-4.44089209850064E-15));
#997=DIRECTION('',(-1.,7.94675604768095E-30,1.61486985400023E-15));
#998=DIRECTION('',(1.,-7.94675604768095E-30,-1.61486985400023E-15));
#999=DIRECTION('center_axis',(1.61486985400023E-15,4.92098854158177E-15,
1.));
#1000=DIRECTION('ref_axis',(1.,0.,-1.4210854715202E-15));
#1001=DIRECTION('center_axis',(-1.97215226305255E-29,1.,-8.88178419700134E-15));
#1002=DIRECTION('ref_axis',(1.,0.,-2.22044604925032E-15));
#1003=DIRECTION('center_axis',(1.61486985400023E-15,4.92098854158177E-15,
1.));
#1004=DIRECTION('ref_axis',(0.707106781186547,0.707106781186548,-4.62154979239106E-15));
#1005=DIRECTION('center_axis',(-1.61486985400023E-15,-4.92098854158177E-15,
-1.));
#1006=DIRECTION('ref_axis',(0.707106781186547,0.707106781186548,-4.63518112781002E-15));
#1007=DIRECTION('center_axis',(0.,1.,-4.92098854158177E-15));
#1008=DIRECTION('ref_axis',(0.707106781186547,-3.14018491736755E-15,-0.707106781186548));
#1009=DIRECTION('center_axis',(-3.0166814442103E-31,1.,-4.92661467177413E-15));
#1010=DIRECTION('ref_axis',(0.707106781186547,-3.14018491736755E-15,-0.707106781186548));
#1011=DIRECTION('',(0.,1.,-4.92098854158177E-15));
#1012=DIRECTION('',(0.,-1.,4.92098854158177E-15));
#1013=DIRECTION('center_axis',(1.,2.18535791311225E-30,4.44089209850061E-16));
#1014=DIRECTION('ref_axis',(4.44089209850061E-16,-4.92661467177413E-15,
-1.));
#1015=DIRECTION('',(4.44089209850061E-16,-4.92661467177413E-15,-1.));
#1016=DIRECTION('',(4.44089209850061E-16,-4.92098854158177E-15,-1.));
#1017=DIRECTION('center_axis',(4.44089209850061E-16,-4.92098854158177E-15,
-1.));
#1018=DIRECTION('ref_axis',(0.707106781186547,0.707106781186548,-3.14018491736755E-15));
#1019=DIRECTION('',(-4.44089209850061E-16,4.92098854158177E-15,1.));
#1020=DIRECTION('center_axis',(0.,1.,-4.92098854158177E-15));
#1021=DIRECTION('ref_axis',(0.,4.92098854158177E-15,1.));
#1022=DIRECTION('',(-4.44089209850063E-16,-4.92098854158177E-15,-1.));
#1023=DIRECTION('center_axis',(4.44089209850063E-16,4.92098854158177E-15,
1.));
#1024=DIRECTION('ref_axis',(-0.707106781186547,0.707106781186548,-3.14018491736755E-15));
#1025=DIRECTION('',(4.44089209850063E-16,4.92098854158177E-15,1.));
#1026=DIRECTION('center_axis',(-3.0166814442103E-31,1.,-4.92661467177413E-15));
#1027=DIRECTION('ref_axis',(1.,3.0166814442103E-31,0.));
#1028=DIRECTION('',(4.44089209850063E-16,4.92661467177413E-15,1.));
#1029=DIRECTION('',(-1.,7.65417337130223E-30,1.61486985400023E-15));
#1030=DIRECTION('center_axis',(-1.,2.18535791311226E-30,4.44089209850063E-16));
#1031=DIRECTION('ref_axis',(4.44089209850063E-16,4.92661467177413E-15,1.));
#1032=DIRECTION('center_axis',(-1.61486985400023E-15,-4.92098854158177E-15,
-1.));
#1033=DIRECTION('ref_axis',(-1.,7.65417337130223E-30,1.61486985400023E-15));
#1034=DIRECTION('center_axis',(1.61486985400023E-15,4.92098854158177E-15,
1.));
#1035=DIRECTION('ref_axis',(1.,0.,0.));
#1036=DIRECTION('center_axis',(0.,0.,-1.));
#1037=DIRECTION('ref_axis',(1.,0.,0.));
#1038=DIRECTION('center_axis',(4.03717463500057E-16,-4.92098854158177E-15,
-1.));
#1039=DIRECTION('ref_axis',(1.,0.,0.));
#1040=DIRECTION('',(0.,0.,-1.));
#1041=DIRECTION('center_axis',(-4.03717463500057E-16,4.92098854158177E-15,
1.));
#1042=DIRECTION('ref_axis',(1.,0.,4.03717463500057E-16));
#1043=DIRECTION('center_axis',(4.03717463500057E-16,-4.92098854158177E-15,
-1.));
#1044=DIRECTION('ref_axis',(1.,0.,0.));
#1045=DIRECTION('center_axis',(0.,0.,-1.));
#1046=DIRECTION('ref_axis',(1.,0.,0.));
#1047=DIRECTION('',(0.,0.,-1.));
#1048=CARTESIAN_POINT('',(0.,0.,0.));
#1049=CARTESIAN_POINT('Origin',(-4.5250221663155E-30,15.0000000000002,30.5249999999999));
#1050=CARTESIAN_POINT('',(-1.5,19.0000000000002,30.5249999999999));
#1051=CARTESIAN_POINT('Origin',(-4.5250221663155E-30,19.0000000000002,30.5249999999999));
#1052=CARTESIAN_POINT('',(-1.5,37.0000000000002,30.5249999999998));
#1053=CARTESIAN_POINT('',(-1.5,15.0000000000002,30.5249999999999));
#1054=CARTESIAN_POINT('Origin',(-4.5250221663155E-30,37.0000000000002,30.5249999999998));
#1055=CARTESIAN_POINT('Origin',(-4.5250221663155E-30,37.0000000000002,30.5249999999998));
#1056=CARTESIAN_POINT('Origin',(10.8,19.0000000000001,25.7249999999999));
#1057=CARTESIAN_POINT('',(11.,19.0000000000001,25.9249999999999));
#1058=CARTESIAN_POINT('',(10.6,19.0000000000001,25.5249999999999));
#1059=CARTESIAN_POINT('',(9.3,19.0000000000001,24.2249999999999));
#1060=CARTESIAN_POINT('',(10.6,120.,25.5249999999994));
#1061=CARTESIAN_POINT('',(10.6,19.0000000000001,25.5249999999999));
#1062=CARTESIAN_POINT('',(11.,120.,25.9249999999994));
#1063=CARTESIAN_POINT('',(10.6,120.,25.5249999999994));
#1064=CARTESIAN_POINT('',(11.,19.0000000000001,25.9249999999999));
#1065=CARTESIAN_POINT('Origin',(0.999999999999996,120.,25.7249999999994));
#1066=CARTESIAN_POINT('',(0.999999999999996,129.6,25.5249999999993));
#1067=CARTESIAN_POINT('',(0.999999999999997,130.,25.9249999999993));
#1068=CARTESIAN_POINT('',(0.999999999999996,129.6,25.5249999999993));
#1069=CARTESIAN_POINT('Origin',(0.999999999999997,120.,25.9249999999994));
#1070=CARTESIAN_POINT('Origin',(0.999999999999996,120.,25.5249999999994));
#1071=CARTESIAN_POINT('Origin',(5.5,129.8,25.7249999999993));
#1072=CARTESIAN_POINT('',(-0.999999999999996,129.6,25.5249999999993));
#1073=CARTESIAN_POINT('',(-0.999999999999997,130.,25.9249999999993));
#1074=CARTESIAN_POINT('',(-0.999999999999996,129.6,25.5249999999993));
#1075=CARTESIAN_POINT('',(5.5,130.,25.9249999999993));
#1076=CARTESIAN_POINT('',(5.5,129.6,25.5249999999993));
#1077=CARTESIAN_POINT('Origin',(-0.999999999999997,120.,25.7249999999994));
#1078=CARTESIAN_POINT('',(-10.6,120.,25.5249999999994));
#1079=CARTESIAN_POINT('',(-11.,120.,25.9249999999994));
#1080=CARTESIAN_POINT('',(-10.6,120.,25.5249999999994));
#1081=CARTESIAN_POINT('Origin',(-0.999999999999997,120.,25.9249999999994));
#1082=CARTESIAN_POINT('Origin',(-0.999999999999997,120.,25.5249999999994));
#1083=CARTESIAN_POINT('Origin',(-10.8,19.0000000000001,25.7249999999999));
#1084=CARTESIAN_POINT('',(-10.6,19.0000000000001,25.5249999999999));
#1085=CARTESIAN_POINT('',(-11.,19.0000000000001,25.9249999999999));
#1086=CARTESIAN_POINT('',(-9.3,19.0000000000001,24.2249999999999));
#1087=CARTESIAN_POINT('',(-11.,19.0000000000001,25.9249999999999));
#1088=CARTESIAN_POINT('',(-10.6,19.0000000000001,25.5249999999999));
#1089=CARTESIAN_POINT('Origin',(11.,19.0000000000001,25.5249999999999));
#1090=CARTESIAN_POINT('',(-11.,19.0000000000001,25.5249999999999));
#1091=CARTESIAN_POINT('',(-5.99999999999999,118.475,25.5249999999999));
#1092=CARTESIAN_POINT('Origin',(8.32840200404168E-15,118.475,25.5249999999999));
#1093=CARTESIAN_POINT('Origin',(-5.73169474399962E-30,19.0000000000002,
30.5249999999999));
#1094=CARTESIAN_POINT('',(11.,19.0000000000002,33.5249999999999));
#1095=CARTESIAN_POINT('',(11.,19.0000000000001,25.5249999999999));
#1096=CARTESIAN_POINT('',(9.,19.0000000000002,35.5249999999999));
#1097=CARTESIAN_POINT('Origin',(9.,19.0000000000002,33.5249999999999));
#1098=CARTESIAN_POINT('',(-9.,19.0000000000002,35.5249999999999));
#1099=CARTESIAN_POINT('',(11.,19.0000000000002,35.5249999999999));
#1100=CARTESIAN_POINT('',(-11.,19.0000000000002,33.5249999999999));
#1101=CARTESIAN_POINT('Origin',(-9.,19.0000000000002,33.5249999999999));
#1102=CARTESIAN_POINT('',(-11.,19.0000000000002,35.5249999999999));
#1103=CARTESIAN_POINT('Origin',(9.,19.0000000000002,33.5249999999999));
#1104=CARTESIAN_POINT('',(11.,120.,33.5249999999994));
#1105=CARTESIAN_POINT('',(11.,19.0000000000002,33.5249999999999));
#1106=CARTESIAN_POINT('',(9.,120.,35.5249999999994));
#1107=CARTESIAN_POINT('Origin',(9.,120.,33.5249999999994));
#1108=CARTESIAN_POINT('',(9.,19.0000000000002,35.5249999999999));
#1109=CARTESIAN_POINT('Origin',(1.,120.,33.5249999999994));
#1110=CARTESIAN_POINT('',(1.,130.,33.5249999999993));
#1111=CARTESIAN_POINT('',(0.999999999999997,128.,35.5249999999994));
#1112=CARTESIAN_POINT('Origin',(1.,128.,33.5249999999993));
#1113=CARTESIAN_POINT('Origin',(0.999999999999997,120.,35.5249999999994));
#1114=CARTESIAN_POINT('Origin',(1.,120.,33.5249999999994));
#1115=CARTESIAN_POINT('Origin',(-5.5,128.,33.5249999999994));
#1116=CARTESIAN_POINT('',(-1.,130.,33.5249999999994));
#1117=CARTESIAN_POINT('',(-1.,128.,35.5249999999994));
#1118=CARTESIAN_POINT('Origin',(-1.,128.,33.5249999999994));
#1119=CARTESIAN_POINT('',(-5.50000000000001,128.,35.5249999999994));
#1120=CARTESIAN_POINT('',(-5.5,130.,33.5249999999994));
#1121=CARTESIAN_POINT('Origin',(-1.,120.,33.5249999999994));
#1122=CARTESIAN_POINT('',(-11.,120.,33.5249999999994));
#1123=CARTESIAN_POINT('',(-9.,120.,35.5249999999994));
#1124=CARTESIAN_POINT('Origin',(-9.,120.,33.5249999999994));
#1125=CARTESIAN_POINT('Origin',(-1.,120.,35.5249999999994));
#1126=CARTESIAN_POINT('Origin',(-1.,120.,33.5249999999994));
#1127=CARTESIAN_POINT('Origin',(-9.,19.0000000000002,33.5249999999999));
#1128=CARTESIAN_POINT('',(-9.00000000000001,19.0000000000002,35.5249999999999));
#1129=CARTESIAN_POINT('',(-11.,19.0000000000002,33.5249999999999));
#1130=CARTESIAN_POINT('Origin',(-0.999999999999998,120.,28.0249999999994));
#1131=CARTESIAN_POINT('',(-11.,120.,28.0249999999994));
#1132=CARTESIAN_POINT('',(-0.999999999999998,130.,28.0249999999994));
#1133=CARTESIAN_POINT('Origin',(0.,130.,30.5249999999994));
#1134=CARTESIAN_POINT('',(1.,130.,33.0249999999994));
#1135=CARTESIAN_POINT('Origin',(1.,120.,33.0249999999994));
#1136=CARTESIAN_POINT('',(11.,120.,33.0249999999994));
#1137=CARTESIAN_POINT('Origin',(11.,19.0000000000002,35.5249999999999));
#1138=CARTESIAN_POINT('Origin',(8.32840200404168E-15,118.475,27.5249999999994));
#1139=CARTESIAN_POINT('',(-8.52499999999999,118.475,27.5249999999994));
#1140=CARTESIAN_POINT('Origin',(8.32840200404168E-15,118.475,27.5249999999994));
#1141=CARTESIAN_POINT('',(-8.52499999999999,118.475,35.5249999999999));
#1142=CARTESIAN_POINT('',(-8.52499999999999,118.475,27.5249999999994));
#1143=CARTESIAN_POINT('Origin',(8.32840200404168E-15,118.475,35.5249999999999));
#1144=CARTESIAN_POINT('Origin',(9.68921912400137E-15,118.475,27.5249999999994));
#1145=CARTESIAN_POINT('',(-5.99999999999999,118.475,27.5249999999994));
#1146=CARTESIAN_POINT('Origin',(8.32840200404168E-15,118.475,27.5249999999994));
#1147=CARTESIAN_POINT('Origin',(8.32840200404168E-15,118.475,0.));
#1148=CARTESIAN_POINT('',(-5.99999999999999,118.475,0.));
#1149=CARTESIAN_POINT('Origin',(-11.,19.0000000000001,25.5249999999999));
#1150=CARTESIAN_POINT('Origin',(-11.,19.0000000000002,35.5249999999999));
#1151=CARTESIAN_POINT('Origin',(3.67959636501649E-15,14.9999999999999,-30.5250000000001));
#1152=CARTESIAN_POINT('',(-1.5,18.9999999999999,-30.5250000000001));
#1153=CARTESIAN_POINT('Origin',(3.67959636501649E-15,18.9999999999999,-30.5250000000001));
#1154=CARTESIAN_POINT('',(-1.5,36.9999999999999,-30.5250000000002));
#1155=CARTESIAN_POINT('',(-1.5,14.9999999999999,-30.5250000000001));
#1156=CARTESIAN_POINT('Origin',(3.67959636501649E-15,36.9999999999999,-30.5250000000002));
#1157=CARTESIAN_POINT('Origin',(3.60822483003175E-15,36.9999999999999,-30.5250000000002));
#1158=CARTESIAN_POINT('Origin',(10.8,18.9999999999999,-25.7250000000001));
#1159=CARTESIAN_POINT('',(10.6,18.9999999999999,-25.5250000000001));
#1160=CARTESIAN_POINT('',(11.,18.9999999999999,-25.9250000000001));
#1161=CARTESIAN_POINT('',(9.30000000000001,18.9999999999999,-24.2250000000001));
#1162=CARTESIAN_POINT('',(11.,120.,-25.9250000000006));
#1163=CARTESIAN_POINT('',(11.,18.9999999999999,-25.9250000000001));
#1164=CARTESIAN_POINT('',(10.6,120.,-25.5250000000006));
#1165=CARTESIAN_POINT('',(11.,120.,-25.9250000000006));
#1166=CARTESIAN_POINT('',(10.6,18.9999999999999,-25.5250000000001));
#1167=CARTESIAN_POINT('Origin',(1.,120.,-25.7250000000006));
#1168=CARTESIAN_POINT('',(1.,130.,-25.9250000000007));
#1169=CARTESIAN_POINT('Origin',(1.,120.,-25.9250000000006));
#1170=CARTESIAN_POINT('',(1.,129.6,-25.5250000000007));
#1171=CARTESIAN_POINT('',(1.,130.,-25.9250000000007));
#1172=CARTESIAN_POINT('Origin',(1.,120.,-25.5250000000006));
#1173=CARTESIAN_POINT('Origin',(-5.49999999999999,129.8,-25.7250000000007));
#1174=CARTESIAN_POINT('',(-0.999999999999992,130.,-25.9250000000007));
#1175=CARTESIAN_POINT('',(-5.49999999999999,130.,-25.9250000000007));
#1176=CARTESIAN_POINT('',(-0.999999999999992,129.6,-25.5250000000007));
#1177=CARTESIAN_POINT('',(-0.999999999999992,130.,-25.9250000000007));
#1178=CARTESIAN_POINT('',(-5.49999999999999,129.6,-25.5250000000007));
#1179=CARTESIAN_POINT('Origin',(-0.999999999999992,120.,-25.7250000000006));
#1180=CARTESIAN_POINT('',(-11.,120.,-25.9250000000006));
#1181=CARTESIAN_POINT('Origin',(-0.999999999999992,120.,-25.9250000000006));
#1182=CARTESIAN_POINT('',(-10.6,120.,-25.5250000000006));
#1183=CARTESIAN_POINT('',(-11.,120.,-25.9250000000006));
#1184=CARTESIAN_POINT('Origin',(-0.999999999999992,120.,-25.5250000000006));
#1185=CARTESIAN_POINT('Origin',(-10.8,18.9999999999999,-25.7250000000001));
#1186=CARTESIAN_POINT('',(-11.,18.9999999999999,-25.9250000000001));
#1187=CARTESIAN_POINT('',(-10.6,18.9999999999999,-25.5250000000001));
#1188=CARTESIAN_POINT('',(-9.3,18.9999999999999,-24.2250000000001));
#1189=CARTESIAN_POINT('',(-10.6,18.9999999999999,-25.5250000000001));
#1190=CARTESIAN_POINT('',(-11.,18.9999999999999,-25.9250000000001));
#1191=CARTESIAN_POINT('Origin',(-11.,18.9999999999999,-25.5250000000001));
#1192=CARTESIAN_POINT('',(-11.,18.9999999999999,-25.5250000000001));
#1193=CARTESIAN_POINT('',(-5.99999999999999,118.475,-25.5250000000001));
#1194=CARTESIAN_POINT('Origin',(8.32840200404168E-15,118.475,-25.5250000000001));
#1195=CARTESIAN_POINT('Origin',(-9.,18.9999999999998,-33.5250000000001));
#1196=CARTESIAN_POINT('',(-9.,18.9999999999998,-35.5250000000001));
#1197=CARTESIAN_POINT('',(-11.,18.9999999999998,-33.5250000000001));
#1198=CARTESIAN_POINT('Origin',(-9.,18.9999999999999,-33.5250000000001));
#1199=CARTESIAN_POINT('',(-11.,120.,-33.5250000000006));
#1200=CARTESIAN_POINT('',(-11.,18.9999999999998,-33.5250000000001));
#1201=CARTESIAN_POINT('',(-9.,120.,-35.5250000000006));
#1202=CARTESIAN_POINT('Origin',(-9.,120.,-33.5250000000006));
#1203=CARTESIAN_POINT('',(-9.,18.9999999999998,-35.5250000000001));
#1204=CARTESIAN_POINT('Origin',(-0.999999999999996,120.,-33.5250000000006));
#1205=CARTESIAN_POINT('',(-0.999999999999996,130.,-33.5250000000007));
#1206=CARTESIAN_POINT('',(-0.999999999999999,128.,-35.5250000000007));
#1207=CARTESIAN_POINT('Origin',(-0.999999999999995,128.,-33.5250000000007));
#1208=CARTESIAN_POINT('Origin',(-0.999999999999999,120.,-35.5250000000006));
#1209=CARTESIAN_POINT('Origin',(-0.999999999999996,120.,-33.5250000000006));
#1210=CARTESIAN_POINT('Origin',(5.5,128.,-33.5250000000007));
#1211=CARTESIAN_POINT('',(1.,130.,-33.5250000000007));
#1212=CARTESIAN_POINT('',(1.,128.,-35.5250000000007));
#1213=CARTESIAN_POINT('Origin',(1.,128.,-33.5250000000007));
#1214=CARTESIAN_POINT('',(5.5,128.,-35.5250000000007));
#1215=CARTESIAN_POINT('',(5.5,130.,-33.5250000000007));
#1216=CARTESIAN_POINT('Origin',(1.,120.,-33.5250000000006));
#1217=CARTESIAN_POINT('',(11.,120.,-33.5250000000007));
#1218=CARTESIAN_POINT('',(9.,120.,-35.5250000000006));
#1219=CARTESIAN_POINT('Origin',(9.00000000000001,120.,-33.5250000000007));
#1220=CARTESIAN_POINT('Origin',(1.,120.,-35.5250000000006));
#1221=CARTESIAN_POINT('Origin',(1.,120.,-33.5250000000006));
#1222=CARTESIAN_POINT('Origin',(9.00000000000001,18.9999999999998,-33.5250000000001));
#1223=CARTESIAN_POINT('',(11.,18.9999999999998,-33.5250000000001));
#1224=CARTESIAN_POINT('',(9.,18.9999999999998,-35.5250000000001));
#1225=CARTESIAN_POINT('Origin',(9.00000000000001,18.9999999999999,-33.5250000000001));
#1226=CARTESIAN_POINT('',(9.,18.9999999999998,-35.5250000000001));
#1227=CARTESIAN_POINT('',(11.,18.9999999999998,-33.5250000000001));
#1228=CARTESIAN_POINT('Origin',(11.,18.9999999999999,-25.5250000000001));
#1229=CARTESIAN_POINT('',(11.,18.9999999999999,-25.5250000000001));
#1230=CARTESIAN_POINT('',(11.,120.,-28.0250000000006));
#1231=CARTESIAN_POINT('Origin',(1.,120.,-28.0250000000006));
#1232=CARTESIAN_POINT('',(1.,130.,-28.0250000000007));
#1233=CARTESIAN_POINT('Origin',(4.44089209850063E-15,130.,-30.5250000000007));
#1234=CARTESIAN_POINT('',(-0.999999999999995,130.,-33.0250000000007));
#1235=CARTESIAN_POINT('Origin',(-0.999999999999995,120.,-33.0250000000006));
#1236=CARTESIAN_POINT('',(-11.,120.,-33.0250000000006));
#1237=CARTESIAN_POINT('Origin',(4.44089209850062E-15,18.9999999999999,-30.5250000000001));
#1238=CARTESIAN_POINT('',(-11.,18.9999999999998,-35.5250000000001));
#1239=CARTESIAN_POINT('',(11.,18.9999999999998,-35.5250000000001));
#1240=CARTESIAN_POINT('Origin',(-11.,18.9999999999998,-35.5250000000001));
#1241=CARTESIAN_POINT('Origin',(11.,18.9999999999998,-35.5250000000001));
#1242=CARTESIAN_POINT('',(-8.52499999999999,118.475,-35.5250000000001));
#1243=CARTESIAN_POINT('Origin',(8.32840200404168E-15,118.475,-35.5250000000001));
#1244=CARTESIAN_POINT('Origin',(8.32840200404168E-15,118.475,-27.5250000000006));
#1245=CARTESIAN_POINT('',(-8.52499999999999,118.475,-27.5250000000006));
#1246=CARTESIAN_POINT('Origin',(8.32840200404168E-15,118.475,-27.5250000000006));
#1247=CARTESIAN_POINT('',(-8.52499999999999,118.475,-27.5250000000006));
#1248=CARTESIAN_POINT('Origin',(9.68921912400137E-15,118.475,-27.5250000000006));
#1249=CARTESIAN_POINT('',(-5.99999999999999,118.475,-27.5250000000006));
#1250=CARTESIAN_POINT('Origin',(8.32840200404168E-15,118.475,-27.5250000000006));
#1251=CARTESIAN_POINT('Origin',(8.32840200404168E-15,118.475,0.));
#1252=CARTESIAN_POINT('',(-5.99999999999999,118.475,0.));
#1253=UNCERTAINTY_MEASURE_WITH_UNIT(LENGTH_MEASURE(0.01),#1257,
'DISTANCE_ACCURACY_VALUE',
'Maximum model space distance between geometric entities at asserted c
onnectivities');
#1254=UNCERTAINTY_MEASURE_WITH_UNIT(LENGTH_MEASURE(0.01),#1257,
'DISTANCE_ACCURACY_VALUE',
'Maximum model space distance between geometric entities at asserted c
onnectivities');
#1255=(
GEOMETRIC_REPRESENTATION_CONTEXT(3)
GLOBAL_UNCERTAINTY_ASSIGNED_CONTEXT((#1253))
GLOBAL_UNIT_ASSIGNED_CONTEXT((#1257,#1258,#1259))
REPRESENTATION_CONTEXT('','3D')
);
#1256=(
GEOMETRIC_REPRESENTATION_CONTEXT(3)
GLOBAL_UNCERTAINTY_ASSIGNED_CONTEXT((#1254))
GLOBAL_UNIT_ASSIGNED_CONTEXT((#1257,#1258,#1259))
REPRESENTATION_CONTEXT('','3D')
);
#1257=(
LENGTH_UNIT()
NAMED_UNIT(*)
SI_UNIT(.MILLI.,.METRE.)
);
#1258=(
NAMED_UNIT(*)
PLANE_ANGLE_UNIT()
SI_UNIT($,.RADIAN.)
);
#1259=(
NAMED_UNIT(*)
SI_UNIT($,.STERADIAN.)
SOLID_ANGLE_UNIT()
);
#1260=SHAPE_DEFINITION_REPRESENTATION(#1261,#1262);
#1261=PRODUCT_DEFINITION_SHAPE('',$,#1264);
#1262=SHAPE_REPRESENTATION('',(#729),#1255);
#1263=PRODUCT_DEFINITION_CONTEXT('part definition',#1268,'design');
#1264=PRODUCT_DEFINITION('pan','pan v45',#1265,#1263);
#1265=PRODUCT_DEFINITION_FORMATION('',$,#1270);
#1266=PRODUCT_RELATED_PRODUCT_CATEGORY('pan v45','pan v45',(#1270));
#1267=APPLICATION_PROTOCOL_DEFINITION('international standard',
'automotive_design',2009,#1268);
#1268=APPLICATION_CONTEXT(
'Core Data for Automotive Mechanical Design Process');
#1269=PRODUCT_CONTEXT('part definition',#1268,'mechanical');
#1270=PRODUCT('pan','pan v45',$,(#1269));
#1271=PRESENTATION_STYLE_ASSIGNMENT((#1272));
#1272=SURFACE_STYLE_USAGE(.BOTH.,#1273);
#1273=SURFACE_SIDE_STYLE('',(#1274));
#1274=SURFACE_STYLE_FILL_AREA(#1275);
#1275=FILL_AREA_STYLE('Acero - Satinado',(#1276));
#1276=FILL_AREA_STYLE_COLOUR('Acero - Satinado',#1277);
#1277=COLOUR_RGB('Acero - Satinado',0.627450980392157,0.627450980392157,
0.627450980392157);
ENDSEC;
END-ISO-10303-21;
