ISO-10303-21;
HEADER;
/* Generated by software containing ST-Developer
 * from STEP Tools, Inc. (www.steptools.com) 
 */

FILE_DESCRIPTION(
/* description */ (''),
/* implementation_level */ '2;1');

FILE_NAME(
/* name */ 'pan col tilt.step',
/* time_stamp */ '2026-10-03T19:38:51+02:00',
/* author */ (''),
/* organization */ (''),
/* preprocessor_version */ 'ST-DEVELOPER v20.2',
/* originating_system */ 'Autodesk Translation Framework v15.15.0.0',
/* authorisation */ '');

FILE_SCHEMA (('AUTOMOTIVE_DESIGN { 1 0 10303 214 3 1 1 }'));
ENDSEC;

DATA;
#10=MECHANICAL_DESIGN_GEOMETRIC_PRESENTATION_REPRESENTATION('',(#13),#984);
#11=SHAPE_REPRESENTATION_RELATIONSHIP('SRR','None',#990,#12);
#12=ADVANCED_BREP_SHAPE_REPRESENTATION('',(#14),#983);
#13=STYLED_ITEM('',(#999),#14);
#14=MANIFOLD_SOLID_BREP('Cuerpo2',#588);
#15=TOROIDAL_SURFACE('',#619,37.9999999999998,2.);
#16=TOROIDAL_SURFACE('',#625,2.99999999999995,2.);
#17=FACE_BOUND('',#104,.T.);
#18=FACE_BOUND('',#105,.T.);
#19=FACE_BOUND('',#112,.T.);
#20=FACE_BOUND('',#113,.T.);
#21=CYLINDRICAL_SURFACE('',#598,30.0000000000003);
#22=CYLINDRICAL_SURFACE('',#617,2.);
#23=CYLINDRICAL_SURFACE('',#623,2.);
#24=CYLINDRICAL_SURFACE('',#629,2.);
#25=CYLINDRICAL_SURFACE('',#635,0.900000000000003);
#26=CYLINDRICAL_SURFACE('',#636,0.900000000000007);
#27=CYLINDRICAL_SURFACE('',#641,4.99999999999995);
#28=CYLINDRICAL_SURFACE('',#643,39.9999999999998);
#29=CIRCLE('',#592,30.4000000000003);
#30=CIRCLE('',#593,30.0000000000003);
#31=CIRCLE('',#596,2.);
#32=CIRCLE('',#599,30.0000000000003);
#33=CIRCLE('',#603,30.4000000000003);
#34=CIRCLE('',#607,4.59999999999995);
#35=CIRCLE('',#608,4.99999999999995);
#36=CIRCLE('',#611,39.5999999999998);
#37=CIRCLE('',#612,39.9999999999998);
#38=CIRCLE('',#615,0.900000000000003);
#39=CIRCLE('',#616,0.900000000000007);
#40=CIRCLE('',#618,2.);
#41=CIRCLE('',#620,2.);
#42=CIRCLE('',#621,37.9999999999998);
#43=CIRCLE('',#622,39.9999999999998);
#44=CIRCLE('',#624,2.00000000000001);
#45=CIRCLE('',#626,1.99999999999999);
#46=CIRCLE('',#627,2.99999999999995);
#47=CIRCLE('',#628,4.99999999999995);
#48=CIRCLE('',#630,2.);
#49=CIRCLE('',#632,0.900000000000003);
#50=CIRCLE('',#633,0.900000000000007);
#51=CONICAL_SURFACE('',#591,30.2000000000003,0.785398163397448);
#52=CONICAL_SURFACE('',#602,30.2000000000003,0.785398163397448);
#53=CONICAL_SURFACE('',#606,4.79999999999995,0.785398163397449);
#54=CONICAL_SURFACE('',#610,39.7999999999998,0.785398163397448);
#55=FACE_OUTER_BOUND('',#88,.T.);
#56=FACE_OUTER_BOUND('',#89,.T.);
#57=FACE_OUTER_BOUND('',#90,.T.);
#58=FACE_OUTER_BOUND('',#91,.T.);
#59=FACE_OUTER_BOUND('',#92,.T.);
#60=FACE_OUTER_BOUND('',#93,.T.);
#61=FACE_OUTER_BOUND('',#94,.T.);
#62=FACE_OUTER_BOUND('',#95,.T.);
#63=FACE_OUTER_BOUND('',#96,.T.);
#64=FACE_OUTER_BOUND('',#97,.T.);
#65=FACE_OUTER_BOUND('',#98,.T.);
#66=FACE_OUTER_BOUND('',#99,.T.);
#67=FACE_OUTER_BOUND('',#100,.T.);
#68=FACE_OUTER_BOUND('',#101,.T.);
#69=FACE_OUTER_BOUND('',#102,.T.);
#70=FACE_OUTER_BOUND('',#103,.T.);
#71=FACE_OUTER_BOUND('',#106,.T.);
#72=FACE_OUTER_BOUND('',#107,.T.);
#73=FACE_OUTER_BOUND('',#108,.T.);
#74=FACE_OUTER_BOUND('',#109,.T.);
#75=FACE_OUTER_BOUND('',#110,.T.);
#76=FACE_OUTER_BOUND('',#111,.T.);
#77=FACE_OUTER_BOUND('',#114,.T.);
#78=FACE_OUTER_BOUND('',#115,.T.);
#79=FACE_OUTER_BOUND('',#116,.T.);
#80=FACE_OUTER_BOUND('',#117,.T.);
#81=FACE_OUTER_BOUND('',#118,.T.);
#82=FACE_OUTER_BOUND('',#119,.T.);
#83=FACE_OUTER_BOUND('',#120,.T.);
#84=FACE_OUTER_BOUND('',#121,.T.);
#85=FACE_OUTER_BOUND('',#122,.T.);
#86=FACE_OUTER_BOUND('',#123,.T.);
#87=FACE_OUTER_BOUND('',#124,.T.);
#88=EDGE_LOOP('',(#374,#375,#376,#377));
#89=EDGE_LOOP('',(#378,#379,#380,#381));
#90=EDGE_LOOP('',(#382,#383,#384,#385));
#91=EDGE_LOOP('',(#386,#387,#388,#389,#390,#391,#392,#393));
#92=EDGE_LOOP('',(#394,#395,#396,#397));
#93=EDGE_LOOP('',(#398,#399,#400,#401));
#94=EDGE_LOOP('',(#402,#403,#404,#405));
#95=EDGE_LOOP('',(#406,#407,#408,#409));
#96=EDGE_LOOP('',(#410,#411,#412,#413));
#97=EDGE_LOOP('',(#414,#415,#416,#417));
#98=EDGE_LOOP('',(#418,#419,#420,#421));
#99=EDGE_LOOP('',(#422,#423,#424,#425));
#100=EDGE_LOOP('',(#426,#427,#428,#429));
#101=EDGE_LOOP('',(#430,#431,#432,#433));
#102=EDGE_LOOP('',(#434,#435,#436,#437));
#103=EDGE_LOOP('',(#438,#439,#440,#441,#442,#443,#444,#445,#446,#447,#448,
#449,#450));
#104=EDGE_LOOP('',(#451));
#105=EDGE_LOOP('',(#452));
#106=EDGE_LOOP('',(#453,#454,#455,#456));
#107=EDGE_LOOP('',(#457,#458,#459,#460));
#108=EDGE_LOOP('',(#461,#462,#463,#464));
#109=EDGE_LOOP('',(#465,#466,#467,#468));
#110=EDGE_LOOP('',(#469,#470,#471,#472));
#111=EDGE_LOOP('',(#473,#474,#475,#476,#477,#478,#479,#480,#481,#482,#483,
#484,#485));
#112=EDGE_LOOP('',(#486));
#113=EDGE_LOOP('',(#487));
#114=EDGE_LOOP('',(#488,#489,#490,#491,#492,#493));
#115=EDGE_LOOP('',(#494,#495,#496,#497));
#116=EDGE_LOOP('',(#498,#499,#500,#501));
#117=EDGE_LOOP('',(#502,#503,#504,#505,#506,#507));
#118=EDGE_LOOP('',(#508,#509,#510,#511));
#119=EDGE_LOOP('',(#512,#513,#514,#515));
#120=EDGE_LOOP('',(#516,#517,#518,#519));
#121=EDGE_LOOP('',(#520,#521,#522,#523));
#122=EDGE_LOOP('',(#524,#525,#526,#527));
#123=EDGE_LOOP('',(#528,#529,#530,#531));
#124=EDGE_LOOP('',(#532,#533,#534,#535));
#125=LINE('',#820,#184);
#126=LINE('',#822,#185);
#127=LINE('',#824,#186);
#128=LINE('',#825,#187);
#129=LINE('',#829,#188);
#130=LINE('',#835,#189);
#131=LINE('',#836,#190);
#132=LINE('',#837,#191);
#133=LINE('',#840,#192);
#134=LINE('',#842,#193);
#135=LINE('',#844,#194);
#136=LINE('',#846,#195);
#137=LINE('',#848,#196);
#138=LINE('',#851,#197);
#139=LINE('',#854,#198);
#140=LINE('',#855,#199);
#141=LINE('',#858,#200);
#142=LINE('',#862,#201);
#143=LINE('',#863,#202);
#144=LINE('',#866,#203);
#145=LINE('',#867,#204);
#146=LINE('',#870,#205);
#147=LINE('',#874,#206);
#148=LINE('',#875,#207);
#149=LINE('',#879,#208);
#150=LINE('',#881,#209);
#151=LINE('',#883,#210);
#152=LINE('',#884,#211);
#153=LINE('',#888,#212);
#154=LINE('',#894,#213);
#155=LINE('',#895,#214);
#156=LINE('',#896,#215);
#157=LINE('',#900,#216);
#158=LINE('',#904,#217);
#159=LINE('',#905,#218);
#160=LINE('',#908,#219);
#161=LINE('',#910,#220);
#162=LINE('',#912,#221);
#163=LINE('',#913,#222);
#164=LINE('',#920,#223);
#165=LINE('',#923,#224);
#166=LINE('',#934,#225);
#167=LINE('',#935,#226);
#168=LINE('',#946,#227);
#169=LINE('',#947,#228);
#170=LINE('',#950,#229);
#171=LINE('',#952,#230);
#172=LINE('',#954,#231);
#173=LINE('',#955,#232);
#174=LINE('',#961,#233);
#175=LINE('',#962,#234);
#176=LINE('',#964,#235);
#177=LINE('',#966,#236);
#178=LINE('',#968,#237);
#179=LINE('',#970,#238);
#180=LINE('',#973,#239);
#181=LINE('',#975,#240);
#182=LINE('',#977,#241);
#183=LINE('',#979,#242);
#184=VECTOR('',#649,10.);
#185=VECTOR('',#650,10.);
#186=VECTOR('',#651,10.);
#187=VECTOR('',#652,10.);
#188=VECTOR('',#655,10.);
#189=VECTOR('',#662,10.);
#190=VECTOR('',#663,10.);
#191=VECTOR('',#664,10.);
#192=VECTOR('',#667,10.);
#193=VECTOR('',#668,10.);
#194=VECTOR('',#669,10.);
#195=VECTOR('',#670,10.);
#196=VECTOR('',#671,10.);
#197=VECTOR('',#674,10.);
#198=VECTOR('',#677,10.);
#199=VECTOR('',#678,10.);
#200=VECTOR('',#681,10.);
#201=VECTOR('',#686,10.);
#202=VECTOR('',#687,10.);
#203=VECTOR('',#690,10.);
#204=VECTOR('',#691,10.);
#205=VECTOR('',#694,10.);
#206=VECTOR('',#699,10.);
#207=VECTOR('',#700,10.);
#208=VECTOR('',#703,10.);
#209=VECTOR('',#704,10.);
#210=VECTOR('',#705,10.);
#211=VECTOR('',#706,10.);
#212=VECTOR('',#709,10.);
#213=VECTOR('',#716,10.);
#214=VECTOR('',#717,10.);
#215=VECTOR('',#718,10.);
#216=VECTOR('',#721,10.);
#217=VECTOR('',#728,10.);
#218=VECTOR('',#729,10.);
#219=VECTOR('',#732,10.);
#220=VECTOR('',#733,10.);
#221=VECTOR('',#734,10.);
#222=VECTOR('',#735,10.);
#223=VECTOR('',#742,10.);
#224=VECTOR('',#745,10.);
#225=VECTOR('',#758,10.);
#226=VECTOR('',#759,10.);
#227=VECTOR('',#772,10.);
#228=VECTOR('',#773,10.);
#229=VECTOR('',#776,10.);
#230=VECTOR('',#777,10.);
#231=VECTOR('',#778,10.);
#232=VECTOR('',#779,10.);
#233=VECTOR('',#786,10.);
#234=VECTOR('',#787,10.);
#235=VECTOR('',#790,0.900000000000003);
#236=VECTOR('',#793,0.900000000000007);
#237=VECTOR('',#796,10.);
#238=VECTOR('',#799,10.);
#239=VECTOR('',#804,10.);
#240=VECTOR('',#807,10.);
#241=VECTOR('',#810,10.);
#242=VECTOR('',#813,10.);
#243=VERTEX_POINT('',#818);
#244=VERTEX_POINT('',#819);
#245=VERTEX_POINT('',#821);
#246=VERTEX_POINT('',#823);
#247=VERTEX_POINT('',#827);
#248=VERTEX_POINT('',#828);
#249=VERTEX_POINT('',#833);
#250=VERTEX_POINT('',#834);
#251=VERTEX_POINT('',#839);
#252=VERTEX_POINT('',#841);
#253=VERTEX_POINT('',#843);
#254=VERTEX_POINT('',#845);
#255=VERTEX_POINT('',#847);
#256=VERTEX_POINT('',#849);
#257=VERTEX_POINT('',#853);
#258=VERTEX_POINT('',#857);
#259=VERTEX_POINT('',#861);
#260=VERTEX_POINT('',#865);
#261=VERTEX_POINT('',#869);
#262=VERTEX_POINT('',#873);
#263=VERTEX_POINT('',#877);
#264=VERTEX_POINT('',#878);
#265=VERTEX_POINT('',#880);
#266=VERTEX_POINT('',#882);
#267=VERTEX_POINT('',#886);
#268=VERTEX_POINT('',#887);
#269=VERTEX_POINT('',#892);
#270=VERTEX_POINT('',#893);
#271=VERTEX_POINT('',#898);
#272=VERTEX_POINT('',#899);
#273=VERTEX_POINT('',#907);
#274=VERTEX_POINT('',#909);
#275=VERTEX_POINT('',#911);
#276=VERTEX_POINT('',#914);
#277=VERTEX_POINT('',#916);
#278=VERTEX_POINT('',#919);
#279=VERTEX_POINT('',#921);
#280=VERTEX_POINT('',#925);
#281=VERTEX_POINT('',#926);
#282=VERTEX_POINT('',#931);
#283=VERTEX_POINT('',#932);
#284=VERTEX_POINT('',#937);
#285=VERTEX_POINT('',#938);
#286=VERTEX_POINT('',#943);
#287=VERTEX_POINT('',#944);
#288=VERTEX_POINT('',#949);
#289=VERTEX_POINT('',#951);
#290=VERTEX_POINT('',#953);
#291=VERTEX_POINT('',#956);
#292=VERTEX_POINT('',#958);
#293=EDGE_CURVE('',#243,#244,#125,.T.);
#294=EDGE_CURVE('',#244,#245,#126,.T.);
#295=EDGE_CURVE('',#245,#246,#127,.T.);
#296=EDGE_CURVE('',#246,#243,#128,.T.);
#297=EDGE_CURVE('',#247,#248,#129,.T.);
#298=EDGE_CURVE('',#248,#246,#29,.T.);
#299=EDGE_CURVE('',#245,#247,#30,.T.);
#300=EDGE_CURVE('',#249,#250,#130,.T.);
#301=EDGE_CURVE('',#250,#248,#131,.T.);
#302=EDGE_CURVE('',#247,#249,#132,.T.);
#303=EDGE_CURVE('',#251,#249,#133,.T.);
#304=EDGE_CURVE('',#252,#251,#134,.T.);
#305=EDGE_CURVE('',#253,#252,#135,.T.);
#306=EDGE_CURVE('',#254,#253,#136,.T.);
#307=EDGE_CURVE('',#254,#255,#137,.T.);
#308=EDGE_CURVE('',#256,#255,#31,.T.);
#309=EDGE_CURVE('',#250,#256,#138,.T.);
#310=EDGE_CURVE('',#257,#247,#139,.T.);
#311=EDGE_CURVE('',#251,#257,#140,.T.);
#312=EDGE_CURVE('',#258,#245,#141,.T.);
#313=EDGE_CURVE('',#257,#258,#32,.T.);
#314=EDGE_CURVE('',#259,#244,#142,.T.);
#315=EDGE_CURVE('',#258,#259,#143,.T.);
#316=EDGE_CURVE('',#257,#260,#144,.T.);
#317=EDGE_CURVE('',#260,#252,#145,.T.);
#318=EDGE_CURVE('',#258,#261,#146,.T.);
#319=EDGE_CURVE('',#261,#260,#33,.T.);
#320=EDGE_CURVE('',#259,#262,#147,.T.);
#321=EDGE_CURVE('',#262,#261,#148,.T.);
#322=EDGE_CURVE('',#263,#264,#149,.T.);
#323=EDGE_CURVE('',#264,#265,#150,.T.);
#324=EDGE_CURVE('',#265,#266,#151,.T.);
#325=EDGE_CURVE('',#266,#263,#152,.T.);
#326=EDGE_CURVE('',#267,#268,#153,.T.);
#327=EDGE_CURVE('',#268,#266,#34,.T.);
#328=EDGE_CURVE('',#265,#267,#35,.T.);
#329=EDGE_CURVE('',#269,#270,#154,.T.);
#330=EDGE_CURVE('',#270,#268,#155,.T.);
#331=EDGE_CURVE('',#267,#269,#156,.T.);
#332=EDGE_CURVE('',#271,#272,#157,.T.);
#333=EDGE_CURVE('',#272,#270,#36,.T.);
#334=EDGE_CURVE('',#269,#271,#37,.T.);
#335=EDGE_CURVE('',#253,#272,#158,.T.);
#336=EDGE_CURVE('',#271,#254,#159,.T.);
#337=EDGE_CURVE('',#262,#273,#160,.T.);
#338=EDGE_CURVE('',#273,#274,#161,.T.);
#339=EDGE_CURVE('',#274,#275,#162,.T.);
#340=EDGE_CURVE('',#275,#263,#163,.T.);
#341=EDGE_CURVE('',#276,#276,#38,.T.);
#342=EDGE_CURVE('',#277,#277,#39,.T.);
#343=EDGE_CURVE('',#255,#278,#164,.T.);
#344=EDGE_CURVE('',#278,#279,#40,.T.);
#345=EDGE_CURVE('',#279,#256,#165,.T.);
#346=EDGE_CURVE('',#280,#281,#41,.T.);
#347=EDGE_CURVE('',#281,#279,#42,.T.);
#348=EDGE_CURVE('',#278,#280,#43,.T.);
#349=EDGE_CURVE('',#282,#283,#44,.T.);
#350=EDGE_CURVE('',#283,#281,#166,.T.);
#351=EDGE_CURVE('',#280,#282,#167,.T.);
#352=EDGE_CURVE('',#284,#285,#45,.T.);
#353=EDGE_CURVE('',#285,#283,#46,.T.);
#354=EDGE_CURVE('',#282,#284,#47,.T.);
#355=EDGE_CURVE('',#286,#287,#48,.T.);
#356=EDGE_CURVE('',#287,#285,#168,.T.);
#357=EDGE_CURVE('',#284,#286,#169,.T.);
#358=EDGE_CURVE('',#287,#288,#170,.T.);
#359=EDGE_CURVE('',#288,#289,#171,.T.);
#360=EDGE_CURVE('',#289,#290,#172,.T.);
#361=EDGE_CURVE('',#290,#243,#173,.T.);
#362=EDGE_CURVE('',#291,#291,#49,.T.);
#363=EDGE_CURVE('',#292,#292,#50,.T.);
#364=EDGE_CURVE('',#275,#288,#174,.T.);
#365=EDGE_CURVE('',#264,#286,#175,.T.);
#366=EDGE_CURVE('',#291,#276,#176,.T.);
#367=EDGE_CURVE('',#292,#277,#177,.T.);
#368=EDGE_CURVE('',#273,#290,#178,.T.);
#369=EDGE_CURVE('',#274,#289,#179,.T.);
#370=EDGE_CURVE('',#265,#284,#180,.T.);
#371=EDGE_CURVE('',#267,#282,#181,.T.);
#372=EDGE_CURVE('',#269,#280,#182,.T.);
#373=EDGE_CURVE('',#271,#278,#183,.T.);
#374=ORIENTED_EDGE('',*,*,#293,.T.);
#375=ORIENTED_EDGE('',*,*,#294,.T.);
#376=ORIENTED_EDGE('',*,*,#295,.T.);
#377=ORIENTED_EDGE('',*,*,#296,.T.);
#378=ORIENTED_EDGE('',*,*,#297,.T.);
#379=ORIENTED_EDGE('',*,*,#298,.T.);
#380=ORIENTED_EDGE('',*,*,#295,.F.);
#381=ORIENTED_EDGE('',*,*,#299,.T.);
#382=ORIENTED_EDGE('',*,*,#300,.T.);
#383=ORIENTED_EDGE('',*,*,#301,.T.);
#384=ORIENTED_EDGE('',*,*,#297,.F.);
#385=ORIENTED_EDGE('',*,*,#302,.T.);
#386=ORIENTED_EDGE('',*,*,#300,.F.);
#387=ORIENTED_EDGE('',*,*,#303,.F.);
#388=ORIENTED_EDGE('',*,*,#304,.F.);
#389=ORIENTED_EDGE('',*,*,#305,.F.);
#390=ORIENTED_EDGE('',*,*,#306,.F.);
#391=ORIENTED_EDGE('',*,*,#307,.T.);
#392=ORIENTED_EDGE('',*,*,#308,.F.);
#393=ORIENTED_EDGE('',*,*,#309,.F.);
#394=ORIENTED_EDGE('',*,*,#302,.F.);
#395=ORIENTED_EDGE('',*,*,#310,.F.);
#396=ORIENTED_EDGE('',*,*,#311,.F.);
#397=ORIENTED_EDGE('',*,*,#303,.T.);
#398=ORIENTED_EDGE('',*,*,#299,.F.);
#399=ORIENTED_EDGE('',*,*,#312,.F.);
#400=ORIENTED_EDGE('',*,*,#313,.F.);
#401=ORIENTED_EDGE('',*,*,#310,.T.);
#402=ORIENTED_EDGE('',*,*,#294,.F.);
#403=ORIENTED_EDGE('',*,*,#314,.F.);
#404=ORIENTED_EDGE('',*,*,#315,.F.);
#405=ORIENTED_EDGE('',*,*,#312,.T.);
#406=ORIENTED_EDGE('',*,*,#304,.T.);
#407=ORIENTED_EDGE('',*,*,#311,.T.);
#408=ORIENTED_EDGE('',*,*,#316,.T.);
#409=ORIENTED_EDGE('',*,*,#317,.T.);
#410=ORIENTED_EDGE('',*,*,#318,.T.);
#411=ORIENTED_EDGE('',*,*,#319,.T.);
#412=ORIENTED_EDGE('',*,*,#316,.F.);
#413=ORIENTED_EDGE('',*,*,#313,.T.);
#414=ORIENTED_EDGE('',*,*,#320,.T.);
#415=ORIENTED_EDGE('',*,*,#321,.T.);
#416=ORIENTED_EDGE('',*,*,#318,.F.);
#417=ORIENTED_EDGE('',*,*,#315,.T.);
#418=ORIENTED_EDGE('',*,*,#322,.T.);
#419=ORIENTED_EDGE('',*,*,#323,.T.);
#420=ORIENTED_EDGE('',*,*,#324,.T.);
#421=ORIENTED_EDGE('',*,*,#325,.T.);
#422=ORIENTED_EDGE('',*,*,#326,.T.);
#423=ORIENTED_EDGE('',*,*,#327,.T.);
#424=ORIENTED_EDGE('',*,*,#324,.F.);
#425=ORIENTED_EDGE('',*,*,#328,.T.);
#426=ORIENTED_EDGE('',*,*,#329,.T.);
#427=ORIENTED_EDGE('',*,*,#330,.T.);
#428=ORIENTED_EDGE('',*,*,#326,.F.);
#429=ORIENTED_EDGE('',*,*,#331,.T.);
#430=ORIENTED_EDGE('',*,*,#332,.T.);
#431=ORIENTED_EDGE('',*,*,#333,.T.);
#432=ORIENTED_EDGE('',*,*,#329,.F.);
#433=ORIENTED_EDGE('',*,*,#334,.T.);
#434=ORIENTED_EDGE('',*,*,#306,.T.);
#435=ORIENTED_EDGE('',*,*,#335,.T.);
#436=ORIENTED_EDGE('',*,*,#332,.F.);
#437=ORIENTED_EDGE('',*,*,#336,.T.);
#438=ORIENTED_EDGE('',*,*,#321,.F.);
#439=ORIENTED_EDGE('',*,*,#337,.T.);
#440=ORIENTED_EDGE('',*,*,#338,.T.);
#441=ORIENTED_EDGE('',*,*,#339,.T.);
#442=ORIENTED_EDGE('',*,*,#340,.T.);
#443=ORIENTED_EDGE('',*,*,#325,.F.);
#444=ORIENTED_EDGE('',*,*,#327,.F.);
#445=ORIENTED_EDGE('',*,*,#330,.F.);
#446=ORIENTED_EDGE('',*,*,#333,.F.);
#447=ORIENTED_EDGE('',*,*,#335,.F.);
#448=ORIENTED_EDGE('',*,*,#305,.T.);
#449=ORIENTED_EDGE('',*,*,#317,.F.);
#450=ORIENTED_EDGE('',*,*,#319,.F.);
#451=ORIENTED_EDGE('',*,*,#341,.T.);
#452=ORIENTED_EDGE('',*,*,#342,.T.);
#453=ORIENTED_EDGE('',*,*,#308,.T.);
#454=ORIENTED_EDGE('',*,*,#343,.T.);
#455=ORIENTED_EDGE('',*,*,#344,.T.);
#456=ORIENTED_EDGE('',*,*,#345,.T.);
#457=ORIENTED_EDGE('',*,*,#346,.T.);
#458=ORIENTED_EDGE('',*,*,#347,.T.);
#459=ORIENTED_EDGE('',*,*,#344,.F.);
#460=ORIENTED_EDGE('',*,*,#348,.T.);
#461=ORIENTED_EDGE('',*,*,#349,.T.);
#462=ORIENTED_EDGE('',*,*,#350,.T.);
#463=ORIENTED_EDGE('',*,*,#346,.F.);
#464=ORIENTED_EDGE('',*,*,#351,.T.);
#465=ORIENTED_EDGE('',*,*,#352,.T.);
#466=ORIENTED_EDGE('',*,*,#353,.T.);
#467=ORIENTED_EDGE('',*,*,#349,.F.);
#468=ORIENTED_EDGE('',*,*,#354,.T.);
#469=ORIENTED_EDGE('',*,*,#355,.T.);
#470=ORIENTED_EDGE('',*,*,#356,.T.);
#471=ORIENTED_EDGE('',*,*,#352,.F.);
#472=ORIENTED_EDGE('',*,*,#357,.T.);
#473=ORIENTED_EDGE('',*,*,#301,.F.);
#474=ORIENTED_EDGE('',*,*,#309,.T.);
#475=ORIENTED_EDGE('',*,*,#345,.F.);
#476=ORIENTED_EDGE('',*,*,#347,.F.);
#477=ORIENTED_EDGE('',*,*,#350,.F.);
#478=ORIENTED_EDGE('',*,*,#353,.F.);
#479=ORIENTED_EDGE('',*,*,#356,.F.);
#480=ORIENTED_EDGE('',*,*,#358,.T.);
#481=ORIENTED_EDGE('',*,*,#359,.T.);
#482=ORIENTED_EDGE('',*,*,#360,.T.);
#483=ORIENTED_EDGE('',*,*,#361,.T.);
#484=ORIENTED_EDGE('',*,*,#296,.F.);
#485=ORIENTED_EDGE('',*,*,#298,.F.);
#486=ORIENTED_EDGE('',*,*,#362,.T.);
#487=ORIENTED_EDGE('',*,*,#363,.T.);
#488=ORIENTED_EDGE('',*,*,#322,.F.);
#489=ORIENTED_EDGE('',*,*,#340,.F.);
#490=ORIENTED_EDGE('',*,*,#364,.T.);
#491=ORIENTED_EDGE('',*,*,#358,.F.);
#492=ORIENTED_EDGE('',*,*,#355,.F.);
#493=ORIENTED_EDGE('',*,*,#365,.F.);
#494=ORIENTED_EDGE('',*,*,#362,.F.);
#495=ORIENTED_EDGE('',*,*,#366,.T.);
#496=ORIENTED_EDGE('',*,*,#341,.F.);
#497=ORIENTED_EDGE('',*,*,#366,.F.);
#498=ORIENTED_EDGE('',*,*,#363,.F.);
#499=ORIENTED_EDGE('',*,*,#367,.T.);
#500=ORIENTED_EDGE('',*,*,#342,.F.);
#501=ORIENTED_EDGE('',*,*,#367,.F.);
#502=ORIENTED_EDGE('',*,*,#293,.F.);
#503=ORIENTED_EDGE('',*,*,#361,.F.);
#504=ORIENTED_EDGE('',*,*,#368,.F.);
#505=ORIENTED_EDGE('',*,*,#337,.F.);
#506=ORIENTED_EDGE('',*,*,#320,.F.);
#507=ORIENTED_EDGE('',*,*,#314,.T.);
#508=ORIENTED_EDGE('',*,*,#338,.F.);
#509=ORIENTED_EDGE('',*,*,#368,.T.);
#510=ORIENTED_EDGE('',*,*,#360,.F.);
#511=ORIENTED_EDGE('',*,*,#369,.F.);
#512=ORIENTED_EDGE('',*,*,#339,.F.);
#513=ORIENTED_EDGE('',*,*,#369,.T.);
#514=ORIENTED_EDGE('',*,*,#359,.F.);
#515=ORIENTED_EDGE('',*,*,#364,.F.);
#516=ORIENTED_EDGE('',*,*,#323,.F.);
#517=ORIENTED_EDGE('',*,*,#365,.T.);
#518=ORIENTED_EDGE('',*,*,#357,.F.);
#519=ORIENTED_EDGE('',*,*,#370,.F.);
#520=ORIENTED_EDGE('',*,*,#328,.F.);
#521=ORIENTED_EDGE('',*,*,#370,.T.);
#522=ORIENTED_EDGE('',*,*,#354,.F.);
#523=ORIENTED_EDGE('',*,*,#371,.F.);
#524=ORIENTED_EDGE('',*,*,#331,.F.);
#525=ORIENTED_EDGE('',*,*,#371,.T.);
#526=ORIENTED_EDGE('',*,*,#351,.F.);
#527=ORIENTED_EDGE('',*,*,#372,.F.);
#528=ORIENTED_EDGE('',*,*,#334,.F.);
#529=ORIENTED_EDGE('',*,*,#372,.T.);
#530=ORIENTED_EDGE('',*,*,#348,.F.);
#531=ORIENTED_EDGE('',*,*,#373,.F.);
#532=ORIENTED_EDGE('',*,*,#336,.F.);
#533=ORIENTED_EDGE('',*,*,#373,.T.);
#534=ORIENTED_EDGE('',*,*,#343,.F.);
#535=ORIENTED_EDGE('',*,*,#307,.F.);
#536=PLANE('',#590);
#537=PLANE('',#594);
#538=PLANE('',#595);
#539=PLANE('',#597);
#540=PLANE('',#600);
#541=PLANE('',#601);
#542=PLANE('',#604);
#543=PLANE('',#605);
#544=PLANE('',#609);
#545=PLANE('',#613);
#546=PLANE('',#614);
#547=PLANE('',#631);
#548=PLANE('',#634);
#549=PLANE('',#637);
#550=PLANE('',#638);
#551=PLANE('',#639);
#552=PLANE('',#640);
#553=PLANE('',#642);
#554=PLANE('',#644);
#555=ADVANCED_FACE('',(#55),#536,.T.);
#556=ADVANCED_FACE('',(#56),#51,.F.);
#557=ADVANCED_FACE('',(#57),#537,.T.);
#558=ADVANCED_FACE('',(#58),#538,.T.);
#559=ADVANCED_FACE('',(#59),#539,.T.);
#560=ADVANCED_FACE('',(#60),#21,.F.);
#561=ADVANCED_FACE('',(#61),#540,.T.);
#562=ADVANCED_FACE('',(#62),#541,.T.);
#563=ADVANCED_FACE('',(#63),#52,.F.);
#564=ADVANCED_FACE('',(#64),#542,.T.);
#565=ADVANCED_FACE('',(#65),#543,.T.);
#566=ADVANCED_FACE('',(#66),#53,.T.);
#567=ADVANCED_FACE('',(#67),#544,.T.);
#568=ADVANCED_FACE('',(#68),#54,.T.);
#569=ADVANCED_FACE('',(#69),#545,.T.);
#570=ADVANCED_FACE('',(#70,#17,#18),#546,.F.);
#571=ADVANCED_FACE('',(#71),#22,.T.);
#572=ADVANCED_FACE('',(#72),#15,.T.);
#573=ADVANCED_FACE('',(#73),#23,.T.);
#574=ADVANCED_FACE('',(#74),#16,.T.);
#575=ADVANCED_FACE('',(#75),#24,.T.);
#576=ADVANCED_FACE('',(#76,#19,#20),#547,.T.);
#577=ADVANCED_FACE('',(#77),#548,.T.);
#578=ADVANCED_FACE('',(#78),#25,.F.);
#579=ADVANCED_FACE('',(#79),#26,.F.);
#580=ADVANCED_FACE('',(#80),#549,.T.);
#581=ADVANCED_FACE('',(#81),#550,.T.);
#582=ADVANCED_FACE('',(#82),#551,.T.);
#583=ADVANCED_FACE('',(#83),#552,.T.);
#584=ADVANCED_FACE('',(#84),#27,.T.);
#585=ADVANCED_FACE('',(#85),#553,.T.);
#586=ADVANCED_FACE('',(#86),#28,.T.);
#587=ADVANCED_FACE('',(#87),#554,.T.);
#588=CLOSED_SHELL('',(#555,#556,#557,#558,#559,#560,#561,#562,#563,#564,
#565,#566,#567,#568,#569,#570,#571,#572,#573,#574,#575,#576,#577,#578,#579,
#580,#581,#582,#583,#584,#585,#586,#587));
#589=AXIS2_PLACEMENT_3D('',#816,#645,#646);
#590=AXIS2_PLACEMENT_3D('',#817,#647,#648);
#591=AXIS2_PLACEMENT_3D('',#826,#653,#654);
#592=AXIS2_PLACEMENT_3D('',#830,#656,#657);
#593=AXIS2_PLACEMENT_3D('',#831,#658,#659);
#594=AXIS2_PLACEMENT_3D('',#832,#660,#661);
#595=AXIS2_PLACEMENT_3D('',#838,#665,#666);
#596=AXIS2_PLACEMENT_3D('',#850,#672,#673);
#597=AXIS2_PLACEMENT_3D('',#852,#675,#676);
#598=AXIS2_PLACEMENT_3D('',#856,#679,#680);
#599=AXIS2_PLACEMENT_3D('',#859,#682,#683);
#600=AXIS2_PLACEMENT_3D('',#860,#684,#685);
#601=AXIS2_PLACEMENT_3D('',#864,#688,#689);
#602=AXIS2_PLACEMENT_3D('',#868,#692,#693);
#603=AXIS2_PLACEMENT_3D('',#871,#695,#696);
#604=AXIS2_PLACEMENT_3D('',#872,#697,#698);
#605=AXIS2_PLACEMENT_3D('',#876,#701,#702);
#606=AXIS2_PLACEMENT_3D('',#885,#707,#708);
#607=AXIS2_PLACEMENT_3D('',#889,#710,#711);
#608=AXIS2_PLACEMENT_3D('',#890,#712,#713);
#609=AXIS2_PLACEMENT_3D('',#891,#714,#715);
#610=AXIS2_PLACEMENT_3D('',#897,#719,#720);
#611=AXIS2_PLACEMENT_3D('',#901,#722,#723);
#612=AXIS2_PLACEMENT_3D('',#902,#724,#725);
#613=AXIS2_PLACEMENT_3D('',#903,#726,#727);
#614=AXIS2_PLACEMENT_3D('',#906,#730,#731);
#615=AXIS2_PLACEMENT_3D('',#915,#736,#737);
#616=AXIS2_PLACEMENT_3D('',#917,#738,#739);
#617=AXIS2_PLACEMENT_3D('',#918,#740,#741);
#618=AXIS2_PLACEMENT_3D('',#922,#743,#744);
#619=AXIS2_PLACEMENT_3D('',#924,#746,#747);
#620=AXIS2_PLACEMENT_3D('',#927,#748,#749);
#621=AXIS2_PLACEMENT_3D('',#928,#750,#751);
#622=AXIS2_PLACEMENT_3D('',#929,#752,#753);
#623=AXIS2_PLACEMENT_3D('',#930,#754,#755);
#624=AXIS2_PLACEMENT_3D('',#933,#756,#757);
#625=AXIS2_PLACEMENT_3D('',#936,#760,#761);
#626=AXIS2_PLACEMENT_3D('',#939,#762,#763);
#627=AXIS2_PLACEMENT_3D('',#940,#764,#765);
#628=AXIS2_PLACEMENT_3D('',#941,#766,#767);
#629=AXIS2_PLACEMENT_3D('',#942,#768,#769);
#630=AXIS2_PLACEMENT_3D('',#945,#770,#771);
#631=AXIS2_PLACEMENT_3D('',#948,#774,#775);
#632=AXIS2_PLACEMENT_3D('',#957,#780,#781);
#633=AXIS2_PLACEMENT_3D('',#959,#782,#783);
#634=AXIS2_PLACEMENT_3D('',#960,#784,#785);
#635=AXIS2_PLACEMENT_3D('',#963,#788,#789);
#636=AXIS2_PLACEMENT_3D('',#965,#791,#792);
#637=AXIS2_PLACEMENT_3D('',#967,#794,#795);
#638=AXIS2_PLACEMENT_3D('',#969,#797,#798);
#639=AXIS2_PLACEMENT_3D('',#971,#800,#801);
#640=AXIS2_PLACEMENT_3D('',#972,#802,#803);
#641=AXIS2_PLACEMENT_3D('',#974,#805,#806);
#642=AXIS2_PLACEMENT_3D('',#976,#808,#809);
#643=AXIS2_PLACEMENT_3D('',#978,#811,#812);
#644=AXIS2_PLACEMENT_3D('',#980,#814,#815);
#645=DIRECTION('axis',(0.,0.,1.));
#646=DIRECTION('refdir',(1.,0.,0.));
#647=DIRECTION('center_axis',(-0.612372435695802,-0.353553390593277,0.70710678118654));
#648=DIRECTION('ref_axis',(0.755928946018447,0.,0.654653670707986));
#649=DIRECTION('',(-0.612372435695788,-0.35355339059327,-0.707106781186555));
#650=DIRECTION('',(0.499999999999999,-0.866025403784439,-9.85918145085514E-32));
#651=DIRECTION('',(0.612372435695788,0.35355339059327,0.707106781186555));
#652=DIRECTION('',(-0.499999999999999,0.866025403784439,9.85918145085514E-32));
#653=DIRECTION('center_axis',(0.,0.,1.));
#654=DIRECTION('ref_axis',(1.,-4.00292868926012E-41,-5.90728008614026E-21));
#655=DIRECTION('',(0.707106781186548,0.,0.707106781186548));
#656=DIRECTION('center_axis',(1.1736832802726E-20,6.77626357797364E-21,
1.));
#657=DIRECTION('ref_axis',(1.,-7.95318726418787E-41,-1.1736832802726E-20));
#658=DIRECTION('center_axis',(-1.1736832802726E-20,-6.77626357797364E-21,
-1.));
#659=DIRECTION('ref_axis',(1.,0.,0.));
#660=DIRECTION('center_axis',(-0.707106781186548,-4.9154029343641E-16,0.707106781186548));
#661=DIRECTION('ref_axis',(0.707106781186548,0.,0.707106781186548));
#662=DIRECTION('',(0.707106781186548,4.71027737605134E-16,0.707106781186548));
#663=DIRECTION('',(-6.95149725694199E-16,1.,-6.77626357797363E-21));
#664=DIRECTION('',(6.95149725694199E-16,-1.,6.77626357797363E-21));
#665=DIRECTION('center_axis',(6.66133814775095E-16,-1.,0.));
#666=DIRECTION('ref_axis',(1.,6.66133814775095E-16,-1.1736832802726E-20));
#667=DIRECTION('',(0.,0.,1.));
#668=DIRECTION('',(-0.707106781186548,-4.71027737605134E-16,0.707106781186548));
#669=DIRECTION('',(-1.,-6.66133814775095E-16,1.1736832802726E-20));
#670=DIRECTION('',(-0.707106781186548,-4.71027737605134E-16,-0.707106781186548));
#671=DIRECTION('',(0.,0.,1.));
#672=DIRECTION('center_axis',(-6.66133814775095E-16,1.,0.));
#673=DIRECTION('ref_axis',(0.707106781186549,0.,0.707106781186546));
#674=DIRECTION('',(1.,6.66133814775095E-16,-1.1736832802726E-20));
#675=DIRECTION('center_axis',(-1.,-6.95149725694199E-16,0.));
#676=DIRECTION('ref_axis',(6.95149725694199E-16,-1.,6.77626357797363E-21));
#677=DIRECTION('',(0.,0.,1.));
#678=DIRECTION('',(-6.95149725694199E-16,1.,-6.77626357797363E-21));
#679=DIRECTION('center_axis',(0.,0.,1.));
#680=DIRECTION('ref_axis',(1.,0.,0.));
#681=DIRECTION('',(0.,0.,1.));
#682=DIRECTION('center_axis',(1.1736832802726E-20,6.77626357797364E-21,
1.));
#683=DIRECTION('ref_axis',(1.,0.,0.));
#684=DIRECTION('center_axis',(-0.866025403784439,-0.499999999999999,0.));
#685=DIRECTION('ref_axis',(0.499999999999999,-0.866025403784439,-9.85918145085514E-32));
#686=DIRECTION('',(0.,0.,1.));
#687=DIRECTION('',(-0.499999999999999,0.866025403784439,9.85918145085514E-32));
#688=DIRECTION('center_axis',(-0.707106781186548,-4.91549876520264E-16,
-0.707106781186548));
#689=DIRECTION('ref_axis',(-0.707106781186548,0.,0.707106781186548));
#690=DIRECTION('',(0.707106781186555,0.,-0.70710678118654));
#691=DIRECTION('',(6.95149725694199E-16,-1.,6.77626357797363E-21));
#692=DIRECTION('center_axis',(0.,0.,-1.));
#693=DIRECTION('ref_axis',(1.,-4.00292868926012E-41,-5.90728008614026E-21));
#694=DIRECTION('',(0.612372435695798,0.353553390593266,-0.707106781186548));
#695=DIRECTION('center_axis',(-1.1736832802726E-20,-6.77626357797364E-21,
-1.));
#696=DIRECTION('ref_axis',(1.,-7.95318726418787E-41,-1.1736832802726E-20));
#697=DIRECTION('center_axis',(-0.612372435695802,-0.353553390593277,-0.70710678118654));
#698=DIRECTION('ref_axis',(-0.755928946018447,0.,0.654653670707986));
#699=DIRECTION('',(0.612372435695788,0.35355339059327,-0.707106781186555));
#700=DIRECTION('',(0.499999999999999,-0.866025403784439,-9.85918145085514E-32));
#701=DIRECTION('center_axis',(-0.353553390593276,0.61237243569579,-0.707106781186551));
#702=DIRECTION('ref_axis',(-0.894427190999916,0.,0.447213595499958));
#703=DIRECTION('',(-0.353553390593274,0.612372435695798,0.707106781186544));
#704=DIRECTION('',(0.866025403784436,0.500000000000005,-1.35525271561181E-20));
#705=DIRECTION('',(0.35355339059328,-0.612372435695794,-0.707106781186544));
#706=DIRECTION('',(-0.866025403784436,-0.500000000000005,1.35525271561181E-20));
#707=DIRECTION('center_axis',(0.,0.,1.));
#708=DIRECTION('ref_axis',(0.86602540378444,0.499999999999998,-6.49391926230657E-21));
#709=DIRECTION('',(-0.612372435695798,-0.353553390593266,-0.707106781186548));
#710=DIRECTION('center_axis',(1.1736832802726E-20,6.77626357797364E-21,
1.));
#711=DIRECTION('ref_axis',(0.86602540378444,0.499999999999998,-1.35525271561181E-20));
#712=DIRECTION('center_axis',(-1.1736832802726E-20,-6.77626357797364E-21,
-1.));
#713=DIRECTION('ref_axis',(0.86602540378444,0.499999999999998,0.));
#714=DIRECTION('center_axis',(0.612372435695796,0.353553390593273,-0.707106781186547));
#715=DIRECTION('ref_axis',(-0.755928946018453,0.,-0.654653670707978));
#716=DIRECTION('',(-0.612372435695808,-0.353553390593263,-0.707106781186542));
#717=DIRECTION('',(-0.499999999999999,0.866025403784439,9.85903098757824E-32));
#718=DIRECTION('',(0.499999999999999,-0.866025403784439,-9.85903098757824E-32));
#719=DIRECTION('center_axis',(0.,0.,1.));
#720=DIRECTION('ref_axis',(1.,-3.9566107495206E-41,-5.83892687170793E-21));
#721=DIRECTION('',(-0.707106781186548,0.,-0.707106781186548));
#722=DIRECTION('center_axis',(1.1736832802726E-20,6.77626357797364E-21,
1.));
#723=DIRECTION('ref_axis',(1.,-7.95318726418787E-41,-1.1736832802726E-20));
#724=DIRECTION('center_axis',(-1.1736832802726E-20,-6.77626357797364E-21,
-1.));
#725=DIRECTION('ref_axis',(1.,0.,0.));
#726=DIRECTION('center_axis',(0.707106781186548,-4.79154192709258E-21,-0.707106781186548));
#727=DIRECTION('ref_axis',(-0.707106781186548,0.,-0.707106781186548));
#728=DIRECTION('',(0.,1.,-6.77626357797364E-21));
#729=DIRECTION('',(0.,-1.,6.77626357797364E-21));
#730=DIRECTION('center_axis',(1.1736832802726E-20,6.77626357797364E-21,
1.));
#731=DIRECTION('ref_axis',(1.,0.,-1.1736832802726E-20));
#732=DIRECTION('',(0.866025403784439,0.5,-1.35525271561181E-20));
#733=DIRECTION('',(-0.499999999999999,0.866025403784439,9.85985853560122E-32));
#734=DIRECTION('',(-0.866025403784439,-0.499999999999999,1.35525271561181E-20));
#735=DIRECTION('',(-0.499999999999999,0.866025403784439,9.85918145085514E-32));
#736=DIRECTION('center_axis',(1.1736832802726E-20,6.77626357797364E-21,
1.));
#737=DIRECTION('ref_axis',(1.,0.,0.));
#738=DIRECTION('center_axis',(1.1736832802726E-20,6.77626357797364E-21,
1.));
#739=DIRECTION('ref_axis',(1.,0.,0.));
#740=DIRECTION('center_axis',(0.,1.,-6.77626357797364E-21));
#741=DIRECTION('ref_axis',(0.707106781186549,0.,0.707106781186546));
#742=DIRECTION('',(0.,1.,-6.77626357797364E-21));
#743=DIRECTION('center_axis',(0.,-1.,0.));
#744=DIRECTION('ref_axis',(1.,0.,0.));
#745=DIRECTION('',(0.,-1.,6.77626357797364E-21));
#746=DIRECTION('center_axis',(1.1736832802726E-20,6.77626357797364E-21,
1.));
#747=DIRECTION('ref_axis',(1.,0.,0.));
#748=DIRECTION('center_axis',(0.499999999999999,-0.866025403784439,0.));
#749=DIRECTION('ref_axis',(0.866025403784439,0.499999999999999,0.));
#750=DIRECTION('center_axis',(-1.1736832802726E-20,-6.77626357797364E-21,
-1.));
#751=DIRECTION('ref_axis',(0.965925826289068,0.25881904510252,-1.30907359916039E-20));
#752=DIRECTION('center_axis',(1.1736832802726E-20,6.77626357797364E-21,
1.));
#753=DIRECTION('ref_axis',(0.965925826289069,0.25881904510252,0.));
#754=DIRECTION('center_axis',(-0.499999999999999,0.866025403784439,9.85903098757824E-32));
#755=DIRECTION('ref_axis',(0.612372435695794,0.353553390593268,0.707106781186551));
#756=DIRECTION('center_axis',(0.499999999999997,-0.86602540378444,0.));
#757=DIRECTION('ref_axis',(0.86602540378444,0.499999999999997,0.));
#758=DIRECTION('',(0.499999999999999,-0.866025403784439,-9.85903098757824E-32));
#759=DIRECTION('',(-0.499999999999999,0.866025403784439,9.85903098757824E-32));
#760=DIRECTION('center_axis',(1.1736832802726E-20,6.77626357797364E-21,
1.));
#761=DIRECTION('ref_axis',(1.,0.,0.));
#762=DIRECTION('center_axis',(0.866025403784438,0.500000000000001,0.));
#763=DIRECTION('ref_axis',(-0.500000000000001,0.866025403784438,0.));
#764=DIRECTION('center_axis',(-1.1736832802726E-20,-6.77626357797364E-21,
-1.));
#765=DIRECTION('ref_axis',(0.258819045102522,0.965925826289068,-9.58308385423621E-21));
#766=DIRECTION('center_axis',(1.1736832802726E-20,6.77626357797364E-21,
1.));
#767=DIRECTION('ref_axis',(0.258819045102522,0.965925826289068,0.));
#768=DIRECTION('center_axis',(-0.866025403784436,-0.500000000000005,1.35525271561181E-20));
#769=DIRECTION('ref_axis',(-0.353553390593279,0.612372435695791,0.707106781186548));
#770=DIRECTION('center_axis',(0.866025403784439,0.499999999999999,0.));
#771=DIRECTION('ref_axis',(-0.353553390593279,0.612372435695791,0.707106781186548));
#772=DIRECTION('',(0.866025403784436,0.500000000000005,-1.35525271561181E-20));
#773=DIRECTION('',(-0.866025403784436,-0.500000000000005,1.35525271561181E-20));
#774=DIRECTION('center_axis',(1.1736832802726E-20,6.77626357797364E-21,
1.));
#775=DIRECTION('ref_axis',(1.,0.,-1.1736832802726E-20));
#776=DIRECTION('',(0.499999999999999,-0.866025403784439,-9.85918145085514E-32));
#777=DIRECTION('',(0.866025403784439,0.499999999999999,-1.35525271561181E-20));
#778=DIRECTION('',(0.499999999999999,-0.866025403784439,-9.85985853560122E-32));
#779=DIRECTION('',(-0.866025403784439,-0.5,1.35525271561181E-20));
#780=DIRECTION('center_axis',(-1.1736832802726E-20,-6.77626357797364E-21,
-1.));
#781=DIRECTION('ref_axis',(1.,0.,0.));
#782=DIRECTION('center_axis',(-1.1736832802726E-20,-6.77626357797364E-21,
-1.));
#783=DIRECTION('ref_axis',(1.,0.,0.));
#784=DIRECTION('center_axis',(-0.866025403784439,-0.499999999999999,0.));
#785=DIRECTION('ref_axis',(0.499999999999999,-0.866025403784439,-9.85918145085514E-32));
#786=DIRECTION('',(0.,0.,1.));
#787=DIRECTION('',(0.,0.,1.));
#788=DIRECTION('center_axis',(0.,0.,1.));
#789=DIRECTION('ref_axis',(1.,0.,0.));
#790=DIRECTION('',(0.,0.,-1.));
#791=DIRECTION('center_axis',(0.,0.,1.));
#792=DIRECTION('ref_axis',(1.,0.,0.));
#793=DIRECTION('',(0.,0.,-1.));
#794=DIRECTION('center_axis',(-0.5,0.866025403784439,0.));
#795=DIRECTION('ref_axis',(-0.866025403784439,-0.5,1.35525271561181E-20));
#796=DIRECTION('',(0.,0.,1.));
#797=DIRECTION('center_axis',(-0.866025403784439,-0.499999999999999,0.));
#798=DIRECTION('ref_axis',(0.499999999999999,-0.866025403784439,-9.85985853560122E-32));
#799=DIRECTION('',(0.,0.,1.));
#800=DIRECTION('center_axis',(0.499999999999999,-0.866025403784439,0.));
#801=DIRECTION('ref_axis',(0.866025403784439,0.499999999999999,-1.35525271561181E-20));
#802=DIRECTION('center_axis',(-0.500000000000005,0.866025403784436,0.));
#803=DIRECTION('ref_axis',(-0.866025403784436,-0.500000000000005,1.35525271561181E-20));
#804=DIRECTION('',(0.,0.,1.));
#805=DIRECTION('center_axis',(0.,0.,1.));
#806=DIRECTION('ref_axis',(0.86602540378444,0.499999999999998,0.));
#807=DIRECTION('',(0.,0.,1.));
#808=DIRECTION('center_axis',(0.866025403784439,0.499999999999999,0.));
#809=DIRECTION('ref_axis',(-0.499999999999999,0.866025403784439,9.85903098757824E-32));
#810=DIRECTION('',(0.,0.,1.));
#811=DIRECTION('center_axis',(0.,0.,1.));
#812=DIRECTION('ref_axis',(1.,0.,0.));
#813=DIRECTION('',(0.,0.,1.));
#814=DIRECTION('center_axis',(1.,0.,0.));
#815=DIRECTION('ref_axis',(0.,1.,-6.77626357797364E-21));
#816=CARTESIAN_POINT('',(0.,0.,0.));
#817=CARTESIAN_POINT('Origin',(51.919616243873,92.1937206740264,23.8));
#818=CARTESIAN_POINT('',(46.233751387861,102.44192748961,24.));
#819=CARTESIAN_POINT('',(45.8873412263472,102.24192748961,23.6));
#820=CARTESIAN_POINT('',(46.6018121844693,102.65442748961,24.425));
#821=CARTESIAN_POINT('',(48.9807621135331,96.8839653438088,23.6));
#822=CARTESIAN_POINT('',(51.7464111631162,92.0937206740264,23.6));
#823=CARTESIAN_POINT('',(49.3271722750469,97.0839653438088,24.));
#824=CARTESIAN_POINT('',(48.9807621135331,96.8839653438088,23.6));
#825=CARTESIAN_POINT('',(52.0928213246299,92.2937206740264,24.));
#826=CARTESIAN_POINT('Origin',(22.9999999999997,81.8839653438087,23.8));
#827=CARTESIAN_POINT('',(53.,81.8839653438087,23.6));
#828=CARTESIAN_POINT('',(53.4,81.8839653438087,24.));
#829=CARTESIAN_POINT('',(53.,81.8839653438087,23.6));
#830=CARTESIAN_POINT('Origin',(22.9999999999997,81.8839653438087,24.));
#831=CARTESIAN_POINT('Origin',(22.9999999999997,81.8839653438087,23.6));
#832=CARTESIAN_POINT('Origin',(53.2,80.345267602108,23.8));
#833=CARTESIAN_POINT('',(53.,22.0000000000001,23.6));
#834=CARTESIAN_POINT('',(53.4000000000001,22.0000000000001,24.));
#835=CARTESIAN_POINT('',(50.7000000000001,22.0000000000001,21.3));
#836=CARTESIAN_POINT('',(53.4,80.345267602108,24.));
#837=CARTESIAN_POINT('',(53.,80.345267602108,23.6));
#838=CARTESIAN_POINT('Origin',(53.,22.0000000000001,14.));
#839=CARTESIAN_POINT('',(53.,22.0000000000001,14.4));
#840=CARTESIAN_POINT('',(53.,22.0000000000001,14.));
#841=CARTESIAN_POINT('',(53.4000000000001,22.0000000000001,14.));
#842=CARTESIAN_POINT('',(53.2000000000001,22.0000000000001,14.2));
#843=CARTESIAN_POINT('',(72.6,22.0000000000001,14.));
#844=CARTESIAN_POINT('',(52.5843353065869,22.0000000000001,14.));
#845=CARTESIAN_POINT('',(73.,22.0000000000001,14.4));
#846=CARTESIAN_POINT('',(67.8,22.0000000000001,9.20000000000003));
#847=CARTESIAN_POINT('',(73.,22.0000000000001,22.));
#848=CARTESIAN_POINT('',(73.,22.0000000000001,14.));
#849=CARTESIAN_POINT('',(71.,22.0000000000001,24.));
#850=CARTESIAN_POINT('Origin',(71.,22.0000000000001,22.));
#851=CARTESIAN_POINT('',(52.5843353065869,22.0000000000001,24.));
#852=CARTESIAN_POINT('Origin',(53.,81.8839653438087,14.));
#853=CARTESIAN_POINT('',(53.,81.8839653438087,14.4));
#854=CARTESIAN_POINT('',(53.,81.8839653438087,14.));
#855=CARTESIAN_POINT('',(53.,80.345267602108,14.4));
#856=CARTESIAN_POINT('Origin',(22.9999999999997,81.8839653438087,14.));
#857=CARTESIAN_POINT('',(48.9807621135331,96.8839653438088,14.4));
#858=CARTESIAN_POINT('',(48.9807621135331,96.8839653438088,14.));
#859=CARTESIAN_POINT('Origin',(22.9999999999997,81.8839653438087,14.4));
#860=CARTESIAN_POINT('Origin',(45.8873412263472,102.24192748961,14.));
#861=CARTESIAN_POINT('',(45.8873412263472,102.24192748961,14.4));
#862=CARTESIAN_POINT('',(45.8873412263472,102.24192748961,14.));
#863=CARTESIAN_POINT('',(51.7464111631162,92.0937206740264,14.4));
#864=CARTESIAN_POINT('Origin',(53.2,80.345267602108,14.2));
#865=CARTESIAN_POINT('',(53.4,81.8839653438087,14.));
#866=CARTESIAN_POINT('',(53.,81.8839653438087,14.4));
#867=CARTESIAN_POINT('',(53.4,80.345267602108,14.));
#868=CARTESIAN_POINT('Origin',(22.9999999999997,81.8839653438087,14.2));
#869=CARTESIAN_POINT('',(49.3271722750469,97.0839653438088,14.));
#870=CARTESIAN_POINT('',(48.9807621135331,96.8839653438088,14.4));
#871=CARTESIAN_POINT('Origin',(22.9999999999997,81.8839653438087,14.));
#872=CARTESIAN_POINT('Origin',(51.919616243873,92.1937206740264,14.2));
#873=CARTESIAN_POINT('',(46.233751387861,102.44192748961,14.));
#874=CARTESIAN_POINT('',(48.7668756939304,103.90442748961,11.075));
#875=CARTESIAN_POINT('',(52.0928213246299,92.2937206740264,14.));
#876=CARTESIAN_POINT('Origin',(35.2141265113747,129.450589659962,14.2));
#877=CARTESIAN_POINT('',(31.5373412263473,127.096856578223,14.));
#878=CARTESIAN_POINT('',(31.3373412263473,127.443266739737,14.4));
#879=CARTESIAN_POINT('',(31.4373412263473,127.27006165898,14.2));
#880=CARTESIAN_POINT('',(44.3277222831139,134.943266739737,14.4));
#881=CARTESIAN_POINT('',(35.1141265113747,129.623794740719,14.4));
#882=CARTESIAN_POINT('',(44.5277222831139,134.596856578223,14.));
#883=CARTESIAN_POINT('',(44.3277222831139,134.943266739737,14.4));
#884=CARTESIAN_POINT('',(35.3141265113747,129.277384579205,14.));
#885=CARTESIAN_POINT('Origin',(46.8277222831139,130.613139720815,14.2));
#886=CARTESIAN_POINT('',(51.157849302036,133.113139720815,14.4));
#887=CARTESIAN_POINT('',(50.8114391405223,132.913139720815,14.));
#888=CARTESIAN_POINT('',(51.157849302036,133.113139720815,14.4));
#889=CARTESIAN_POINT('Origin',(46.8277222831139,130.613139720815,14.));
#890=CARTESIAN_POINT('Origin',(46.8277222831139,130.613139720815,14.4));
#891=CARTESIAN_POINT('Origin',(71.1102975827189,98.1544855632816,14.2));
#892=CARTESIAN_POINT('',(67.6410161513776,104.56345726812,14.4));
#893=CARTESIAN_POINT('',(67.2946059898638,104.36345726812,14.));
#894=CARTESIAN_POINT('',(67.6410161513776,104.56345726812,14.4));
#895=CARTESIAN_POINT('',(70.937092501962,98.0544855632816,14.));
#896=CARTESIAN_POINT('',(71.2835026634758,98.2544855632816,14.4));
#897=CARTESIAN_POINT('Origin',(33.0000000000002,84.5634572681201,14.2));
#898=CARTESIAN_POINT('',(73.,84.5634572681201,14.4));
#899=CARTESIAN_POINT('',(72.6,84.5634572681201,14.));
#900=CARTESIAN_POINT('',(73.,84.5634572681201,14.4));
#901=CARTESIAN_POINT('Origin',(33.0000000000002,84.5634572681201,14.));
#902=CARTESIAN_POINT('Origin',(33.0000000000002,84.5634572681201,14.4));
#903=CARTESIAN_POINT('Origin',(72.8,50.4032849302038,14.2));
#904=CARTESIAN_POINT('',(72.6,50.4032849302038,14.));
#905=CARTESIAN_POINT('',(73.,50.4032849302038,14.4));
#906=CARTESIAN_POINT('Origin',(52.1686706131737,78.8065698604074,14.));
#907=CARTESIAN_POINT('',(56.7126587736527,108.49192748961,14.));
#908=CARTESIAN_POINT('',(48.5815947566442,103.797455490592,14.));
#909=CARTESIAN_POINT('',(44.4626587736528,129.709549882328,14.));
#910=CARTESIAN_POINT('',(56.4467287104217,108.952531870386,14.));
#911=CARTESIAN_POINT('',(33.6373412263472,123.459549882328,14.));
#912=CARTESIAN_POINT('',(30.9189359829915,121.890077883311,14.));
#913=CARTESIAN_POINT('',(44.4714111631162,104.69439029909,14.));
#914=CARTESIAN_POINT('',(37.35,127.970190528384,14.));
#915=CARTESIAN_POINT('Origin',(38.25,127.970190528384,14.));
#916=CARTESIAN_POINT('',(51.2,103.981286843555,14.));
#917=CARTESIAN_POINT('Origin',(52.1,103.981286843555,14.));
#918=CARTESIAN_POINT('Origin',(71.,50.4032849302038,22.));
#919=CARTESIAN_POINT('',(73.,84.5634572681201,22.));
#920=CARTESIAN_POINT('',(73.,50.4032849302038,22.));
#921=CARTESIAN_POINT('',(71.,84.5634572681201,24.));
#922=CARTESIAN_POINT('Origin',(71.,84.5634572681201,22.));
#923=CARTESIAN_POINT('',(71.,50.4032849302038,24.));
#924=CARTESIAN_POINT('Origin',(33.0000000000002,84.5634572681201,22.));
#925=CARTESIAN_POINT('',(67.6410161513776,104.56345726812,22.));
#926=CARTESIAN_POINT('',(65.9089653438087,103.56345726812,24.));
#927=CARTESIAN_POINT('Origin',(65.9089653438087,103.56345726812,22.));
#928=CARTESIAN_POINT('Origin',(33.0000000000002,84.5634572681201,24.));
#929=CARTESIAN_POINT('Origin',(33.0000000000002,84.5634572681201,22.));
#930=CARTESIAN_POINT('Origin',(69.5514518559069,97.2544855632816,22.));
#931=CARTESIAN_POINT('',(51.157849302036,133.113139720815,22.));
#932=CARTESIAN_POINT('',(49.4257984944672,132.113139720815,24.));
#933=CARTESIAN_POINT('Origin',(49.4257984944672,132.113139720815,22.));
#934=CARTESIAN_POINT('',(69.5514518559069,97.2544855632816,24.));
#935=CARTESIAN_POINT('',(71.2835026634758,98.2544855632816,22.));
#936=CARTESIAN_POINT('Origin',(46.8277222831139,130.613139720815,22.));
#937=CARTESIAN_POINT('',(44.3277222831139,134.943266739737,22.));
#938=CARTESIAN_POINT('',(45.3277222831139,133.211215932168,24.));
#939=CARTESIAN_POINT('Origin',(45.3277222831139,133.211215932168,22.));
#940=CARTESIAN_POINT('Origin',(46.8277222831139,130.613139720815,24.));
#941=CARTESIAN_POINT('Origin',(46.8277222831139,130.613139720815,22.));
#942=CARTESIAN_POINT('Origin',(36.1141265113747,127.89174393315,22.));
#943=CARTESIAN_POINT('',(31.3373412263473,127.443266739737,22.));
#944=CARTESIAN_POINT('',(32.3373412263473,125.711215932168,24.));
#945=CARTESIAN_POINT('Origin',(32.3373412263473,125.711215932168,22.));
#946=CARTESIAN_POINT('',(36.1141265113747,127.89174393315,24.));
#947=CARTESIAN_POINT('',(35.1141265113747,129.623794740719,22.));
#948=CARTESIAN_POINT('Origin',(52.1686706131737,78.8065698604074,24.));
#949=CARTESIAN_POINT('',(33.6373412263472,123.459549882328,24.));
#950=CARTESIAN_POINT('',(44.4714111631162,104.69439029909,24.));
#951=CARTESIAN_POINT('',(44.4626587736528,129.709549882328,24.));
#952=CARTESIAN_POINT('',(30.9189359829915,121.890077883311,24.));
#953=CARTESIAN_POINT('',(56.7126587736527,108.49192748961,24.));
#954=CARTESIAN_POINT('',(56.4467287104217,108.952531870386,24.));
#955=CARTESIAN_POINT('',(48.5815947566442,103.797455490592,24.));
#956=CARTESIAN_POINT('',(37.35,127.970190528384,24.));
#957=CARTESIAN_POINT('Origin',(38.25,127.970190528384,24.));
#958=CARTESIAN_POINT('',(51.2,103.981286843555,24.));
#959=CARTESIAN_POINT('Origin',(52.1,103.981286843555,24.));
#960=CARTESIAN_POINT('Origin',(31.3373412263473,127.443266739737,14.));
#961=CARTESIAN_POINT('',(33.6373412263472,123.459549882328,14.));
#962=CARTESIAN_POINT('',(31.3373412263473,127.443266739737,14.));
#963=CARTESIAN_POINT('Origin',(38.25,127.970190528384,14.));
#964=CARTESIAN_POINT('',(37.35,127.970190528384,14.));
#965=CARTESIAN_POINT('Origin',(52.1,103.981286843555,14.));
#966=CARTESIAN_POINT('',(51.2,103.981286843555,14.));
#967=CARTESIAN_POINT('Origin',(56.7126587736527,108.49192748961,14.));
#968=CARTESIAN_POINT('',(56.7126587736527,108.49192748961,14.));
#969=CARTESIAN_POINT('Origin',(44.4626587736528,129.709549882328,14.));
#970=CARTESIAN_POINT('',(44.4626587736528,129.709549882328,14.));
#971=CARTESIAN_POINT('Origin',(33.6373412263472,123.459549882328,14.));
#972=CARTESIAN_POINT('Origin',(44.3277222831139,134.943266739737,14.));
#973=CARTESIAN_POINT('',(44.3277222831139,134.943266739737,14.));
#974=CARTESIAN_POINT('Origin',(46.8277222831139,130.613139720815,14.));
#975=CARTESIAN_POINT('',(51.157849302036,133.113139720815,14.));
#976=CARTESIAN_POINT('Origin',(67.6410161513776,104.56345726812,14.));
#977=CARTESIAN_POINT('',(67.6410161513776,104.56345726812,14.));
#978=CARTESIAN_POINT('Origin',(33.0000000000002,84.5634572681201,14.));
#979=CARTESIAN_POINT('',(73.,84.5634572681201,14.));
#980=CARTESIAN_POINT('Origin',(73.,22.0000000000001,14.));
#981=UNCERTAINTY_MEASURE_WITH_UNIT(LENGTH_MEASURE(0.01),#985,
'DISTANCE_ACCURACY_VALUE',
'Maximum model space distance between geometric entities at asserted c
onnectivities');
#982=UNCERTAINTY_MEASURE_WITH_UNIT(LENGTH_MEASURE(0.01),#985,
'DISTANCE_ACCURACY_VALUE',
'Maximum model space distance between geometric entities at asserted c
onnectivities');
#983=(
GEOMETRIC_REPRESENTATION_CONTEXT(3)
GLOBAL_UNCERTAINTY_ASSIGNED_CONTEXT((#981))
GLOBAL_UNIT_ASSIGNED_CONTEXT((#985,#986,#987))
REPRESENTATION_CONTEXT('','3D')
);
#984=(
GEOMETRIC_REPRESENTATION_CONTEXT(3)
GLOBAL_UNCERTAINTY_ASSIGNED_CONTEXT((#982))
GLOBAL_UNIT_ASSIGNED_CONTEXT((#985,#986,#987))
REPRESENTATION_CONTEXT('','3D')
);
#985=(
LENGTH_UNIT()
NAMED_UNIT(*)
SI_UNIT(.MILLI.,.METRE.)
);
#986=(
NAMED_UNIT(*)
PLANE_ANGLE_UNIT()
SI_UNIT($,.RADIAN.)
);
#987=(
NAMED_UNIT(*)
SI_UNIT($,.STERADIAN.)
SOLID_ANGLE_UNIT()
);
#988=SHAPE_DEFINITION_REPRESENTATION(#989,#990);
#989=PRODUCT_DEFINITION_SHAPE('',$,#992);
#990=SHAPE_REPRESENTATION('',(#589),#983);
#991=PRODUCT_DEFINITION_CONTEXT('part definition',#996,'design');
#992=PRODUCT_DEFINITION('pan','pan v49',#993,#991);
#993=PRODUCT_DEFINITION_FORMATION('',$,#998);
#994=PRODUCT_RELATED_PRODUCT_CATEGORY('pan v49','pan v49',(#998));
#995=APPLICATION_PROTOCOL_DEFINITION('international standard',
'automotive_design',2009,#996);
#996=APPLICATION_CONTEXT(
'Core Data for Automotive Mechanical Design Process');
#997=PRODUCT_CONTEXT('part definition',#996,'mechanical');
#998=PRODUCT('pan','pan v49',$,(#997));
#999=PRESENTATION_STYLE_ASSIGNMENT((#1000));
#1000=SURFACE_STYLE_USAGE(.BOTH.,#1001);
#1001=SURFACE_SIDE_STYLE('',(#1002));
#1002=SURFACE_STYLE_FILL_AREA(#1003);
#1003=FILL_AREA_STYLE('Acero - Satinado',(#1004));
#1004=FILL_AREA_STYLE_COLOUR('Acero - Satinado',#1005);
#1005=COLOUR_RGB('Acero - Satinado',0.627450980392157,0.627450980392157,
0.627450980392157);
ENDSEC;
END-ISO-10303-21;
