ISO-10303-21;
HEADER;
/* Generated by software containing ST-Developer
 * from STEP Tools, Inc. (www.steptools.com) 
 */

FILE_DESCRIPTION(
/* description */ (''),
/* implementation_level */ '2;1');

FILE_NAME(
/* name */ 'pan.step',
/* time_stamp */ '2026-10-04T17:17:19+02:00',
/* author */ (''),
/* organization */ (''),
/* preprocessor_version */ 'ST-DEVELOPER v20.2',
/* originating_system */ 'Autodesk Translation Framework v15.15.0.0',
/* authorisation */ '');

FILE_SCHEMA (('AUTOMOTIVE_DESIGN { 1 0 10303 214 3 1 1 }'));
ENDSEC;

DATA;
#10=MECHANICAL_DESIGN_GEOMETRIC_PRESENTATION_REPRESENTATION('',(#13),#1566);
#11=SHAPE_REPRESENTATION_RELATIONSHIP('SRR','None',#1572,#12);
#12=ADVANCED_BREP_SHAPE_REPRESENTATION('',(#14),#1565);
#13=STYLED_ITEM('',(#1581),#14);
#14=MANIFOLD_SOLID_BREP('Cuerpo1',#934);
#15=TOROIDAL_SURFACE('',#984,32.,8.);
#16=TOROIDAL_SURFACE('',#992,39.5,8.);
#17=B_SPLINE_CURVE_WITH_KNOTS('',3,(#1386,#1387,#1388,#1389,#1390,#1391,
#1392,#1393,#1394,#1395,#1396,#1397,#1398),.UNSPECIFIED.,.F.,.F.,(4,2,3,
2,2,4),(-0.153019926755836,-0.0794072914767955,0.,0.0489296899121616,0.0997840814211464,
0.157512222595355),.UNSPECIFIED.);
#18=B_SPLINE_CURVE_WITH_KNOTS('',3,(#1458,#1459,#1460,#1461),
 .UNSPECIFIED.,.F.,.F.,(4,4),(4.93886212358234,4.94364507218357),
 .UNSPECIFIED.);
#19=CYLINDRICAL_SURFACE('',#955,2.);
#20=CYLINDRICAL_SURFACE('',#959,2.);
#21=CYLINDRICAL_SURFACE('',#963,2.);
#22=CYLINDRICAL_SURFACE('',#965,2.);
#23=CYLINDRICAL_SURFACE('',#968,2.);
#24=CYLINDRICAL_SURFACE('',#972,2.);
#25=CYLINDRICAL_SURFACE('',#976,2.);
#26=CYLINDRICAL_SURFACE('',#980,2.);
#27=CYLINDRICAL_SURFACE('',#990,8.);
#28=CYLINDRICAL_SURFACE('',#996,8.);
#29=CYLINDRICAL_SURFACE('',#1002,40.);
#30=CYLINDRICAL_SURFACE('',#1017,0.900000000000003);
#31=CYLINDRICAL_SURFACE('',#1018,0.899999999999999);
#32=CYLINDRICAL_SURFACE('',#1019,4.1);
#33=CYLINDRICAL_SURFACE('',#1021,47.5);
#34=CONICAL_SURFACE('',#944,3.00000000000005,0.785398163397425);
#35=CONICAL_SURFACE('',#957,3.,0.785398163397449);
#36=CONICAL_SURFACE('',#961,3.,0.785398163397447);
#37=FACE_BOUND('',#147,.T.);
#38=FACE_BOUND('',#150,.T.);
#39=FACE_BOUND('',#151,.T.);
#40=FACE_BOUND('',#152,.T.);
#41=FACE_BOUND('',#153,.T.);
#42=FACE_BOUND('',#154,.T.);
#43=FACE_BOUND('',#155,.T.);
#44=FACE_BOUND('',#156,.T.);
#45=FACE_BOUND('',#176,.T.);
#46=FACE_BOUND('',#177,.T.);
#47=FACE_BOUND('',#178,.T.);
#48=FACE_BOUND('',#179,.T.);
#49=FACE_BOUND('',#180,.T.);
#50=FACE_BOUND('',#181,.T.);
#51=FACE_BOUND('',#189,.T.);
#52=FACE_BOUND('',#193,.T.);
#53=FACE_BOUND('',#197,.T.);
#54=CIRCLE('',#943,4.1);
#55=CIRCLE('',#945,4.00000000000009);
#56=CIRCLE('',#946,2.);
#57=CIRCLE('',#948,47.5);
#58=CIRCLE('',#949,40.);
#59=CIRCLE('',#950,4.);
#60=CIRCLE('',#951,0.900000000000003);
#61=CIRCLE('',#952,0.899999999999999);
#62=CIRCLE('',#953,4.1);
#63=CIRCLE('',#954,4.);
#64=CIRCLE('',#956,2.);
#65=CIRCLE('',#958,2.);
#66=CIRCLE('',#960,2.);
#67=CIRCLE('',#962,2.);
#68=CIRCLE('',#964,2.);
#69=CIRCLE('',#966,2.);
#70=CIRCLE('',#967,2.);
#71=CIRCLE('',#969,2.);
#72=CIRCLE('',#970,2.);
#73=CIRCLE('',#973,2.);
#74=CIRCLE('',#974,2.);
#75=CIRCLE('',#977,2.);
#76=CIRCLE('',#978,2.);
#77=CIRCLE('',#981,2.);
#78=CIRCLE('',#982,2.);
#79=CIRCLE('',#985,32.);
#80=CIRCLE('',#986,8.);
#81=CIRCLE('',#987,40.);
#82=CIRCLE('',#988,8.00000000000001);
#83=CIRCLE('',#989,32.);
#84=CIRCLE('',#991,8.);
#85=CIRCLE('',#993,8.00000000000001);
#86=CIRCLE('',#994,39.5);
#87=CIRCLE('',#995,47.5);
#88=CIRCLE('',#998,0.900000000000003);
#89=CIRCLE('',#999,0.899999999999999);
#90=FACE_OUTER_BOUND('',#140,.T.);
#91=FACE_OUTER_BOUND('',#141,.T.);
#92=FACE_OUTER_BOUND('',#142,.T.);
#93=FACE_OUTER_BOUND('',#143,.T.);
#94=FACE_OUTER_BOUND('',#144,.T.);
#95=FACE_OUTER_BOUND('',#145,.T.);
#96=FACE_OUTER_BOUND('',#146,.T.);
#97=FACE_OUTER_BOUND('',#148,.T.);
#98=FACE_OUTER_BOUND('',#149,.T.);
#99=FACE_OUTER_BOUND('',#157,.T.);
#100=FACE_OUTER_BOUND('',#158,.T.);
#101=FACE_OUTER_BOUND('',#159,.T.);
#102=FACE_OUTER_BOUND('',#160,.T.);
#103=FACE_OUTER_BOUND('',#161,.T.);
#104=FACE_OUTER_BOUND('',#162,.T.);
#105=FACE_OUTER_BOUND('',#163,.T.);
#106=FACE_OUTER_BOUND('',#164,.T.);
#107=FACE_OUTER_BOUND('',#165,.T.);
#108=FACE_OUTER_BOUND('',#166,.T.);
#109=FACE_OUTER_BOUND('',#167,.T.);
#110=FACE_OUTER_BOUND('',#168,.T.);
#111=FACE_OUTER_BOUND('',#169,.T.);
#112=FACE_OUTER_BOUND('',#170,.T.);
#113=FACE_OUTER_BOUND('',#171,.T.);
#114=FACE_OUTER_BOUND('',#172,.T.);
#115=FACE_OUTER_BOUND('',#173,.T.);
#116=FACE_OUTER_BOUND('',#174,.T.);
#117=FACE_OUTER_BOUND('',#175,.T.);
#118=FACE_OUTER_BOUND('',#182,.T.);
#119=FACE_OUTER_BOUND('',#183,.T.);
#120=FACE_OUTER_BOUND('',#184,.T.);
#121=FACE_OUTER_BOUND('',#185,.T.);
#122=FACE_OUTER_BOUND('',#186,.T.);
#123=FACE_OUTER_BOUND('',#187,.T.);
#124=FACE_OUTER_BOUND('',#188,.T.);
#125=FACE_OUTER_BOUND('',#190,.T.);
#126=FACE_OUTER_BOUND('',#191,.T.);
#127=FACE_OUTER_BOUND('',#192,.T.);
#128=FACE_OUTER_BOUND('',#194,.T.);
#129=FACE_OUTER_BOUND('',#195,.T.);
#130=FACE_OUTER_BOUND('',#196,.T.);
#131=FACE_OUTER_BOUND('',#198,.T.);
#132=FACE_OUTER_BOUND('',#199,.T.);
#133=FACE_OUTER_BOUND('',#200,.T.);
#134=FACE_OUTER_BOUND('',#201,.T.);
#135=FACE_OUTER_BOUND('',#202,.T.);
#136=FACE_OUTER_BOUND('',#203,.T.);
#137=FACE_OUTER_BOUND('',#204,.T.);
#138=FACE_OUTER_BOUND('',#205,.T.);
#139=FACE_OUTER_BOUND('',#206,.T.);
#140=EDGE_LOOP('',(#598,#599,#600,#601));
#141=EDGE_LOOP('',(#602,#603,#604,#605));
#142=EDGE_LOOP('',(#606,#607,#608,#609));
#143=EDGE_LOOP('',(#610,#611,#612,#613));
#144=EDGE_LOOP('',(#614,#615,#616,#617));
#145=EDGE_LOOP('',(#618,#619,#620,#621));
#146=EDGE_LOOP('',(#622,#623,#624,#625,#626,#627));
#147=EDGE_LOOP('',(#628));
#148=EDGE_LOOP('',(#629,#630,#631,#632));
#149=EDGE_LOOP('',(#633,#634,#635,#636));
#150=EDGE_LOOP('',(#637));
#151=EDGE_LOOP('',(#638,#639,#640,#641));
#152=EDGE_LOOP('',(#642));
#153=EDGE_LOOP('',(#643));
#154=EDGE_LOOP('',(#644));
#155=EDGE_LOOP('',(#645));
#156=EDGE_LOOP('',(#646));
#157=EDGE_LOOP('',(#647,#648,#649,#650));
#158=EDGE_LOOP('',(#651,#652,#653,#654));
#159=EDGE_LOOP('',(#655,#656,#657,#658));
#160=EDGE_LOOP('',(#659,#660,#661,#662));
#161=EDGE_LOOP('',(#663,#664,#665,#666));
#162=EDGE_LOOP('',(#667,#668,#669,#670,#671));
#163=EDGE_LOOP('',(#672,#673,#674,#675));
#164=EDGE_LOOP('',(#676,#677,#678,#679));
#165=EDGE_LOOP('',(#680,#681,#682,#683));
#166=EDGE_LOOP('',(#684,#685,#686,#687));
#167=EDGE_LOOP('',(#688,#689,#690,#691));
#168=EDGE_LOOP('',(#692,#693,#694,#695));
#169=EDGE_LOOP('',(#696,#697,#698,#699));
#170=EDGE_LOOP('',(#700,#701,#702,#703));
#171=EDGE_LOOP('',(#704,#705,#706,#707,#708,#709,#710));
#172=EDGE_LOOP('',(#711,#712,#713,#714));
#173=EDGE_LOOP('',(#715,#716,#717,#718));
#174=EDGE_LOOP('',(#719,#720,#721,#722));
#175=EDGE_LOOP('',(#723,#724,#725,#726,#727,#728,#729,#730,#731,#732));
#176=EDGE_LOOP('',(#733,#734,#735,#736,#737,#738));
#177=EDGE_LOOP('',(#739,#740,#741,#742));
#178=EDGE_LOOP('',(#743));
#179=EDGE_LOOP('',(#744));
#180=EDGE_LOOP('',(#745,#746,#747,#748,#749,#750));
#181=EDGE_LOOP('',(#751,#752,#753,#754,#755,#756));
#182=EDGE_LOOP('',(#757,#758,#759,#760,#761));
#183=EDGE_LOOP('',(#762,#763,#764,#765));
#184=EDGE_LOOP('',(#766,#767,#768,#769));
#185=EDGE_LOOP('',(#770,#771,#772,#773));
#186=EDGE_LOOP('',(#774,#775,#776,#777));
#187=EDGE_LOOP('',(#778,#779,#780,#781));
#188=EDGE_LOOP('',(#782,#783,#784,#785,#786));
#189=EDGE_LOOP('',(#787));
#190=EDGE_LOOP('',(#788,#789,#790,#791));
#191=EDGE_LOOP('',(#792,#793,#794,#795));
#192=EDGE_LOOP('',(#796,#797,#798,#799,#800,#801));
#193=EDGE_LOOP('',(#802));
#194=EDGE_LOOP('',(#803,#804,#805,#806));
#195=EDGE_LOOP('',(#807,#808,#809,#810));
#196=EDGE_LOOP('',(#811,#812,#813,#814,#815,#816));
#197=EDGE_LOOP('',(#817));
#198=EDGE_LOOP('',(#818,#819,#820,#821));
#199=EDGE_LOOP('',(#822,#823,#824,#825));
#200=EDGE_LOOP('',(#826,#827,#828,#829));
#201=EDGE_LOOP('',(#830,#831,#832,#833));
#202=EDGE_LOOP('',(#834,#835,#836,#837));
#203=EDGE_LOOP('',(#838,#839,#840,#841));
#204=EDGE_LOOP('',(#842,#843,#844,#845));
#205=EDGE_LOOP('',(#846,#847,#848,#849));
#206=EDGE_LOOP('',(#850,#851,#852,#853));
#207=LINE('',#1290,#297);
#208=LINE('',#1292,#298);
#209=LINE('',#1294,#299);
#210=LINE('',#1295,#300);
#211=LINE('',#1298,#301);
#212=LINE('',#1300,#302);
#213=LINE('',#1301,#303);
#214=LINE('',#1304,#304);
#215=LINE('',#1306,#305);
#216=LINE('',#1307,#306);
#217=LINE('',#1310,#307);
#218=LINE('',#1312,#308);
#219=LINE('',#1313,#309);
#220=LINE('',#1316,#310);
#221=LINE('',#1318,#311);
#222=LINE('',#1319,#312);
#223=LINE('',#1321,#313);
#224=LINE('',#1322,#314);
#225=LINE('',#1330,#315);
#226=LINE('',#1337,#316);
#227=LINE('',#1340,#317);
#228=LINE('',#1345,#318);
#229=LINE('',#1347,#319);
#230=LINE('',#1349,#320);
#231=LINE('',#1350,#321);
#232=LINE('',#1361,#322);
#233=LINE('',#1365,#323);
#234=LINE('',#1369,#324);
#235=LINE('',#1373,#325);
#236=LINE('',#1377,#326);
#237=LINE('',#1384,#327);
#238=LINE('',#1401,#328);
#239=LINE('',#1407,#329);
#240=LINE('',#1410,#330);
#241=LINE('',#1413,#331);
#242=LINE('',#1415,#332);
#243=LINE('',#1416,#333);
#244=LINE('',#1422,#334);
#245=LINE('',#1425,#335);
#246=LINE('',#1427,#336);
#247=LINE('',#1428,#337);
#248=LINE('',#1434,#338);
#249=LINE('',#1437,#339);
#250=LINE('',#1440,#340);
#251=LINE('',#1442,#341);
#252=LINE('',#1443,#342);
#253=LINE('',#1449,#343);
#254=LINE('',#1452,#344);
#255=LINE('',#1454,#345);
#256=LINE('',#1455,#346);
#257=LINE('',#1475,#347);
#258=LINE('',#1476,#348);
#259=LINE('',#1484,#349);
#260=LINE('',#1485,#350);
#261=LINE('',#1488,#351);
#262=LINE('',#1490,#352);
#263=LINE('',#1492,#353);
#264=LINE('',#1493,#354);
#265=LINE('',#1496,#355);
#266=LINE('',#1498,#356);
#267=LINE('',#1500,#357);
#268=LINE('',#1501,#358);
#269=LINE('',#1507,#359);
#270=LINE('',#1508,#360);
#271=LINE('',#1510,#361);
#272=LINE('',#1511,#362);
#273=LINE('',#1514,#363);
#274=LINE('',#1515,#364);
#275=LINE('',#1517,#365);
#276=LINE('',#1518,#366);
#277=LINE('',#1520,#367);
#278=LINE('',#1523,#368);
#279=LINE('',#1524,#369);
#280=LINE('',#1527,#370);
#281=LINE('',#1528,#371);
#282=LINE('',#1530,#372);
#283=LINE('',#1534,#373);
#284=LINE('',#1535,#374);
#285=LINE('',#1537,#375);
#286=LINE('',#1541,#376);
#287=LINE('',#1542,#377);
#288=LINE('',#1544,#378);
#289=LINE('',#1547,#379);
#290=LINE('',#1548,#380);
#291=LINE('',#1550,#381);
#292=LINE('',#1552,#382);
#293=LINE('',#1555,#383);
#294=LINE('',#1557,#384);
#295=LINE('',#1559,#385);
#296=LINE('',#1561,#386);
#297=VECTOR('',#1026,10.);
#298=VECTOR('',#1027,10.);
#299=VECTOR('',#1028,10.);
#300=VECTOR('',#1029,10.);
#301=VECTOR('',#1032,10.);
#302=VECTOR('',#1033,10.);
#303=VECTOR('',#1034,10.);
#304=VECTOR('',#1037,10.);
#305=VECTOR('',#1038,10.);
#306=VECTOR('',#1039,10.);
#307=VECTOR('',#1042,10.);
#308=VECTOR('',#1043,10.);
#309=VECTOR('',#1044,10.);
#310=VECTOR('',#1047,10.);
#311=VECTOR('',#1048,10.);
#312=VECTOR('',#1049,10.);
#313=VECTOR('',#1052,10.);
#314=VECTOR('',#1053,10.);
#315=VECTOR('',#1062,3.00000000000005);
#316=VECTOR('',#1069,10.);
#317=VECTOR('',#1072,10.);
#318=VECTOR('',#1075,10.);
#319=VECTOR('',#1076,10.);
#320=VECTOR('',#1077,10.);
#321=VECTOR('',#1078,10.);
#322=VECTOR('',#1089,2.);
#323=VECTOR('',#1094,3.);
#324=VECTOR('',#1099,2.);
#325=VECTOR('',#1104,3.);
#326=VECTOR('',#1109,2.);
#327=VECTOR('',#1116,10.);
#328=VECTOR('',#1119,10.);
#329=VECTOR('',#1124,10.);
#330=VECTOR('',#1127,10.);
#331=VECTOR('',#1130,10.);
#332=VECTOR('',#1131,10.);
#333=VECTOR('',#1132,10.);
#334=VECTOR('',#1139,10.);
#335=VECTOR('',#1142,10.);
#336=VECTOR('',#1143,10.);
#337=VECTOR('',#1144,10.);
#338=VECTOR('',#1149,10.);
#339=VECTOR('',#1152,10.);
#340=VECTOR('',#1155,10.);
#341=VECTOR('',#1156,10.);
#342=VECTOR('',#1157,10.);
#343=VECTOR('',#1162,10.);
#344=VECTOR('',#1165,10.);
#345=VECTOR('',#1168,10.);
#346=VECTOR('',#1169,10.);
#347=VECTOR('',#1186,10.);
#348=VECTOR('',#1187,10.);
#349=VECTOR('',#1198,10.);
#350=VECTOR('',#1199,10.);
#351=VECTOR('',#1202,10.);
#352=VECTOR('',#1203,10.);
#353=VECTOR('',#1204,10.);
#354=VECTOR('',#1205,10.);
#355=VECTOR('',#1206,10.);
#356=VECTOR('',#1207,10.);
#357=VECTOR('',#1208,10.);
#358=VECTOR('',#1209,10.);
#359=VECTOR('',#1214,10.);
#360=VECTOR('',#1215,10.);
#361=VECTOR('',#1216,10.);
#362=VECTOR('',#1217,10.);
#363=VECTOR('',#1220,10.);
#364=VECTOR('',#1221,10.);
#365=VECTOR('',#1224,10.);
#366=VECTOR('',#1225,10.);
#367=VECTOR('',#1228,10.);
#368=VECTOR('',#1231,10.);
#369=VECTOR('',#1232,10.);
#370=VECTOR('',#1235,10.);
#371=VECTOR('',#1236,10.);
#372=VECTOR('',#1239,10.);
#373=VECTOR('',#1244,10.);
#374=VECTOR('',#1245,10.);
#375=VECTOR('',#1248,10.);
#376=VECTOR('',#1253,10.);
#377=VECTOR('',#1254,10.);
#378=VECTOR('',#1257,10.);
#379=VECTOR('',#1262,10.);
#380=VECTOR('',#1263,10.);
#381=VECTOR('',#1266,10.);
#382=VECTOR('',#1269,10.);
#383=VECTOR('',#1274,0.900000000000003);
#384=VECTOR('',#1277,0.899999999999999);
#385=VECTOR('',#1280,4.1);
#386=VECTOR('',#1283,10.);
#387=VERTEX_POINT('',#1288);
#388=VERTEX_POINT('',#1289);
#389=VERTEX_POINT('',#1291);
#390=VERTEX_POINT('',#1293);
#391=VERTEX_POINT('',#1297);
#392=VERTEX_POINT('',#1299);
#393=VERTEX_POINT('',#1303);
#394=VERTEX_POINT('',#1305);
#395=VERTEX_POINT('',#1309);
#396=VERTEX_POINT('',#1311);
#397=VERTEX_POINT('',#1315);
#398=VERTEX_POINT('',#1317);
#399=VERTEX_POINT('',#1324);
#400=VERTEX_POINT('',#1327);
#401=VERTEX_POINT('',#1329);
#402=VERTEX_POINT('',#1333);
#403=VERTEX_POINT('',#1334);
#404=VERTEX_POINT('',#1336);
#405=VERTEX_POINT('',#1338);
#406=VERTEX_POINT('',#1341);
#407=VERTEX_POINT('',#1343);
#408=VERTEX_POINT('',#1344);
#409=VERTEX_POINT('',#1346);
#410=VERTEX_POINT('',#1348);
#411=VERTEX_POINT('',#1351);
#412=VERTEX_POINT('',#1353);
#413=VERTEX_POINT('',#1355);
#414=VERTEX_POINT('',#1357);
#415=VERTEX_POINT('',#1360);
#416=VERTEX_POINT('',#1364);
#417=VERTEX_POINT('',#1368);
#418=VERTEX_POINT('',#1372);
#419=VERTEX_POINT('',#1376);
#420=VERTEX_POINT('',#1380);
#421=VERTEX_POINT('',#1381);
#422=VERTEX_POINT('',#1383);
#423=VERTEX_POINT('',#1385);
#424=VERTEX_POINT('',#1399);
#425=VERTEX_POINT('',#1403);
#426=VERTEX_POINT('',#1404);
#427=VERTEX_POINT('',#1406);
#428=VERTEX_POINT('',#1408);
#429=VERTEX_POINT('',#1412);
#430=VERTEX_POINT('',#1414);
#431=VERTEX_POINT('',#1418);
#432=VERTEX_POINT('',#1420);
#433=VERTEX_POINT('',#1424);
#434=VERTEX_POINT('',#1426);
#435=VERTEX_POINT('',#1430);
#436=VERTEX_POINT('',#1431);
#437=VERTEX_POINT('',#1433);
#438=VERTEX_POINT('',#1435);
#439=VERTEX_POINT('',#1439);
#440=VERTEX_POINT('',#1441);
#441=VERTEX_POINT('',#1445);
#442=VERTEX_POINT('',#1446);
#443=VERTEX_POINT('',#1448);
#444=VERTEX_POINT('',#1450);
#445=VERTEX_POINT('',#1457);
#446=VERTEX_POINT('',#1462);
#447=VERTEX_POINT('',#1464);
#448=VERTEX_POINT('',#1466);
#449=VERTEX_POINT('',#1468);
#450=VERTEX_POINT('',#1472);
#451=VERTEX_POINT('',#1473);
#452=VERTEX_POINT('',#1478);
#453=VERTEX_POINT('',#1479);
#454=VERTEX_POINT('',#1487);
#455=VERTEX_POINT('',#1489);
#456=VERTEX_POINT('',#1491);
#457=VERTEX_POINT('',#1494);
#458=VERTEX_POINT('',#1495);
#459=VERTEX_POINT('',#1497);
#460=VERTEX_POINT('',#1499);
#461=VERTEX_POINT('',#1502);
#462=VERTEX_POINT('',#1504);
#463=VERTEX_POINT('',#1506);
#464=VERTEX_POINT('',#1509);
#465=VERTEX_POINT('',#1513);
#466=VERTEX_POINT('',#1522);
#467=VERTEX_POINT('',#1526);
#468=VERTEX_POINT('',#1533);
#469=VERTEX_POINT('',#1540);
#470=EDGE_CURVE('',#387,#388,#207,.T.);
#471=EDGE_CURVE('',#387,#389,#208,.T.);
#472=EDGE_CURVE('',#389,#390,#209,.T.);
#473=EDGE_CURVE('',#388,#390,#210,.T.);
#474=EDGE_CURVE('',#391,#387,#211,.T.);
#475=EDGE_CURVE('',#391,#392,#212,.T.);
#476=EDGE_CURVE('',#392,#389,#213,.T.);
#477=EDGE_CURVE('',#393,#391,#214,.T.);
#478=EDGE_CURVE('',#393,#394,#215,.T.);
#479=EDGE_CURVE('',#394,#392,#216,.T.);
#480=EDGE_CURVE('',#395,#393,#217,.T.);
#481=EDGE_CURVE('',#395,#396,#218,.T.);
#482=EDGE_CURVE('',#396,#394,#219,.T.);
#483=EDGE_CURVE('',#397,#395,#220,.T.);
#484=EDGE_CURVE('',#397,#398,#221,.T.);
#485=EDGE_CURVE('',#398,#396,#222,.T.);
#486=EDGE_CURVE('',#388,#397,#223,.T.);
#487=EDGE_CURVE('',#390,#398,#224,.T.);
#488=EDGE_CURVE('',#399,#399,#54,.T.);
#489=EDGE_CURVE('',#400,#400,#55,.T.);
#490=EDGE_CURVE('',#400,#401,#225,.T.);
#491=EDGE_CURVE('',#401,#401,#56,.T.);
#492=EDGE_CURVE('',#402,#403,#57,.T.);
#493=EDGE_CURVE('',#402,#404,#226,.T.);
#494=EDGE_CURVE('',#405,#404,#58,.T.);
#495=EDGE_CURVE('',#405,#403,#227,.T.);
#496=EDGE_CURVE('',#406,#406,#59,.T.);
#497=EDGE_CURVE('',#407,#408,#228,.T.);
#498=EDGE_CURVE('',#409,#407,#229,.T.);
#499=EDGE_CURVE('',#410,#409,#230,.T.);
#500=EDGE_CURVE('',#408,#410,#231,.T.);
#501=EDGE_CURVE('',#411,#411,#60,.T.);
#502=EDGE_CURVE('',#412,#412,#61,.T.);
#503=EDGE_CURVE('',#413,#413,#62,.T.);
#504=EDGE_CURVE('',#414,#414,#63,.T.);
#505=EDGE_CURVE('',#401,#415,#232,.T.);
#506=EDGE_CURVE('',#415,#415,#64,.T.);
#507=EDGE_CURVE('',#406,#416,#233,.T.);
#508=EDGE_CURVE('',#416,#416,#65,.T.);
#509=EDGE_CURVE('',#416,#417,#234,.T.);
#510=EDGE_CURVE('',#417,#417,#66,.T.);
#511=EDGE_CURVE('',#414,#418,#235,.T.);
#512=EDGE_CURVE('',#418,#418,#67,.T.);
#513=EDGE_CURVE('',#418,#419,#236,.T.);
#514=EDGE_CURVE('',#419,#419,#68,.T.);
#515=EDGE_CURVE('',#420,#421,#69,.T.);
#516=EDGE_CURVE('',#420,#422,#237,.T.);
#517=EDGE_CURVE('',#423,#422,#17,.F.);
#518=EDGE_CURVE('',#424,#423,#70,.F.);
#519=EDGE_CURVE('',#424,#421,#238,.T.);
#520=EDGE_CURVE('',#425,#426,#71,.T.);
#521=EDGE_CURVE('',#425,#427,#239,.T.);
#522=EDGE_CURVE('',#427,#428,#72,.T.);
#523=EDGE_CURVE('',#428,#426,#240,.T.);
#524=EDGE_CURVE('',#429,#428,#241,.T.);
#525=EDGE_CURVE('',#430,#429,#242,.T.);
#526=EDGE_CURVE('',#430,#426,#243,.T.);
#527=EDGE_CURVE('',#430,#431,#73,.T.);
#528=EDGE_CURVE('',#429,#432,#74,.T.);
#529=EDGE_CURVE('',#432,#431,#244,.T.);
#530=EDGE_CURVE('',#433,#432,#245,.T.);
#531=EDGE_CURVE('',#433,#434,#246,.T.);
#532=EDGE_CURVE('',#434,#431,#247,.T.);
#533=EDGE_CURVE('',#435,#436,#75,.T.);
#534=EDGE_CURVE('',#435,#437,#248,.T.);
#535=EDGE_CURVE('',#437,#438,#76,.T.);
#536=EDGE_CURVE('',#438,#436,#249,.T.);
#537=EDGE_CURVE('',#439,#438,#250,.T.);
#538=EDGE_CURVE('',#439,#440,#251,.T.);
#539=EDGE_CURVE('',#440,#436,#252,.T.);
#540=EDGE_CURVE('',#441,#442,#77,.T.);
#541=EDGE_CURVE('',#441,#443,#253,.T.);
#542=EDGE_CURVE('',#443,#444,#78,.T.);
#543=EDGE_CURVE('',#444,#442,#254,.T.);
#544=EDGE_CURVE('',#435,#442,#255,.T.);
#545=EDGE_CURVE('',#437,#444,#256,.T.);
#546=EDGE_CURVE('',#422,#445,#18,.T.);
#547=EDGE_CURVE('',#445,#446,#79,.T.);
#548=EDGE_CURVE('',#446,#447,#80,.T.);
#549=EDGE_CURVE('',#447,#448,#81,.T.);
#550=EDGE_CURVE('',#448,#449,#82,.T.);
#551=EDGE_CURVE('',#423,#449,#83,.T.);
#552=EDGE_CURVE('',#450,#451,#84,.T.);
#553=EDGE_CURVE('',#451,#449,#257,.T.);
#554=EDGE_CURVE('',#448,#450,#258,.T.);
#555=EDGE_CURVE('',#452,#453,#85,.T.);
#556=EDGE_CURVE('',#453,#451,#86,.T.);
#557=EDGE_CURVE('',#450,#452,#87,.T.);
#558=EDGE_CURVE('',#446,#453,#259,.T.);
#559=EDGE_CURVE('',#452,#447,#260,.T.);
#560=EDGE_CURVE('',#445,#454,#261,.T.);
#561=EDGE_CURVE('',#454,#455,#262,.T.);
#562=EDGE_CURVE('',#455,#456,#263,.T.);
#563=EDGE_CURVE('',#456,#424,#264,.T.);
#564=EDGE_CURVE('',#457,#458,#265,.T.);
#565=EDGE_CURVE('',#458,#459,#266,.T.);
#566=EDGE_CURVE('',#459,#460,#267,.T.);
#567=EDGE_CURVE('',#460,#457,#268,.T.);
#568=EDGE_CURVE('',#461,#461,#88,.T.);
#569=EDGE_CURVE('',#462,#462,#89,.T.);
#570=EDGE_CURVE('',#427,#463,#269,.T.);
#571=EDGE_CURVE('',#463,#433,#270,.T.);
#572=EDGE_CURVE('',#464,#439,#271,.T.);
#573=EDGE_CURVE('',#443,#464,#272,.T.);
#574=EDGE_CURVE('',#465,#420,#273,.T.);
#575=EDGE_CURVE('',#454,#465,#274,.T.);
#576=EDGE_CURVE('',#404,#448,#275,.T.);
#577=EDGE_CURVE('',#402,#450,#276,.T.);
#578=EDGE_CURVE('',#405,#447,#277,.T.);
#579=EDGE_CURVE('',#466,#465,#278,.T.);
#580=EDGE_CURVE('',#455,#466,#279,.T.);
#581=EDGE_CURVE('',#456,#467,#280,.T.);
#582=EDGE_CURVE('',#421,#467,#281,.T.);
#583=EDGE_CURVE('',#467,#466,#282,.T.);
#584=EDGE_CURVE('',#464,#468,#283,.T.);
#585=EDGE_CURVE('',#468,#440,#284,.T.);
#586=EDGE_CURVE('',#441,#468,#285,.T.);
#587=EDGE_CURVE('',#425,#469,#286,.T.);
#588=EDGE_CURVE('',#463,#469,#287,.T.);
#589=EDGE_CURVE('',#469,#434,#288,.T.);
#590=EDGE_CURVE('',#407,#457,#289,.T.);
#591=EDGE_CURVE('',#409,#460,#290,.T.);
#592=EDGE_CURVE('',#410,#459,#291,.T.);
#593=EDGE_CURVE('',#408,#458,#292,.T.);
#594=EDGE_CURVE('',#461,#411,#293,.T.);
#595=EDGE_CURVE('',#462,#412,#294,.T.);
#596=EDGE_CURVE('',#399,#413,#295,.T.);
#597=EDGE_CURVE('',#403,#452,#296,.T.);
#598=ORIENTED_EDGE('',*,*,#470,.F.);
#599=ORIENTED_EDGE('',*,*,#471,.T.);
#600=ORIENTED_EDGE('',*,*,#472,.T.);
#601=ORIENTED_EDGE('',*,*,#473,.F.);
#602=ORIENTED_EDGE('',*,*,#474,.F.);
#603=ORIENTED_EDGE('',*,*,#475,.T.);
#604=ORIENTED_EDGE('',*,*,#476,.T.);
#605=ORIENTED_EDGE('',*,*,#471,.F.);
#606=ORIENTED_EDGE('',*,*,#477,.F.);
#607=ORIENTED_EDGE('',*,*,#478,.T.);
#608=ORIENTED_EDGE('',*,*,#479,.T.);
#609=ORIENTED_EDGE('',*,*,#475,.F.);
#610=ORIENTED_EDGE('',*,*,#480,.F.);
#611=ORIENTED_EDGE('',*,*,#481,.T.);
#612=ORIENTED_EDGE('',*,*,#482,.T.);
#613=ORIENTED_EDGE('',*,*,#478,.F.);
#614=ORIENTED_EDGE('',*,*,#483,.F.);
#615=ORIENTED_EDGE('',*,*,#484,.T.);
#616=ORIENTED_EDGE('',*,*,#485,.T.);
#617=ORIENTED_EDGE('',*,*,#481,.F.);
#618=ORIENTED_EDGE('',*,*,#486,.F.);
#619=ORIENTED_EDGE('',*,*,#473,.T.);
#620=ORIENTED_EDGE('',*,*,#487,.T.);
#621=ORIENTED_EDGE('',*,*,#484,.F.);
#622=ORIENTED_EDGE('',*,*,#487,.F.);
#623=ORIENTED_EDGE('',*,*,#472,.F.);
#624=ORIENTED_EDGE('',*,*,#476,.F.);
#625=ORIENTED_EDGE('',*,*,#479,.F.);
#626=ORIENTED_EDGE('',*,*,#482,.F.);
#627=ORIENTED_EDGE('',*,*,#485,.F.);
#628=ORIENTED_EDGE('',*,*,#488,.F.);
#629=ORIENTED_EDGE('',*,*,#489,.T.);
#630=ORIENTED_EDGE('',*,*,#490,.T.);
#631=ORIENTED_EDGE('',*,*,#491,.T.);
#632=ORIENTED_EDGE('',*,*,#490,.F.);
#633=ORIENTED_EDGE('',*,*,#492,.F.);
#634=ORIENTED_EDGE('',*,*,#493,.T.);
#635=ORIENTED_EDGE('',*,*,#494,.F.);
#636=ORIENTED_EDGE('',*,*,#495,.T.);
#637=ORIENTED_EDGE('',*,*,#496,.F.);
#638=ORIENTED_EDGE('',*,*,#497,.F.);
#639=ORIENTED_EDGE('',*,*,#498,.F.);
#640=ORIENTED_EDGE('',*,*,#499,.F.);
#641=ORIENTED_EDGE('',*,*,#500,.F.);
#642=ORIENTED_EDGE('',*,*,#501,.F.);
#643=ORIENTED_EDGE('',*,*,#502,.F.);
#644=ORIENTED_EDGE('',*,*,#503,.F.);
#645=ORIENTED_EDGE('',*,*,#504,.F.);
#646=ORIENTED_EDGE('',*,*,#489,.F.);
#647=ORIENTED_EDGE('',*,*,#491,.F.);
#648=ORIENTED_EDGE('',*,*,#505,.T.);
#649=ORIENTED_EDGE('',*,*,#506,.F.);
#650=ORIENTED_EDGE('',*,*,#505,.F.);
#651=ORIENTED_EDGE('',*,*,#496,.T.);
#652=ORIENTED_EDGE('',*,*,#507,.T.);
#653=ORIENTED_EDGE('',*,*,#508,.T.);
#654=ORIENTED_EDGE('',*,*,#507,.F.);
#655=ORIENTED_EDGE('',*,*,#508,.F.);
#656=ORIENTED_EDGE('',*,*,#509,.T.);
#657=ORIENTED_EDGE('',*,*,#510,.F.);
#658=ORIENTED_EDGE('',*,*,#509,.F.);
#659=ORIENTED_EDGE('',*,*,#504,.T.);
#660=ORIENTED_EDGE('',*,*,#511,.T.);
#661=ORIENTED_EDGE('',*,*,#512,.T.);
#662=ORIENTED_EDGE('',*,*,#511,.F.);
#663=ORIENTED_EDGE('',*,*,#512,.F.);
#664=ORIENTED_EDGE('',*,*,#513,.T.);
#665=ORIENTED_EDGE('',*,*,#514,.F.);
#666=ORIENTED_EDGE('',*,*,#513,.F.);
#667=ORIENTED_EDGE('',*,*,#515,.F.);
#668=ORIENTED_EDGE('',*,*,#516,.T.);
#669=ORIENTED_EDGE('',*,*,#517,.F.);
#670=ORIENTED_EDGE('',*,*,#518,.F.);
#671=ORIENTED_EDGE('',*,*,#519,.T.);
#672=ORIENTED_EDGE('',*,*,#520,.F.);
#673=ORIENTED_EDGE('',*,*,#521,.T.);
#674=ORIENTED_EDGE('',*,*,#522,.T.);
#675=ORIENTED_EDGE('',*,*,#523,.T.);
#676=ORIENTED_EDGE('',*,*,#523,.F.);
#677=ORIENTED_EDGE('',*,*,#524,.F.);
#678=ORIENTED_EDGE('',*,*,#525,.F.);
#679=ORIENTED_EDGE('',*,*,#526,.T.);
#680=ORIENTED_EDGE('',*,*,#527,.F.);
#681=ORIENTED_EDGE('',*,*,#525,.T.);
#682=ORIENTED_EDGE('',*,*,#528,.T.);
#683=ORIENTED_EDGE('',*,*,#529,.T.);
#684=ORIENTED_EDGE('',*,*,#529,.F.);
#685=ORIENTED_EDGE('',*,*,#530,.F.);
#686=ORIENTED_EDGE('',*,*,#531,.T.);
#687=ORIENTED_EDGE('',*,*,#532,.T.);
#688=ORIENTED_EDGE('',*,*,#533,.F.);
#689=ORIENTED_EDGE('',*,*,#534,.T.);
#690=ORIENTED_EDGE('',*,*,#535,.T.);
#691=ORIENTED_EDGE('',*,*,#536,.T.);
#692=ORIENTED_EDGE('',*,*,#536,.F.);
#693=ORIENTED_EDGE('',*,*,#537,.F.);
#694=ORIENTED_EDGE('',*,*,#538,.T.);
#695=ORIENTED_EDGE('',*,*,#539,.T.);
#696=ORIENTED_EDGE('',*,*,#540,.F.);
#697=ORIENTED_EDGE('',*,*,#541,.T.);
#698=ORIENTED_EDGE('',*,*,#542,.T.);
#699=ORIENTED_EDGE('',*,*,#543,.T.);
#700=ORIENTED_EDGE('',*,*,#534,.F.);
#701=ORIENTED_EDGE('',*,*,#544,.T.);
#702=ORIENTED_EDGE('',*,*,#543,.F.);
#703=ORIENTED_EDGE('',*,*,#545,.F.);
#704=ORIENTED_EDGE('',*,*,#546,.T.);
#705=ORIENTED_EDGE('',*,*,#547,.T.);
#706=ORIENTED_EDGE('',*,*,#548,.T.);
#707=ORIENTED_EDGE('',*,*,#549,.T.);
#708=ORIENTED_EDGE('',*,*,#550,.T.);
#709=ORIENTED_EDGE('',*,*,#551,.F.);
#710=ORIENTED_EDGE('',*,*,#517,.T.);
#711=ORIENTED_EDGE('',*,*,#552,.T.);
#712=ORIENTED_EDGE('',*,*,#553,.T.);
#713=ORIENTED_EDGE('',*,*,#550,.F.);
#714=ORIENTED_EDGE('',*,*,#554,.T.);
#715=ORIENTED_EDGE('',*,*,#555,.T.);
#716=ORIENTED_EDGE('',*,*,#556,.T.);
#717=ORIENTED_EDGE('',*,*,#552,.F.);
#718=ORIENTED_EDGE('',*,*,#557,.T.);
#719=ORIENTED_EDGE('',*,*,#548,.F.);
#720=ORIENTED_EDGE('',*,*,#558,.T.);
#721=ORIENTED_EDGE('',*,*,#555,.F.);
#722=ORIENTED_EDGE('',*,*,#559,.T.);
#723=ORIENTED_EDGE('',*,*,#551,.T.);
#724=ORIENTED_EDGE('',*,*,#553,.F.);
#725=ORIENTED_EDGE('',*,*,#556,.F.);
#726=ORIENTED_EDGE('',*,*,#558,.F.);
#727=ORIENTED_EDGE('',*,*,#547,.F.);
#728=ORIENTED_EDGE('',*,*,#560,.T.);
#729=ORIENTED_EDGE('',*,*,#561,.T.);
#730=ORIENTED_EDGE('',*,*,#562,.T.);
#731=ORIENTED_EDGE('',*,*,#563,.T.);
#732=ORIENTED_EDGE('',*,*,#518,.T.);
#733=ORIENTED_EDGE('',*,*,#470,.T.);
#734=ORIENTED_EDGE('',*,*,#486,.T.);
#735=ORIENTED_EDGE('',*,*,#483,.T.);
#736=ORIENTED_EDGE('',*,*,#480,.T.);
#737=ORIENTED_EDGE('',*,*,#477,.T.);
#738=ORIENTED_EDGE('',*,*,#474,.T.);
#739=ORIENTED_EDGE('',*,*,#564,.T.);
#740=ORIENTED_EDGE('',*,*,#565,.T.);
#741=ORIENTED_EDGE('',*,*,#566,.T.);
#742=ORIENTED_EDGE('',*,*,#567,.T.);
#743=ORIENTED_EDGE('',*,*,#568,.T.);
#744=ORIENTED_EDGE('',*,*,#569,.T.);
#745=ORIENTED_EDGE('',*,*,#570,.T.);
#746=ORIENTED_EDGE('',*,*,#571,.T.);
#747=ORIENTED_EDGE('',*,*,#530,.T.);
#748=ORIENTED_EDGE('',*,*,#528,.F.);
#749=ORIENTED_EDGE('',*,*,#524,.T.);
#750=ORIENTED_EDGE('',*,*,#522,.F.);
#751=ORIENTED_EDGE('',*,*,#572,.T.);
#752=ORIENTED_EDGE('',*,*,#537,.T.);
#753=ORIENTED_EDGE('',*,*,#535,.F.);
#754=ORIENTED_EDGE('',*,*,#545,.T.);
#755=ORIENTED_EDGE('',*,*,#542,.F.);
#756=ORIENTED_EDGE('',*,*,#573,.T.);
#757=ORIENTED_EDGE('',*,*,#516,.F.);
#758=ORIENTED_EDGE('',*,*,#574,.F.);
#759=ORIENTED_EDGE('',*,*,#575,.F.);
#760=ORIENTED_EDGE('',*,*,#560,.F.);
#761=ORIENTED_EDGE('',*,*,#546,.F.);
#762=ORIENTED_EDGE('',*,*,#554,.F.);
#763=ORIENTED_EDGE('',*,*,#576,.F.);
#764=ORIENTED_EDGE('',*,*,#493,.F.);
#765=ORIENTED_EDGE('',*,*,#577,.T.);
#766=ORIENTED_EDGE('',*,*,#549,.F.);
#767=ORIENTED_EDGE('',*,*,#578,.F.);
#768=ORIENTED_EDGE('',*,*,#494,.T.);
#769=ORIENTED_EDGE('',*,*,#576,.T.);
#770=ORIENTED_EDGE('',*,*,#579,.F.);
#771=ORIENTED_EDGE('',*,*,#580,.F.);
#772=ORIENTED_EDGE('',*,*,#561,.F.);
#773=ORIENTED_EDGE('',*,*,#575,.T.);
#774=ORIENTED_EDGE('',*,*,#519,.F.);
#775=ORIENTED_EDGE('',*,*,#563,.F.);
#776=ORIENTED_EDGE('',*,*,#581,.T.);
#777=ORIENTED_EDGE('',*,*,#582,.F.);
#778=ORIENTED_EDGE('',*,*,#583,.F.);
#779=ORIENTED_EDGE('',*,*,#581,.F.);
#780=ORIENTED_EDGE('',*,*,#562,.F.);
#781=ORIENTED_EDGE('',*,*,#580,.T.);
#782=ORIENTED_EDGE('',*,*,#515,.T.);
#783=ORIENTED_EDGE('',*,*,#582,.T.);
#784=ORIENTED_EDGE('',*,*,#583,.T.);
#785=ORIENTED_EDGE('',*,*,#579,.T.);
#786=ORIENTED_EDGE('',*,*,#574,.T.);
#787=ORIENTED_EDGE('',*,*,#506,.T.);
#788=ORIENTED_EDGE('',*,*,#572,.F.);
#789=ORIENTED_EDGE('',*,*,#584,.T.);
#790=ORIENTED_EDGE('',*,*,#585,.T.);
#791=ORIENTED_EDGE('',*,*,#538,.F.);
#792=ORIENTED_EDGE('',*,*,#541,.F.);
#793=ORIENTED_EDGE('',*,*,#586,.T.);
#794=ORIENTED_EDGE('',*,*,#584,.F.);
#795=ORIENTED_EDGE('',*,*,#573,.F.);
#796=ORIENTED_EDGE('',*,*,#533,.T.);
#797=ORIENTED_EDGE('',*,*,#539,.F.);
#798=ORIENTED_EDGE('',*,*,#585,.F.);
#799=ORIENTED_EDGE('',*,*,#586,.F.);
#800=ORIENTED_EDGE('',*,*,#540,.T.);
#801=ORIENTED_EDGE('',*,*,#544,.F.);
#802=ORIENTED_EDGE('',*,*,#514,.T.);
#803=ORIENTED_EDGE('',*,*,#521,.F.);
#804=ORIENTED_EDGE('',*,*,#587,.T.);
#805=ORIENTED_EDGE('',*,*,#588,.F.);
#806=ORIENTED_EDGE('',*,*,#570,.F.);
#807=ORIENTED_EDGE('',*,*,#571,.F.);
#808=ORIENTED_EDGE('',*,*,#588,.T.);
#809=ORIENTED_EDGE('',*,*,#589,.T.);
#810=ORIENTED_EDGE('',*,*,#531,.F.);
#811=ORIENTED_EDGE('',*,*,#520,.T.);
#812=ORIENTED_EDGE('',*,*,#526,.F.);
#813=ORIENTED_EDGE('',*,*,#527,.T.);
#814=ORIENTED_EDGE('',*,*,#532,.F.);
#815=ORIENTED_EDGE('',*,*,#589,.F.);
#816=ORIENTED_EDGE('',*,*,#587,.F.);
#817=ORIENTED_EDGE('',*,*,#510,.T.);
#818=ORIENTED_EDGE('',*,*,#498,.T.);
#819=ORIENTED_EDGE('',*,*,#590,.T.);
#820=ORIENTED_EDGE('',*,*,#567,.F.);
#821=ORIENTED_EDGE('',*,*,#591,.F.);
#822=ORIENTED_EDGE('',*,*,#499,.T.);
#823=ORIENTED_EDGE('',*,*,#591,.T.);
#824=ORIENTED_EDGE('',*,*,#566,.F.);
#825=ORIENTED_EDGE('',*,*,#592,.F.);
#826=ORIENTED_EDGE('',*,*,#500,.T.);
#827=ORIENTED_EDGE('',*,*,#592,.T.);
#828=ORIENTED_EDGE('',*,*,#565,.F.);
#829=ORIENTED_EDGE('',*,*,#593,.F.);
#830=ORIENTED_EDGE('',*,*,#497,.T.);
#831=ORIENTED_EDGE('',*,*,#593,.T.);
#832=ORIENTED_EDGE('',*,*,#564,.F.);
#833=ORIENTED_EDGE('',*,*,#590,.F.);
#834=ORIENTED_EDGE('',*,*,#568,.F.);
#835=ORIENTED_EDGE('',*,*,#594,.T.);
#836=ORIENTED_EDGE('',*,*,#501,.T.);
#837=ORIENTED_EDGE('',*,*,#594,.F.);
#838=ORIENTED_EDGE('',*,*,#569,.F.);
#839=ORIENTED_EDGE('',*,*,#595,.T.);
#840=ORIENTED_EDGE('',*,*,#502,.T.);
#841=ORIENTED_EDGE('',*,*,#595,.F.);
#842=ORIENTED_EDGE('',*,*,#488,.T.);
#843=ORIENTED_EDGE('',*,*,#596,.T.);
#844=ORIENTED_EDGE('',*,*,#503,.T.);
#845=ORIENTED_EDGE('',*,*,#596,.F.);
#846=ORIENTED_EDGE('',*,*,#559,.F.);
#847=ORIENTED_EDGE('',*,*,#597,.F.);
#848=ORIENTED_EDGE('',*,*,#495,.F.);
#849=ORIENTED_EDGE('',*,*,#578,.T.);
#850=ORIENTED_EDGE('',*,*,#557,.F.);
#851=ORIENTED_EDGE('',*,*,#577,.F.);
#852=ORIENTED_EDGE('',*,*,#492,.T.);
#853=ORIENTED_EDGE('',*,*,#597,.T.);
#854=PLANE('',#936);
#855=PLANE('',#937);
#856=PLANE('',#938);
#857=PLANE('',#939);
#858=PLANE('',#940);
#859=PLANE('',#941);
#860=PLANE('',#942);
#861=PLANE('',#947);
#862=PLANE('',#971);
#863=PLANE('',#975);
#864=PLANE('',#979);
#865=PLANE('',#983);
#866=PLANE('',#997);
#867=PLANE('',#1000);
#868=PLANE('',#1001);
#869=PLANE('',#1003);
#870=PLANE('',#1004);
#871=PLANE('',#1005);
#872=PLANE('',#1006);
#873=PLANE('',#1007);
#874=PLANE('',#1008);
#875=PLANE('',#1009);
#876=PLANE('',#1010);
#877=PLANE('',#1011);
#878=PLANE('',#1012);
#879=PLANE('',#1013);
#880=PLANE('',#1014);
#881=PLANE('',#1015);
#882=PLANE('',#1016);
#883=PLANE('',#1020);
#884=ADVANCED_FACE('',(#90),#854,.F.);
#885=ADVANCED_FACE('',(#91),#855,.F.);
#886=ADVANCED_FACE('',(#92),#856,.F.);
#887=ADVANCED_FACE('',(#93),#857,.F.);
#888=ADVANCED_FACE('',(#94),#858,.F.);
#889=ADVANCED_FACE('',(#95),#859,.F.);
#890=ADVANCED_FACE('',(#96,#37),#860,.F.);
#891=ADVANCED_FACE('',(#97),#34,.F.);
#892=ADVANCED_FACE('',(#98,#38,#39,#40,#41,#42,#43,#44),#861,.F.);
#893=ADVANCED_FACE('',(#99),#19,.F.);
#894=ADVANCED_FACE('',(#100),#35,.F.);
#895=ADVANCED_FACE('',(#101),#20,.F.);
#896=ADVANCED_FACE('',(#102),#36,.F.);
#897=ADVANCED_FACE('',(#103),#21,.F.);
#898=ADVANCED_FACE('',(#104),#22,.F.);
#899=ADVANCED_FACE('',(#105),#23,.F.);
#900=ADVANCED_FACE('',(#106),#862,.F.);
#901=ADVANCED_FACE('',(#107),#24,.F.);
#902=ADVANCED_FACE('',(#108),#863,.F.);
#903=ADVANCED_FACE('',(#109),#25,.F.);
#904=ADVANCED_FACE('',(#110),#864,.F.);
#905=ADVANCED_FACE('',(#111),#26,.F.);
#906=ADVANCED_FACE('',(#112),#865,.F.);
#907=ADVANCED_FACE('',(#113),#15,.T.);
#908=ADVANCED_FACE('',(#114),#27,.T.);
#909=ADVANCED_FACE('',(#115),#16,.T.);
#910=ADVANCED_FACE('',(#116),#28,.T.);
#911=ADVANCED_FACE('',(#117,#45,#46,#47,#48,#49,#50),#866,.T.);
#912=ADVANCED_FACE('',(#118),#867,.F.);
#913=ADVANCED_FACE('',(#119),#868,.T.);
#914=ADVANCED_FACE('',(#120),#29,.T.);
#915=ADVANCED_FACE('',(#121),#869,.F.);
#916=ADVANCED_FACE('',(#122),#870,.F.);
#917=ADVANCED_FACE('',(#123),#871,.F.);
#918=ADVANCED_FACE('',(#124,#51),#872,.F.);
#919=ADVANCED_FACE('',(#125),#873,.F.);
#920=ADVANCED_FACE('',(#126),#874,.F.);
#921=ADVANCED_FACE('',(#127,#52),#875,.F.);
#922=ADVANCED_FACE('',(#128),#876,.F.);
#923=ADVANCED_FACE('',(#129),#877,.F.);
#924=ADVANCED_FACE('',(#130,#53),#878,.F.);
#925=ADVANCED_FACE('',(#131),#879,.T.);
#926=ADVANCED_FACE('',(#132),#880,.T.);
#927=ADVANCED_FACE('',(#133),#881,.T.);
#928=ADVANCED_FACE('',(#134),#882,.T.);
#929=ADVANCED_FACE('',(#135),#30,.F.);
#930=ADVANCED_FACE('',(#136),#31,.F.);
#931=ADVANCED_FACE('',(#137),#32,.F.);
#932=ADVANCED_FACE('',(#138),#883,.T.);
#933=ADVANCED_FACE('',(#139),#33,.T.);
#934=CLOSED_SHELL('',(#884,#885,#886,#887,#888,#889,#890,#891,#892,#893,
#894,#895,#896,#897,#898,#899,#900,#901,#902,#903,#904,#905,#906,#907,#908,
#909,#910,#911,#912,#913,#914,#915,#916,#917,#918,#919,#920,#921,#922,#923,
#924,#925,#926,#927,#928,#929,#930,#931,#932,#933));
#935=AXIS2_PLACEMENT_3D('',#1286,#1022,#1023);
#936=AXIS2_PLACEMENT_3D('',#1287,#1024,#1025);
#937=AXIS2_PLACEMENT_3D('',#1296,#1030,#1031);
#938=AXIS2_PLACEMENT_3D('',#1302,#1035,#1036);
#939=AXIS2_PLACEMENT_3D('',#1308,#1040,#1041);
#940=AXIS2_PLACEMENT_3D('',#1314,#1045,#1046);
#941=AXIS2_PLACEMENT_3D('',#1320,#1050,#1051);
#942=AXIS2_PLACEMENT_3D('',#1323,#1054,#1055);
#943=AXIS2_PLACEMENT_3D('',#1325,#1056,#1057);
#944=AXIS2_PLACEMENT_3D('',#1326,#1058,#1059);
#945=AXIS2_PLACEMENT_3D('',#1328,#1060,#1061);
#946=AXIS2_PLACEMENT_3D('',#1331,#1063,#1064);
#947=AXIS2_PLACEMENT_3D('',#1332,#1065,#1066);
#948=AXIS2_PLACEMENT_3D('',#1335,#1067,#1068);
#949=AXIS2_PLACEMENT_3D('',#1339,#1070,#1071);
#950=AXIS2_PLACEMENT_3D('',#1342,#1073,#1074);
#951=AXIS2_PLACEMENT_3D('',#1352,#1079,#1080);
#952=AXIS2_PLACEMENT_3D('',#1354,#1081,#1082);
#953=AXIS2_PLACEMENT_3D('',#1356,#1083,#1084);
#954=AXIS2_PLACEMENT_3D('',#1358,#1085,#1086);
#955=AXIS2_PLACEMENT_3D('',#1359,#1087,#1088);
#956=AXIS2_PLACEMENT_3D('',#1362,#1090,#1091);
#957=AXIS2_PLACEMENT_3D('',#1363,#1092,#1093);
#958=AXIS2_PLACEMENT_3D('',#1366,#1095,#1096);
#959=AXIS2_PLACEMENT_3D('',#1367,#1097,#1098);
#960=AXIS2_PLACEMENT_3D('',#1370,#1100,#1101);
#961=AXIS2_PLACEMENT_3D('',#1371,#1102,#1103);
#962=AXIS2_PLACEMENT_3D('',#1374,#1105,#1106);
#963=AXIS2_PLACEMENT_3D('',#1375,#1107,#1108);
#964=AXIS2_PLACEMENT_3D('',#1378,#1110,#1111);
#965=AXIS2_PLACEMENT_3D('',#1379,#1112,#1113);
#966=AXIS2_PLACEMENT_3D('',#1382,#1114,#1115);
#967=AXIS2_PLACEMENT_3D('',#1400,#1117,#1118);
#968=AXIS2_PLACEMENT_3D('',#1402,#1120,#1121);
#969=AXIS2_PLACEMENT_3D('',#1405,#1122,#1123);
#970=AXIS2_PLACEMENT_3D('',#1409,#1125,#1126);
#971=AXIS2_PLACEMENT_3D('',#1411,#1128,#1129);
#972=AXIS2_PLACEMENT_3D('',#1417,#1133,#1134);
#973=AXIS2_PLACEMENT_3D('',#1419,#1135,#1136);
#974=AXIS2_PLACEMENT_3D('',#1421,#1137,#1138);
#975=AXIS2_PLACEMENT_3D('',#1423,#1140,#1141);
#976=AXIS2_PLACEMENT_3D('',#1429,#1145,#1146);
#977=AXIS2_PLACEMENT_3D('',#1432,#1147,#1148);
#978=AXIS2_PLACEMENT_3D('',#1436,#1150,#1151);
#979=AXIS2_PLACEMENT_3D('',#1438,#1153,#1154);
#980=AXIS2_PLACEMENT_3D('',#1444,#1158,#1159);
#981=AXIS2_PLACEMENT_3D('',#1447,#1160,#1161);
#982=AXIS2_PLACEMENT_3D('',#1451,#1163,#1164);
#983=AXIS2_PLACEMENT_3D('',#1453,#1166,#1167);
#984=AXIS2_PLACEMENT_3D('',#1456,#1170,#1171);
#985=AXIS2_PLACEMENT_3D('',#1463,#1172,#1173);
#986=AXIS2_PLACEMENT_3D('',#1465,#1174,#1175);
#987=AXIS2_PLACEMENT_3D('',#1467,#1176,#1177);
#988=AXIS2_PLACEMENT_3D('',#1469,#1178,#1179);
#989=AXIS2_PLACEMENT_3D('',#1470,#1180,#1181);
#990=AXIS2_PLACEMENT_3D('',#1471,#1182,#1183);
#991=AXIS2_PLACEMENT_3D('',#1474,#1184,#1185);
#992=AXIS2_PLACEMENT_3D('',#1477,#1188,#1189);
#993=AXIS2_PLACEMENT_3D('',#1480,#1190,#1191);
#994=AXIS2_PLACEMENT_3D('',#1481,#1192,#1193);
#995=AXIS2_PLACEMENT_3D('',#1482,#1194,#1195);
#996=AXIS2_PLACEMENT_3D('',#1483,#1196,#1197);
#997=AXIS2_PLACEMENT_3D('',#1486,#1200,#1201);
#998=AXIS2_PLACEMENT_3D('',#1503,#1210,#1211);
#999=AXIS2_PLACEMENT_3D('',#1505,#1212,#1213);
#1000=AXIS2_PLACEMENT_3D('',#1512,#1218,#1219);
#1001=AXIS2_PLACEMENT_3D('',#1516,#1222,#1223);
#1002=AXIS2_PLACEMENT_3D('',#1519,#1226,#1227);
#1003=AXIS2_PLACEMENT_3D('',#1521,#1229,#1230);
#1004=AXIS2_PLACEMENT_3D('',#1525,#1233,#1234);
#1005=AXIS2_PLACEMENT_3D('',#1529,#1237,#1238);
#1006=AXIS2_PLACEMENT_3D('',#1531,#1240,#1241);
#1007=AXIS2_PLACEMENT_3D('',#1532,#1242,#1243);
#1008=AXIS2_PLACEMENT_3D('',#1536,#1246,#1247);
#1009=AXIS2_PLACEMENT_3D('',#1538,#1249,#1250);
#1010=AXIS2_PLACEMENT_3D('',#1539,#1251,#1252);
#1011=AXIS2_PLACEMENT_3D('',#1543,#1255,#1256);
#1012=AXIS2_PLACEMENT_3D('',#1545,#1258,#1259);
#1013=AXIS2_PLACEMENT_3D('',#1546,#1260,#1261);
#1014=AXIS2_PLACEMENT_3D('',#1549,#1264,#1265);
#1015=AXIS2_PLACEMENT_3D('',#1551,#1267,#1268);
#1016=AXIS2_PLACEMENT_3D('',#1553,#1270,#1271);
#1017=AXIS2_PLACEMENT_3D('',#1554,#1272,#1273);
#1018=AXIS2_PLACEMENT_3D('',#1556,#1275,#1276);
#1019=AXIS2_PLACEMENT_3D('',#1558,#1278,#1279);
#1020=AXIS2_PLACEMENT_3D('',#1560,#1281,#1282);
#1021=AXIS2_PLACEMENT_3D('',#1562,#1284,#1285);
#1022=DIRECTION('axis',(0.,0.,1.));
#1023=DIRECTION('refdir',(1.,0.,0.));
#1024=DIRECTION('center_axis',(0.866025403784439,0.,-0.5));
#1025=DIRECTION('ref_axis',(0.5,-4.26657346041353E-15,0.866025403784439));
#1026=DIRECTION('',(0.5,-4.26657346041353E-15,0.866025403784439));
#1027=DIRECTION('',(0.,-1.,0.));
#1028=DIRECTION('',(0.5,-4.26657346041353E-15,0.866025403784439));
#1029=DIRECTION('',(0.,-1.,0.));
#1030=DIRECTION('center_axis',(2.93582089524208E-16,0.,-1.));
#1031=DIRECTION('ref_axis',(1.,-1.44636582962007E-30,2.93582089524208E-16));
#1032=DIRECTION('',(1.,-1.44636582962007E-30,2.93582089524208E-16));
#1033=DIRECTION('',(0.,-1.,0.));
#1034=DIRECTION('',(1.,-1.44636582962007E-30,2.93582089524208E-16));
#1035=DIRECTION('center_axis',(-0.866025403784439,0.,-0.5));
#1036=DIRECTION('ref_axis',(0.5,4.26657346041353E-15,-0.866025403784438));
#1037=DIRECTION('',(0.5,4.26657346041353E-15,-0.866025403784438));
#1038=DIRECTION('',(0.,-1.,0.));
#1039=DIRECTION('',(0.5,4.26657346041353E-15,-0.866025403784438));
#1040=DIRECTION('center_axis',(-0.866025403784439,0.,0.5));
#1041=DIRECTION('ref_axis',(-0.5,4.26657346041353E-15,-0.866025403784439));
#1042=DIRECTION('',(-0.5,4.26657346041353E-15,-0.866025403784439));
#1043=DIRECTION('',(0.,-1.,0.));
#1044=DIRECTION('',(-0.5,4.26657346041353E-15,-0.866025403784439));
#1045=DIRECTION('center_axis',(-5.87164179048417E-16,0.,1.));
#1046=DIRECTION('ref_axis',(-1.,2.89273165924014E-30,-5.87164179048417E-16));
#1047=DIRECTION('',(-1.,2.89273165924014E-30,-5.87164179048417E-16));
#1048=DIRECTION('',(0.,-1.,0.));
#1049=DIRECTION('',(-1.,2.89273165924014E-30,-5.87164179048417E-16));
#1050=DIRECTION('center_axis',(0.866025403784438,0.,0.500000000000001));
#1051=DIRECTION('ref_axis',(-0.500000000000001,-4.26657346041353E-15,0.866025403784438));
#1052=DIRECTION('',(-0.500000000000001,-4.26657346041353E-15,0.866025403784438));
#1053=DIRECTION('',(-0.500000000000001,-4.26657346041353E-15,0.866025403784438));
#1054=DIRECTION('center_axis',(0.,-1.,0.));
#1055=DIRECTION('ref_axis',(0.,0.,-1.));
#1056=DIRECTION('center_axis',(0.,1.,0.));
#1057=DIRECTION('ref_axis',(1.,-3.66112036402368E-59,7.43101353155759E-45));
#1058=DIRECTION('center_axis',(0.,-1.,-4.44089209850021E-15));
#1059=DIRECTION('ref_axis',(1.,-1.13859776649911E-47,-5.60943246168376E-62));
#1060=DIRECTION('center_axis',(-1.70789664974865E-47,-1.,-4.92661467177413E-15));
#1061=DIRECTION('ref_axis',(1.,-1.70789664974865E-47,-8.41414869252559E-62));
#1062=DIRECTION('',(0.707106781186531,0.707106781186564,3.22678052299088E-15));
#1063=DIRECTION('center_axis',(1.70789664974865E-47,1.,4.92661467177413E-15));
#1064=DIRECTION('ref_axis',(1.,0.,0.));
#1065=DIRECTION('center_axis',(1.70789664974865E-47,1.,4.92661467177413E-15));
#1066=DIRECTION('ref_axis',(1.,-1.70789664975231E-47,7.43101353155759E-45));
#1067=DIRECTION('center_axis',(1.70789664974865E-47,1.,4.92661467177413E-15));
#1068=DIRECTION('ref_axis',(1.,-1.70789664975231E-47,7.43101353155759E-45));
#1069=DIRECTION('',(0.988681443792327,-7.39140028771873E-16,0.1500300060012));
#1070=DIRECTION('center_axis',(1.70789664974865E-47,1.,4.92661467177413E-15));
#1071=DIRECTION('ref_axis',(1.,-1.70789664975231E-47,7.43101353155759E-45));
#1072=DIRECTION('',(-0.988681443792327,-7.39140028771874E-16,0.1500300060012));
#1073=DIRECTION('center_axis',(-1.70789664974865E-47,-1.,-4.92661467177413E-15));
#1074=DIRECTION('ref_axis',(1.,-1.70789664975231E-47,7.43101353155759E-45));
#1075=DIRECTION('',(7.43101353155759E-45,4.92661467177413E-15,-1.));
#1076=DIRECTION('',(-1.,1.70789664975231E-47,-7.43101353155759E-45));
#1077=DIRECTION('',(-7.43101353155759E-45,-4.92661467177413E-15,1.));
#1078=DIRECTION('',(1.,-8.75142566729559E-31,1.77635683940025E-16));
#1079=DIRECTION('center_axis',(-1.70789664974865E-47,-1.,-4.92661467177413E-15));
#1080=DIRECTION('ref_axis',(1.,-1.70789664975231E-47,7.43101353155759E-45));
#1081=DIRECTION('center_axis',(-1.70789664974865E-47,-1.,-4.92661467177413E-15));
#1082=DIRECTION('ref_axis',(1.,-1.70789664975231E-47,7.43101353155759E-45));
#1083=DIRECTION('center_axis',(-1.70789664974865E-47,-1.,-4.92661467177413E-15));
#1084=DIRECTION('ref_axis',(1.,-1.70789664975231E-47,7.43101353155759E-45));
#1085=DIRECTION('center_axis',(-1.70789664974865E-47,-1.,-4.92661467177413E-15));
#1086=DIRECTION('ref_axis',(1.,-1.70789664975231E-47,7.43101353155759E-45));
#1087=DIRECTION('center_axis',(0.,1.,0.));
#1088=DIRECTION('ref_axis',(1.,0.,0.));
#1089=DIRECTION('',(0.,1.,0.));
#1090=DIRECTION('center_axis',(6.66133814775095E-16,-1.,0.));
#1091=DIRECTION('ref_axis',(1.,0.,0.));
#1092=DIRECTION('center_axis',(0.,-1.,-4.44089209850064E-15));
#1093=DIRECTION('ref_axis',(1.,-1.13859776650274E-47,7.43101353155759E-45));
#1094=DIRECTION('',(0.707106781186548,0.707106781186547,3.22678052299111E-15));
#1095=DIRECTION('center_axis',(1.70789664974865E-47,1.,4.92661467177413E-15));
#1096=DIRECTION('ref_axis',(1.,-3.60011157285639E-59,7.43101353155759E-45));
#1097=DIRECTION('center_axis',(0.,1.,4.84460956200068E-15));
#1098=DIRECTION('ref_axis',(1.,-3.60011157285639E-59,7.43101353155759E-45));
#1099=DIRECTION('',(0.,1.,4.84460956200068E-15));
#1100=DIRECTION('center_axis',(0.,-1.,-4.84460956200068E-15));
#1101=DIRECTION('ref_axis',(1.,-3.60011157285639E-59,7.43101353155759E-45));
#1102=DIRECTION('center_axis',(-1.70789664974891E-47,-1.,-4.44089209850061E-15));
#1103=DIRECTION('ref_axis',(1.,-1.13859776650274E-47,7.43101353155759E-45));
#1104=DIRECTION('',(0.707106781186547,0.707106781186548,3.22678052299109E-15));
#1105=DIRECTION('center_axis',(1.70789664974865E-47,1.,4.92661467177413E-15));
#1106=DIRECTION('ref_axis',(1.,-3.60011157285639E-59,7.43101353155759E-45));
#1107=DIRECTION('center_axis',(0.,1.,4.84460956200068E-15));
#1108=DIRECTION('ref_axis',(1.,-3.60011157285639E-59,7.43101353155759E-45));
#1109=DIRECTION('',(0.,1.,4.84460956200068E-15));
#1110=DIRECTION('center_axis',(0.,-1.,-4.84460956200068E-15));
#1111=DIRECTION('ref_axis',(1.,-3.60011157285639E-59,7.43101353155759E-45));
#1112=DIRECTION('center_axis',(0.,-1.,0.));
#1113=DIRECTION('ref_axis',(0.707106781186549,0.,0.707106781186546));
#1114=DIRECTION('center_axis',(-6.66133814775095E-16,1.,0.));
#1115=DIRECTION('ref_axis',(0.707106781186549,0.,0.707106781186546));
#1116=DIRECTION('',(0.,1.,0.));
#1117=DIRECTION('center_axis',(1.70789664974865E-47,1.,4.92661467177413E-15));
#1118=DIRECTION('ref_axis',(0.707106781186549,0.,0.707106781186546));
#1119=DIRECTION('',(0.,-1.,0.));
#1120=DIRECTION('center_axis',(0.,-1.,-4.84460956200068E-15));
#1121=DIRECTION('ref_axis',(0.707106781186547,3.14018491736755E-15,-0.707106781186548));
#1122=DIRECTION('center_axis',(0.,1.,4.84460956200068E-15));
#1123=DIRECTION('ref_axis',(0.707106781186547,3.14018491736755E-15,-0.707106781186548));
#1124=DIRECTION('',(0.,1.,4.84460956200068E-15));
#1125=DIRECTION('center_axis',(1.70789664974865E-47,1.,4.92661467177413E-15));
#1126=DIRECTION('ref_axis',(0.707106781186547,3.14018491736755E-15,-0.707106781186548));
#1127=DIRECTION('',(0.,-1.,-4.84460956200068E-15));
#1128=DIRECTION('center_axis',(7.43101353155759E-45,4.84460956200068E-15,
-1.));
#1129=DIRECTION('ref_axis',(1.,-1.70789664975231E-47,7.43101353155759E-45));
#1130=DIRECTION('',(1.,-1.70789664975231E-47,7.43101353155759E-45));
#1131=DIRECTION('',(0.,1.,4.84460956200068E-15));
#1132=DIRECTION('',(1.,-1.70789664975231E-47,7.43101353155759E-45));
#1133=DIRECTION('center_axis',(0.,-1.,-4.84460956200068E-15));
#1134=DIRECTION('ref_axis',(-0.707106781186548,3.14018491736755E-15,-0.707106781186548));
#1135=DIRECTION('center_axis',(0.,1.,4.84460956200068E-15));
#1136=DIRECTION('ref_axis',(-0.707106781186548,3.14018491736755E-15,-0.707106781186548));
#1137=DIRECTION('center_axis',(1.70789664974865E-47,1.,4.92661467177413E-15));
#1138=DIRECTION('ref_axis',(-0.707106781186548,3.14018491736755E-15,-0.707106781186548));
#1139=DIRECTION('',(0.,-1.,-4.84460956200068E-15));
#1140=DIRECTION('center_axis',(-1.,1.06506872892125E-30,-2.19846143490129E-16));
#1141=DIRECTION('ref_axis',(2.19846143490129E-16,4.92661467177413E-15,-1.));
#1142=DIRECTION('',(2.19846143490129E-16,4.92661467177413E-15,-1.));
#1143=DIRECTION('',(0.,-1.,-4.84460956200068E-15));
#1144=DIRECTION('',(2.19846143490129E-16,4.92661467177413E-15,-1.));
#1145=DIRECTION('center_axis',(0.,-1.,-4.84460956200068E-15));
#1146=DIRECTION('ref_axis',(0.707106781186547,-3.14018491736755E-15,0.707106781186548));
#1147=DIRECTION('center_axis',(0.,1.,4.84460956200068E-15));
#1148=DIRECTION('ref_axis',(0.707106781186547,-3.14018491736755E-15,0.707106781186548));
#1149=DIRECTION('',(0.,1.,4.84460956200068E-15));
#1150=DIRECTION('center_axis',(1.70789664974865E-47,1.,4.92661467177413E-15));
#1151=DIRECTION('ref_axis',(0.707106781186547,-3.14018491736755E-15,0.707106781186548));
#1152=DIRECTION('',(0.,-1.,-4.84460956200068E-15));
#1153=DIRECTION('center_axis',(1.,1.06506872892125E-30,-2.19846143490129E-16));
#1154=DIRECTION('ref_axis',(2.19846143490129E-16,-4.92661467177413E-15,
1.));
#1155=DIRECTION('',(2.19846143490129E-16,-4.92661467177413E-15,1.));
#1156=DIRECTION('',(0.,-1.,-4.84460956200068E-15));
#1157=DIRECTION('',(2.19846143490129E-16,-4.92661467177413E-15,1.));
#1158=DIRECTION('center_axis',(0.,-1.,-4.84460956200068E-15));
#1159=DIRECTION('ref_axis',(-0.707106781186547,-3.14018491736755E-15,0.707106781186548));
#1160=DIRECTION('center_axis',(0.,1.,4.84460956200068E-15));
#1161=DIRECTION('ref_axis',(-0.707106781186547,-3.14018491736755E-15,0.707106781186548));
#1162=DIRECTION('',(0.,1.,4.84460956200068E-15));
#1163=DIRECTION('center_axis',(1.70789664974865E-47,1.,4.92661467177413E-15));
#1164=DIRECTION('ref_axis',(-0.707106781186547,-3.14018491736755E-15,0.707106781186548));
#1165=DIRECTION('',(0.,-1.,-4.84460956200068E-15));
#1166=DIRECTION('center_axis',(-7.43101353155759E-45,-4.84460956200068E-15,
1.));
#1167=DIRECTION('ref_axis',(-1.,1.70789664975231E-47,-7.43101353155759E-45));
#1168=DIRECTION('',(-1.,1.70789664975231E-47,-7.43101353155759E-45));
#1169=DIRECTION('',(-1.,1.70789664975231E-47,-7.43101353155759E-45));
#1170=DIRECTION('center_axis',(1.70789664974865E-47,1.,4.92661467177413E-15));
#1171=DIRECTION('ref_axis',(0.,-4.88498130835069E-15,1.));
#1172=DIRECTION('center_axis',(-1.70789664974865E-47,-1.,-4.92661467177413E-15));
#1173=DIRECTION('ref_axis',(1.,-1.70789664974865E-47,-8.41414869252558E-62));
#1174=DIRECTION('center_axis',(0.988681443792327,7.49550451712323E-16,-0.1500300060012));
#1175=DIRECTION('ref_axis',(0.,1.,4.99600361081321E-15));
#1176=DIRECTION('center_axis',(1.70789664974865E-47,1.,4.92661467177413E-15));
#1177=DIRECTION('ref_axis',(1.,0.,0.));
#1178=DIRECTION('center_axis',(0.988681443792327,-7.49550451712324E-16,
0.1500300060012));
#1179=DIRECTION('ref_axis',(0.1500300060012,4.9960036108132E-15,-0.988681443792327));
#1180=DIRECTION('center_axis',(1.70789664974865E-47,1.,4.92661467177413E-15));
#1181=DIRECTION('ref_axis',(0.,-4.92661467177413E-15,1.));
#1182=DIRECTION('center_axis',(-0.988681443792327,7.39140028771873E-16,
-0.1500300060012));
#1183=DIRECTION('ref_axis',(0.106087234624907,0.707106781186551,-0.699103353338857));
#1184=DIRECTION('center_axis',(0.988681443792327,-7.49550451712324E-16,
0.150030006001201));
#1185=DIRECTION('ref_axis',(0.150030006001201,4.9960036108132E-15,-0.988681443792327));
#1186=DIRECTION('',(0.988681443792327,-7.39140028771873E-16,0.1500300060012));
#1187=DIRECTION('',(-0.988681443792327,7.39140028771873E-16,-0.1500300060012));
#1188=DIRECTION('center_axis',(1.70789664974865E-47,1.,4.92661467177413E-15));
#1189=DIRECTION('ref_axis',(-1.,0.,6.12323399573674E-17));
#1190=DIRECTION('center_axis',(-0.988681443792327,-7.49550451712322E-16,
0.1500300060012));
#1191=DIRECTION('ref_axis',(0.1500300060012,-4.9960036108132E-15,0.988681443792327));
#1192=DIRECTION('center_axis',(-1.70789664974865E-47,-1.,-4.92661467177413E-15));
#1193=DIRECTION('ref_axis',(-1.,6.03336288842056E-31,-1.22464679914735E-16));
#1194=DIRECTION('center_axis',(1.70789664974865E-47,1.,4.92661467177413E-15));
#1195=DIRECTION('ref_axis',(-1.,0.,-1.22464679914735E-16));
#1196=DIRECTION('center_axis',(0.988681443792327,7.39140028771874E-16,-0.1500300060012));
#1197=DIRECTION('ref_axis',(0.106087234624907,0.707106781186543,0.699103353338865));
#1198=DIRECTION('',(-0.988681443792327,-7.39140028771874E-16,0.1500300060012));
#1199=DIRECTION('',(0.988681443792327,7.39140028771874E-16,-0.1500300060012));
#1200=DIRECTION('center_axis',(1.70789664974865E-47,1.,4.92661467177413E-15));
#1201=DIRECTION('ref_axis',(1.,-1.70789664975231E-47,7.43101353155759E-45));
#1202=DIRECTION('',(-1.,-1.08309723605143E-30,2.1984614349013E-16));
#1203=DIRECTION('',(-4.35381578284375E-15,4.92661467177413E-15,-1.));
#1204=DIRECTION('',(1.,5.41548618025716E-31,-1.09923071745065E-16));
#1205=DIRECTION('',(0.,-4.92661467177413E-15,1.));
#1206=DIRECTION('',(7.43101353155759E-45,4.92661467177413E-15,-1.));
#1207=DIRECTION('',(1.,-8.75142566729559E-31,1.77635683940025E-16));
#1208=DIRECTION('',(-7.43101353155759E-45,-4.92661467177413E-15,1.));
#1209=DIRECTION('',(-1.,1.70789664975231E-47,-7.43101353155759E-45));
#1210=DIRECTION('center_axis',(-1.70789664974865E-47,-1.,-4.92661467177413E-15));
#1211=DIRECTION('ref_axis',(1.,-1.70789664975231E-47,7.43101353155759E-45));
#1212=DIRECTION('center_axis',(-1.70789664974865E-47,-1.,-4.92661467177413E-15));
#1213=DIRECTION('ref_axis',(1.,-1.70789664975231E-47,7.43101353155759E-45));
#1214=DIRECTION('',(-2.19846143490129E-16,-4.92661467177413E-15,1.));
#1215=DIRECTION('',(-1.,1.70789664975231E-47,-7.43101353155759E-45));
#1216=DIRECTION('',(1.,-1.70789664975231E-47,7.43101353155759E-45));
#1217=DIRECTION('',(-2.19846143490129E-16,4.92661467177413E-15,-1.));
#1218=DIRECTION('center_axis',(2.1984614349013E-16,0.,1.));
#1219=DIRECTION('ref_axis',(-1.,-1.08309723605143E-30,2.1984614349013E-16));
#1220=DIRECTION('',(1.,6.66133814775095E-16,-2.1984614349013E-16));
#1221=DIRECTION('',(0.,-1.,0.));
#1222=DIRECTION('center_axis',(0.1500300060012,4.8708525066981E-15,-0.988681443792327));
#1223=DIRECTION('ref_axis',(-0.988681443792327,7.39140028771873E-16,-0.1500300060012));
#1224=DIRECTION('',(0.,1.,4.92661467177413E-15));
#1225=DIRECTION('',(0.,1.,4.92661467177413E-15));
#1226=DIRECTION('center_axis',(0.,1.,4.92661467177413E-15));
#1227=DIRECTION('ref_axis',(1.,-3.66088320642925E-59,7.43101353155759E-45));
#1228=DIRECTION('',(0.,1.,4.92661467177413E-15));
#1229=DIRECTION('center_axis',(-1.,0.,4.35381578284375E-15));
#1230=DIRECTION('ref_axis',(-4.35381578284375E-15,4.92661467177413E-15,
-1.));
#1231=DIRECTION('',(4.35381578284375E-15,2.90022391625373E-30,1.));
#1232=DIRECTION('',(0.,-1.,0.));
#1233=DIRECTION('center_axis',(1.,0.,0.));
#1234=DIRECTION('ref_axis',(0.,-4.92661467177413E-15,1.));
#1235=DIRECTION('',(0.,-1.,0.));
#1236=DIRECTION('',(0.,0.,-1.));
#1237=DIRECTION('center_axis',(-1.09923071745065E-16,0.,-1.));
#1238=DIRECTION('ref_axis',(1.,5.41548618025716E-31,-1.09923071745065E-16));
#1239=DIRECTION('',(-1.,-6.66133814775095E-16,1.09923071745065E-16));
#1240=DIRECTION('center_axis',(6.66133814775095E-16,-1.,0.));
#1241=DIRECTION('ref_axis',(0.,0.,-1.));
#1242=DIRECTION('center_axis',(7.43101353155759E-45,4.84460956200068E-15,
-1.));
#1243=DIRECTION('ref_axis',(1.,-1.70789664975231E-47,7.43101353155759E-45));
#1244=DIRECTION('',(0.,-1.,-4.84460956200068E-15));
#1245=DIRECTION('',(1.,-1.70789664975231E-47,7.43101353155759E-45));
#1246=DIRECTION('center_axis',(-1.,-1.06506872892125E-30,2.19846143490129E-16));
#1247=DIRECTION('ref_axis',(-2.19846143490129E-16,4.92661467177413E-15,
-1.));
#1248=DIRECTION('',(-2.19846143490129E-16,4.92661467177413E-15,-1.));
#1249=DIRECTION('center_axis',(0.,-1.,-4.84460956200068E-15));
#1250=DIRECTION('ref_axis',(0.,4.84460956200068E-15,-1.));
#1251=DIRECTION('center_axis',(1.,-1.06506872892125E-30,2.19846143490129E-16));
#1252=DIRECTION('ref_axis',(-2.19846143490129E-16,-4.92661467177413E-15,
1.));
#1253=DIRECTION('',(-2.19846143490129E-16,-4.92661467177413E-15,1.));
#1254=DIRECTION('',(0.,-1.,-4.84460956200068E-15));
#1255=DIRECTION('center_axis',(-7.43101353155759E-45,-4.84460956200068E-15,
1.));
#1256=DIRECTION('ref_axis',(-1.,1.70789664975231E-47,-7.43101353155759E-45));
#1257=DIRECTION('',(-1.,1.70789664975231E-47,-7.43101353155759E-45));
#1258=DIRECTION('center_axis',(0.,-1.,-4.84460956200068E-15));
#1259=DIRECTION('ref_axis',(0.,4.84460956200068E-15,-1.));
#1260=DIRECTION('center_axis',(7.43101353155759E-45,4.92661467177413E-15,
-1.));
#1261=DIRECTION('ref_axis',(-1.,1.70789664975231E-47,-7.43101353155759E-45));
#1262=DIRECTION('',(0.,1.,4.92661467177413E-15));
#1263=DIRECTION('',(0.,1.,4.92661467177413E-15));
#1264=DIRECTION('center_axis',(-1.,3.66097402907237E-59,-7.43101353155759E-45));
#1265=DIRECTION('ref_axis',(-7.43101353155759E-45,-4.92661467177413E-15,
1.));
#1266=DIRECTION('',(0.,1.,4.92661467177413E-15));
#1267=DIRECTION('center_axis',(-1.77635683940025E-16,-4.92661467177413E-15,
1.));
#1268=DIRECTION('ref_axis',(1.,-8.75142566729559E-31,1.77635683940025E-16));
#1269=DIRECTION('',(0.,1.,4.92661467177413E-15));
#1270=DIRECTION('center_axis',(1.,-3.66097402907237E-59,7.43101353155759E-45));
#1271=DIRECTION('ref_axis',(7.43101353155759E-45,4.92661467177413E-15,-1.));
#1272=DIRECTION('center_axis',(0.,1.,4.92661467177413E-15));
#1273=DIRECTION('ref_axis',(1.,-3.66081568239193E-59,7.43101353155759E-45));
#1274=DIRECTION('',(0.,-1.,-4.92661467177413E-15));
#1275=DIRECTION('center_axis',(0.,1.,4.92661467177413E-15));
#1276=DIRECTION('ref_axis',(1.,-3.66081568239195E-59,7.43101353155759E-45));
#1277=DIRECTION('',(0.,-1.,-4.92661467177413E-15));
#1278=DIRECTION('center_axis',(0.,1.,4.92661467177413E-15));
#1279=DIRECTION('ref_axis',(1.,-3.66112036402368E-59,7.43101353155759E-45));
#1280=DIRECTION('',(0.,-1.,-4.92661467177413E-15));
#1281=DIRECTION('center_axis',(0.1500300060012,-4.8708525066981E-15,0.988681443792327));
#1282=DIRECTION('ref_axis',(0.988681443792327,7.39140028771874E-16,-0.1500300060012));
#1283=DIRECTION('',(0.,1.,4.92661467177413E-15));
#1284=DIRECTION('center_axis',(0.,1.,4.92661467177413E-15));
#1285=DIRECTION('ref_axis',(-1.,6.03336288842057E-31,-1.22464679914735E-16));
#1286=CARTESIAN_POINT('',(0.,0.,0.));
#1287=CARTESIAN_POINT('Origin',(3.78164426319205,33.0000000000002,-6.55));
#1288=CARTESIAN_POINT('',(3.78164426319205,33.0000000000002,-6.55));
#1289=CARTESIAN_POINT('',(7.5632885263841,33.0000000000001,7.13205628606307E-15));
#1290=CARTESIAN_POINT('',(7.38393032899009,33.0000000000001,-0.310657510640379));
#1291=CARTESIAN_POINT('',(3.78164426319205,24.0000000000002,-6.55));
#1292=CARTESIAN_POINT('',(3.78164426319205,33.0000000000002,-6.55));
#1293=CARTESIAN_POINT('',(7.5632885263841,24.0000000000001,7.13205628606307E-15));
#1294=CARTESIAN_POINT('',(6.61787746058612,24.0000000000001,-1.63749999999993));
#1295=CARTESIAN_POINT('',(7.5632885263841,33.0000000000001,7.13205628606307E-15));
#1296=CARTESIAN_POINT('Origin',(-3.78164426319205,33.0000000000002,-6.55));
#1297=CARTESIAN_POINT('',(-3.78164426319205,33.0000000000002,-6.55));
#1298=CARTESIAN_POINT('',(8.73667786840398,33.0000000000002,-6.55));
#1299=CARTESIAN_POINT('',(-3.78164426319205,24.0000000000002,-6.55));
#1300=CARTESIAN_POINT('',(-3.78164426319205,33.0000000000002,-6.55));
#1301=CARTESIAN_POINT('',(1.89082213159603,24.0000000000002,-6.55));
#1302=CARTESIAN_POINT('Origin',(-7.5632885263841,33.0000000000001,-2.22044604925031E-15));
#1303=CARTESIAN_POINT('',(-7.5632885263841,33.0000000000001,-2.49985149229863E-15));
#1304=CARTESIAN_POINT('',(-3.96100246058612,33.0000000000002,-6.23934248935951));
#1305=CARTESIAN_POINT('',(-7.5632885263841,24.0000000000001,-2.49985149229863E-15));
#1306=CARTESIAN_POINT('',(-7.5632885263841,33.0000000000001,-2.49985149229863E-15));
#1307=CARTESIAN_POINT('',(-4.7270553289901,24.0000000000001,-4.91249999999994));
#1308=CARTESIAN_POINT('Origin',(-3.78164426319205,33.0000000000001,6.55));
#1309=CARTESIAN_POINT('',(-3.78164426319205,33.0000000000001,6.55));
#1310=CARTESIAN_POINT('',(-2.07018032899003,33.0000000000001,9.51434248935962));
#1311=CARTESIAN_POINT('',(-3.78164426319205,24.0000000000001,6.55));
#1312=CARTESIAN_POINT('',(-3.78164426319205,33.0000000000001,6.55));
#1313=CARTESIAN_POINT('',(-6.61787746058605,24.0000000000001,1.63750000000006));
#1314=CARTESIAN_POINT('Origin',(3.78164426319204,33.0000000000001,6.55));
#1315=CARTESIAN_POINT('',(3.78164426319204,33.0000000000001,6.55));
#1316=CARTESIAN_POINT('',(12.518322131596,33.0000000000001,6.55000000000001));
#1317=CARTESIAN_POINT('',(3.78164426319204,24.0000000000001,6.55));
#1318=CARTESIAN_POINT('',(3.78164426319204,33.0000000000001,6.55));
#1319=CARTESIAN_POINT('',(-1.89082213159603,24.0000000000001,6.55));
#1320=CARTESIAN_POINT('Origin',(7.5632885263841,33.0000000000001,6.10622663543836E-15));
#1321=CARTESIAN_POINT('',(9.27475246058606,33.0000000000001,-2.9643424893595));
#1322=CARTESIAN_POINT('',(4.72705532899002,24.0000000000001,4.91250000000007));
#1323=CARTESIAN_POINT('Origin',(0.,24.0000000000001,1.11022302462516E-15));
#1324=CARTESIAN_POINT('',(-4.09999999999999,24.0000000000001,1.19846815849597E-13));
#1325=CARTESIAN_POINT('Origin',(8.88178419700125E-15,24.0000000000001,1.19344710661947E-13));
#1326=CARTESIAN_POINT('Origin',(63.,19.0000000000001,19.));
#1327=CARTESIAN_POINT('',(58.9999999999999,18.,19.));
#1328=CARTESIAN_POINT('Origin',(63.,18.,19.));
#1329=CARTESIAN_POINT('',(61.,20.0000000000002,19.));
#1330=CARTESIAN_POINT('',(59.9999999999999,19.0000000000001,19.));
#1331=CARTESIAN_POINT('Origin',(63.,20.0000000000002,19.));
#1332=CARTESIAN_POINT('Origin',(21.255,18.0000000000001,8.86790640919349E-14));
#1333=CARTESIAN_POINT('',(7.13642528505701,18.0000000000004,-46.9623685801354));
#1334=CARTESIAN_POINT('',(7.13642528505702,17.9999999999999,46.9623685801356));
#1335=CARTESIAN_POINT('Origin',(0.01,18.0000000000001,8.86796764153344E-14));
#1336=CARTESIAN_POINT('',(56.001200240048,18.0000000000003,-39.547257751693));
#1337=CARTESIAN_POINT('',(7.13642528505701,18.0000000000004,-46.9623685801354));
#1338=CARTESIAN_POINT('',(56.001200240048,17.9999999999999,39.5472577516932));
#1339=CARTESIAN_POINT('Origin',(50.,18.0000000000001,9.17406810898033E-14));
#1340=CARTESIAN_POINT('',(56.001200240048,17.9999999999999,39.5472577516932));
#1341=CARTESIAN_POINT('',(-3.99999999999999,18.0000000000003,-32.0249999999999));
#1342=CARTESIAN_POINT('Origin',(3.87309232304948E-15,18.0000000000003,-32.0249999999999));
#1343=CARTESIAN_POINT('',(14.0750022834375,18.,26.2336367179672));
#1344=CARTESIAN_POINT('',(14.0750022834375,18.0000000000001,1.73363671796719));
#1345=CARTESIAN_POINT('',(14.0750022834375,18.0000000000001,1.73363671796719));
#1346=CARTESIAN_POINT('',(26.5750022834375,18.,26.2336367179672));
#1347=CARTESIAN_POINT('',(14.0750022834375,18.,26.2336367179672));
#1348=CARTESIAN_POINT('',(26.5750022834375,18.0000000000001,1.73363671796719));
#1349=CARTESIAN_POINT('',(26.5750022834375,18.,26.2336367179672));
#1350=CARTESIAN_POINT('',(26.5750022834375,18.0000000000001,1.73363671796719));
#1351=CARTESIAN_POINT('',(19.4250022834375,18.0000000000001,0.133636717967192));
#1352=CARTESIAN_POINT('Origin',(20.3250022834375,18.0000000000001,0.133636717967192));
#1353=CARTESIAN_POINT('',(19.4250022834375,18.,27.8336367179672));
#1354=CARTESIAN_POINT('Origin',(20.3250022834375,18.,27.8336367179672));
#1355=CARTESIAN_POINT('',(-4.09999999999999,18.0000000000001,9.02871278189522E-14));
#1356=CARTESIAN_POINT('Origin',(8.88178419700125E-15,18.0000000000001,8.97850226313018E-14));
#1357=CARTESIAN_POINT('',(-4.,18.,32.0250000000001));
#1358=CARTESIAN_POINT('Origin',(-2.37704944884172E-43,18.,32.0250000000001));
#1359=CARTESIAN_POINT('Origin',(63.,0.,19.));
#1360=CARTESIAN_POINT('',(61.,22.0000000000001,19.));
#1361=CARTESIAN_POINT('',(61.,0.,19.));
#1362=CARTESIAN_POINT('Origin',(63.,22.0000000000001,19.));
#1363=CARTESIAN_POINT('Origin',(3.87309232304948E-15,19.0000000000003,-32.0249999999999));
#1364=CARTESIAN_POINT('',(-2.,20.0000000000003,-32.0249999999999));
#1365=CARTESIAN_POINT('',(-2.99999999999999,19.0000000000003,-32.0249999999999));
#1366=CARTESIAN_POINT('Origin',(3.87309232304948E-15,20.0000000000003,-32.0249999999999));
#1367=CARTESIAN_POINT('Origin',(3.87309232304948E-15,18.0000000000003,-32.0249999999999));
#1368=CARTESIAN_POINT('',(-2.,22.0000000000003,-32.0249999999999));
#1369=CARTESIAN_POINT('',(-2.,18.0000000000003,-32.0249999999999));
#1370=CARTESIAN_POINT('Origin',(3.87309232304948E-15,22.0000000000003,-32.0249999999999));
#1371=CARTESIAN_POINT('Origin',(-2.37687865917675E-43,19.,32.0250000000001));
#1372=CARTESIAN_POINT('',(-2.,20.,32.0250000000001));
#1373=CARTESIAN_POINT('',(-3.,19.,32.0250000000001));
#1374=CARTESIAN_POINT('Origin',(-2.37670786951177E-43,20.,32.0250000000001));
#1375=CARTESIAN_POINT('Origin',(-2.37670786951177E-43,18.,32.0250000000001));
#1376=CARTESIAN_POINT('',(-2.,22.,32.0250000000001));
#1377=CARTESIAN_POINT('',(-2.,18.,32.0250000000001));
#1378=CARTESIAN_POINT('Origin',(-2.37670786951177E-43,22.,32.0250000000001));
#1379=CARTESIAN_POINT('Origin',(71.1,33.,22.1));
#1380=CARTESIAN_POINT('',(71.1,22.0000000000001,24.1));
#1381=CARTESIAN_POINT('',(73.1,22.0000000000001,22.1));
#1382=CARTESIAN_POINT('Origin',(71.1,22.0000000000001,22.1));
#1383=CARTESIAN_POINT('',(71.1000000027774,32.999937799116,24.1));
#1384=CARTESIAN_POINT('',(71.1,33.,24.1));
#1385=CARTESIAN_POINT('',(73.099487229999,33.,22.1452859478291));
#1386=CARTESIAN_POINT('Ctrl Pts',(71.1000000027777,32.9999377991232,24.1));
#1387=CARTESIAN_POINT('Ctrl Pts',(71.3449188346588,32.9993015934888,24.0999999996599));
#1388=CARTESIAN_POINT('Ctrl Pts',(71.5879417791047,32.9940656234703,24.0550101562788));
#1389=CARTESIAN_POINT('Ctrl Pts',(72.0638871461418,32.9845626420927,23.8722630436065));
#1390=CARTESIAN_POINT('Ctrl Pts',(72.2896611489077,32.9807115878722,23.7293457770592));
#1391=CARTESIAN_POINT('Ctrl Pts',(72.4811071628774,32.9807115878722,23.5465624786537));
#1392=CARTESIAN_POINT('Ctrl Pts',(72.5990735854093,32.9807115878722,23.4339339032952));
#1393=CARTESIAN_POINT('Ctrl Pts',(72.7028017238661,32.9820774422963,23.3073193092805));
#1394=CARTESIAN_POINT('Ctrl Pts',(72.8806435824547,32.9868080717358,23.0263017928875));
#1395=CARTESIAN_POINT('Ctrl Pts',(72.9527004360282,32.9902222595644,22.8721503189335));
#1396=CARTESIAN_POINT('Ctrl Pts',(73.0631969573858,32.9968915904932,22.5276211995821));
#1397=CARTESIAN_POINT('Ctrl Pts',(73.0951418699409,33.,22.3371444019878));
#1398=CARTESIAN_POINT('Ctrl Pts',(73.099487229999,33.,22.1452859478308));
#1399=CARTESIAN_POINT('',(73.1,33.,22.1));
#1400=CARTESIAN_POINT('Origin',(71.1,33.0000000000001,22.1));
#1401=CARTESIAN_POINT('',(73.1,33.,22.1));
#1402=CARTESIAN_POINT('Origin',(9.05,33.0000000000003,-35.0749999999999));
#1403=CARTESIAN_POINT('',(11.05,22.0000000000003,-35.075));
#1404=CARTESIAN_POINT('',(9.05,22.0000000000003,-37.075));
#1405=CARTESIAN_POINT('Origin',(9.05,22.0000000000003,-35.075));
#1406=CARTESIAN_POINT('',(11.05,33.0000000000003,-35.0749999999999));
#1407=CARTESIAN_POINT('',(11.05,33.0000000000003,-35.0749999999999));
#1408=CARTESIAN_POINT('',(9.05,33.0000000000003,-37.0749999999999));
#1409=CARTESIAN_POINT('Origin',(9.05,33.0000000000003,-35.0749999999999));
#1410=CARTESIAN_POINT('',(9.05,33.0000000000003,-37.0749999999999));
#1411=CARTESIAN_POINT('Origin',(-11.05,33.0000000000003,-37.0749999999999));
#1412=CARTESIAN_POINT('',(-9.05,33.0000000000003,-37.0749999999999));
#1413=CARTESIAN_POINT('',(5.1025,33.0000000000003,-37.0749999999999));
#1414=CARTESIAN_POINT('',(-9.05,22.0000000000003,-37.075));
#1415=CARTESIAN_POINT('',(-9.05,33.0000000000003,-37.0749999999999));
#1416=CARTESIAN_POINT('',(5.525,22.0000000000003,-37.075));
#1417=CARTESIAN_POINT('Origin',(-9.05,33.0000000000003,-35.0749999999999));
#1418=CARTESIAN_POINT('',(-11.05,22.0000000000003,-35.075));
#1419=CARTESIAN_POINT('Origin',(-9.05,22.0000000000003,-35.075));
#1420=CARTESIAN_POINT('',(-11.05,33.0000000000003,-35.0749999999999));
#1421=CARTESIAN_POINT('Origin',(-9.05,33.0000000000003,-35.0749999999999));
#1422=CARTESIAN_POINT('',(-11.05,33.0000000000003,-35.0749999999999));
#1423=CARTESIAN_POINT('Origin',(-11.05,33.0000000000002,-26.9749999999999));
#1424=CARTESIAN_POINT('',(-11.05,33.0000000000003,-26.9749999999999));
#1425=CARTESIAN_POINT('',(-11.05,33.0000000000002,-13.4874999999998));
#1426=CARTESIAN_POINT('',(-11.05,22.0000000000003,-26.9749999999999));
#1427=CARTESIAN_POINT('',(-11.05,33.0000000000003,-26.9749999999999));
#1428=CARTESIAN_POINT('',(-11.05,22.0000000000002,-18.5374999999999));
#1429=CARTESIAN_POINT('Origin',(9.05,33.,35.0750000000002));
#1430=CARTESIAN_POINT('',(9.05,21.9999999999999,37.0750000000002));
#1431=CARTESIAN_POINT('',(11.05,22.,35.0750000000002));
#1432=CARTESIAN_POINT('Origin',(9.05,22.,35.0750000000002));
#1433=CARTESIAN_POINT('',(9.05,32.9999999999999,37.0750000000002));
#1434=CARTESIAN_POINT('',(9.05,32.9999999999999,37.0750000000002));
#1435=CARTESIAN_POINT('',(11.05,33.,35.0750000000002));
#1436=CARTESIAN_POINT('Origin',(9.05,33.,35.0750000000002));
#1437=CARTESIAN_POINT('',(11.05,33.,35.0750000000002));
#1438=CARTESIAN_POINT('Origin',(11.05,33.,26.9750000000002));
#1439=CARTESIAN_POINT('',(11.05,33.,26.9750000000002));
#1440=CARTESIAN_POINT('',(11.05,33.0000000000001,13.4875000000002));
#1441=CARTESIAN_POINT('',(11.05,22.,26.9750000000001));
#1442=CARTESIAN_POINT('',(11.05,33.,26.9750000000002));
#1443=CARTESIAN_POINT('',(11.05,22.,18.5375000000001));
#1444=CARTESIAN_POINT('Origin',(-9.05,33.,35.0750000000002));
#1445=CARTESIAN_POINT('',(-11.05,22.,35.0750000000002));
#1446=CARTESIAN_POINT('',(-9.05,21.9999999999999,37.0750000000002));
#1447=CARTESIAN_POINT('Origin',(-9.05,22.,35.0750000000002));
#1448=CARTESIAN_POINT('',(-11.05,33.,35.0750000000002));
#1449=CARTESIAN_POINT('',(-11.05,33.,35.0750000000002));
#1450=CARTESIAN_POINT('',(-9.05,32.9999999999999,37.0750000000002));
#1451=CARTESIAN_POINT('Origin',(-9.05,33.,35.0750000000002));
#1452=CARTESIAN_POINT('',(-9.05,32.9999999999999,37.0750000000002));
#1453=CARTESIAN_POINT('Origin',(11.05,32.9999999999999,37.0750000000002));
#1454=CARTESIAN_POINT('',(-5.525,21.9999999999999,37.0750000000002));
#1455=CARTESIAN_POINT('',(16.1525,32.9999999999999,37.0750000000002));
#1456=CARTESIAN_POINT('Origin',(50.,25.0000000000001,1.26226983792222E-13));
#1457=CARTESIAN_POINT('',(71.0520782822031,33.,24.1));
#1458=CARTESIAN_POINT('Ctrl Pts',(71.1000000027774,32.9999377991232,24.1));
#1459=CARTESIAN_POINT('Ctrl Pts',(71.083995594877,32.9999793724658,24.1));
#1460=CARTESIAN_POINT('Ctrl Pts',(71.0680214442072,33.,24.1));
#1461=CARTESIAN_POINT('Ctrl Pts',(71.0520782822031,33.,24.1));
#1462=CARTESIAN_POINT('',(54.8009601920384,33.,31.6378062013546));
#1463=CARTESIAN_POINT('Origin',(50.,33.0000000000001,1.65639901166415E-13));
#1464=CARTESIAN_POINT('',(56.001200240048,24.9999999999999,39.5472577516932));
#1465=CARTESIAN_POINT('Origin',(54.8009601920384,25.,31.6378062013546));
#1466=CARTESIAN_POINT('',(56.001200240048,25.0000000000003,-39.547257751693));
#1467=CARTESIAN_POINT('Origin',(50.,25.0000000000001,1.26226983792222E-13));
#1468=CARTESIAN_POINT('',(54.8009601920384,33.0000000000003,-31.6378062013543));
#1469=CARTESIAN_POINT('Origin',(54.8009601920384,25.0000000000003,-31.6378062013543));
#1470=CARTESIAN_POINT('Origin',(50.,33.0000000000001,1.65639901166415E-13));
#1471=CARTESIAN_POINT('Origin',(40.7519708333545,25.0000000000003,-33.7697061889876));
#1472=CARTESIAN_POINT('',(7.13642528505701,25.0000000000004,-46.9623685801354));
#1473=CARTESIAN_POINT('',(5.93618523704741,33.0000000000003,-39.0529170297967));
#1474=CARTESIAN_POINT('Origin',(5.93618523704741,25.0000000000003,-39.0529170297968));
#1475=CARTESIAN_POINT('',(40.7519708333545,33.0000000000003,-33.7697061889876));
#1476=CARTESIAN_POINT('',(41.9522108813641,25.0000000000003,-41.6791577393263));
#1477=CARTESIAN_POINT('Origin',(0.01,25.0000000000001,1.23165979117753E-13));
#1478=CARTESIAN_POINT('',(7.13642528505702,24.9999999999999,46.9623685801357));
#1479=CARTESIAN_POINT('',(5.93618523704741,32.9999999999999,39.0529170297971));
#1480=CARTESIAN_POINT('Origin',(5.93618523704741,24.9999999999999,39.052917029797));
#1481=CARTESIAN_POINT('Origin',(0.01,33.0000000000001,1.62578896491946E-13));
#1482=CARTESIAN_POINT('Origin',(0.01,25.0000000000001,1.23165979117753E-13));
#1483=CARTESIAN_POINT('Origin',(16.319583355859,24.9999999999999,37.4772616032091));
#1484=CARTESIAN_POINT('',(16.319583355859,32.9999999999999,37.4772616032092));
#1485=CARTESIAN_POINT('',(17.5198234038686,24.9999999999999,45.3867131535477));
#1486=CARTESIAN_POINT('Origin',(21.255,33.0000000000001,1.62578284168547E-13));
#1487=CARTESIAN_POINT('',(52.9,33.,24.1));
#1488=CARTESIAN_POINT('',(47.1775,33.,24.1));
#1489=CARTESIAN_POINT('',(52.9,33.0000000000001,13.9));
#1490=CARTESIAN_POINT('',(52.9,33.0000000000001,12.05));
#1491=CARTESIAN_POINT('',(73.1,33.0000000000001,13.9));
#1492=CARTESIAN_POINT('',(37.0775,33.0000000000001,13.9));
#1493=CARTESIAN_POINT('',(73.1,33.0000000000001,6.95000000000009));
#1494=CARTESIAN_POINT('',(14.0750022834375,33.,26.2336367179673));
#1495=CARTESIAN_POINT('',(14.0750022834375,33.0000000000001,1.73363671796726));
#1496=CARTESIAN_POINT('',(14.0750022834375,33.0000000000001,1.73363671796726));
#1497=CARTESIAN_POINT('',(26.5750022834375,33.0000000000001,1.73363671796727));
#1498=CARTESIAN_POINT('',(26.5750022834375,33.0000000000001,1.73363671796727));
#1499=CARTESIAN_POINT('',(26.5750022834375,33.,26.2336367179673));
#1500=CARTESIAN_POINT('',(26.5750022834375,33.,26.2336367179673));
#1501=CARTESIAN_POINT('',(14.0750022834375,33.,26.2336367179673));
#1502=CARTESIAN_POINT('',(19.4250022834375,33.0000000000001,0.133636717967266));
#1503=CARTESIAN_POINT('Origin',(20.3250022834375,33.0000000000001,0.133636717967265));
#1504=CARTESIAN_POINT('',(19.4250022834375,33.,27.8336367179673));
#1505=CARTESIAN_POINT('Origin',(20.3250022834375,33.,27.8336367179673));
#1506=CARTESIAN_POINT('',(11.05,33.0000000000003,-26.9749999999999));
#1507=CARTESIAN_POINT('',(11.05,33.0000000000002,-18.5374999999999));
#1508=CARTESIAN_POINT('',(16.1525,33.0000000000003,-26.9749999999999));
#1509=CARTESIAN_POINT('',(-11.05,33.,26.9750000000002));
#1510=CARTESIAN_POINT('',(5.1025,33.,26.9750000000002));
#1511=CARTESIAN_POINT('',(-11.05,33.,18.5375000000002));
#1512=CARTESIAN_POINT('Origin',(73.1,33.,24.1));
#1513=CARTESIAN_POINT('',(52.9,22.0000000000001,24.1));
#1514=CARTESIAN_POINT('',(68.05,22.0000000000001,24.1));
#1515=CARTESIAN_POINT('',(52.9,33.,24.1));
#1516=CARTESIAN_POINT('Origin',(56.001200240048,18.0000000000003,-39.547257751693));
#1517=CARTESIAN_POINT('',(56.001200240048,18.0000000000003,-39.547257751693));
#1518=CARTESIAN_POINT('',(7.13642528505701,18.0000000000004,-46.9623685801354));
#1519=CARTESIAN_POINT('Origin',(50.,18.0000000000001,9.17406810898033E-14));
#1520=CARTESIAN_POINT('',(56.001200240048,17.9999999999999,39.5472577516932));
#1521=CARTESIAN_POINT('Origin',(52.9,33.,24.1));
#1522=CARTESIAN_POINT('',(52.9,22.0000000000001,13.9));
#1523=CARTESIAN_POINT('',(52.9,22.0000000000001,21.55));
#1524=CARTESIAN_POINT('',(52.9,33.0000000000001,13.9));
#1525=CARTESIAN_POINT('Origin',(73.1,33.,13.9));
#1526=CARTESIAN_POINT('',(73.1,22.0000000000001,13.9));
#1527=CARTESIAN_POINT('',(73.1,33.0000000000001,13.9));
#1528=CARTESIAN_POINT('',(73.1,22.0000000000001,16.45));
#1529=CARTESIAN_POINT('Origin',(52.9,33.,13.9));
#1530=CARTESIAN_POINT('',(57.95,22.0000000000001,13.9));
#1531=CARTESIAN_POINT('Origin',(63.,22.0000000000001,19.));
#1532=CARTESIAN_POINT('Origin',(-11.05,33.,26.9750000000002));
#1533=CARTESIAN_POINT('',(-11.05,22.,26.9750000000001));
#1534=CARTESIAN_POINT('',(-11.05,33.,26.9750000000002));
#1535=CARTESIAN_POINT('',(5.525,22.,26.9750000000001));
#1536=CARTESIAN_POINT('Origin',(-11.05,32.9999999999999,37.0750000000002));
#1537=CARTESIAN_POINT('',(-11.05,22.0000000000001,13.4875000000001));
#1538=CARTESIAN_POINT('Origin',(-2.22044604925031E-15,22.0000000000001,
1.02140518265514E-13));
#1539=CARTESIAN_POINT('Origin',(11.05,33.0000000000003,-37.0749999999999));
#1540=CARTESIAN_POINT('',(11.05,22.0000000000003,-26.9749999999999));
#1541=CARTESIAN_POINT('',(11.05,22.0000000000002,-13.4874999999999));
#1542=CARTESIAN_POINT('',(11.05,33.0000000000003,-26.9749999999999));
#1543=CARTESIAN_POINT('Origin',(11.05,33.0000000000003,-26.9749999999999));
#1544=CARTESIAN_POINT('',(-5.525,22.0000000000003,-26.9749999999999));
#1545=CARTESIAN_POINT('Origin',(-2.22044604925031E-15,22.0000000000001,
1.02140518265514E-13));
#1546=CARTESIAN_POINT('Origin',(26.5750022834375,18.,26.2336367179672));
#1547=CARTESIAN_POINT('',(14.0750022834375,18.,26.2336367179672));
#1548=CARTESIAN_POINT('',(26.5750022834375,18.,26.2336367179672));
#1549=CARTESIAN_POINT('Origin',(26.5750022834375,18.0000000000001,1.73363671796719));
#1550=CARTESIAN_POINT('',(26.5750022834375,18.0000000000001,1.73363671796719));
#1551=CARTESIAN_POINT('Origin',(14.0750022834375,18.0000000000001,1.73363671796719));
#1552=CARTESIAN_POINT('',(14.0750022834375,18.0000000000001,1.73363671796719));
#1553=CARTESIAN_POINT('Origin',(14.0750022834375,18.,26.2336367179672));
#1554=CARTESIAN_POINT('Origin',(20.3250022834375,18.0000000000001,0.133636717967192));
#1555=CARTESIAN_POINT('',(19.4250022834375,18.0000000000001,0.133636717967192));
#1556=CARTESIAN_POINT('Origin',(20.3250022834375,18.,27.8336367179672));
#1557=CARTESIAN_POINT('',(19.4250022834375,18.,27.8336367179672));
#1558=CARTESIAN_POINT('Origin',(8.88178419700125E-15,18.0000000000001,8.97850226313018E-14));
#1559=CARTESIAN_POINT('',(-4.09999999999999,18.0000000000001,9.02871278189522E-14));
#1560=CARTESIAN_POINT('Origin',(7.13642528505702,17.9999999999999,46.9623685801356));
#1561=CARTESIAN_POINT('',(7.13642528505702,17.9999999999999,46.9623685801356));
#1562=CARTESIAN_POINT('Origin',(0.01,18.0000000000001,8.86796764153344E-14));
#1563=UNCERTAINTY_MEASURE_WITH_UNIT(LENGTH_MEASURE(0.01),#1567,
'DISTANCE_ACCURACY_VALUE',
'Maximum model space distance between geometric entities at asserted c
onnectivities');
#1564=UNCERTAINTY_MEASURE_WITH_UNIT(LENGTH_MEASURE(0.01),#1567,
'DISTANCE_ACCURACY_VALUE',
'Maximum model space distance between geometric entities at asserted c
onnectivities');
#1565=(
GEOMETRIC_REPRESENTATION_CONTEXT(3)
GLOBAL_UNCERTAINTY_ASSIGNED_CONTEXT((#1563))
GLOBAL_UNIT_ASSIGNED_CONTEXT((#1567,#1568,#1569))
REPRESENTATION_CONTEXT('','3D')
);
#1566=(
GEOMETRIC_REPRESENTATION_CONTEXT(3)
GLOBAL_UNCERTAINTY_ASSIGNED_CONTEXT((#1564))
GLOBAL_UNIT_ASSIGNED_CONTEXT((#1567,#1568,#1569))
REPRESENTATION_CONTEXT('','3D')
);
#1567=(
LENGTH_UNIT()
NAMED_UNIT(*)
SI_UNIT(.MILLI.,.METRE.)
);
#1568=(
NAMED_UNIT(*)
PLANE_ANGLE_UNIT()
SI_UNIT($,.RADIAN.)
);
#1569=(
NAMED_UNIT(*)
SI_UNIT($,.STERADIAN.)
SOLID_ANGLE_UNIT()
);
#1570=SHAPE_DEFINITION_REPRESENTATION(#1571,#1572);
#1571=PRODUCT_DEFINITION_SHAPE('',$,#1574);
#1572=SHAPE_REPRESENTATION('',(#935),#1565);
#1573=PRODUCT_DEFINITION_CONTEXT('part definition',#1578,'design');
#1574=PRODUCT_DEFINITION('pan','pan v59',#1575,#1573);
#1575=PRODUCT_DEFINITION_FORMATION('',$,#1580);
#1576=PRODUCT_RELATED_PRODUCT_CATEGORY('pan v59','pan v59',(#1580));
#1577=APPLICATION_PROTOCOL_DEFINITION('international standard',
'automotive_design',2009,#1578);
#1578=APPLICATION_CONTEXT(
'Core Data for Automotive Mechanical Design Process');
#1579=PRODUCT_CONTEXT('part definition',#1578,'mechanical');
#1580=PRODUCT('pan','pan v59',$,(#1579));
#1581=PRESENTATION_STYLE_ASSIGNMENT((#1582));
#1582=SURFACE_STYLE_USAGE(.BOTH.,#1583);
#1583=SURFACE_SIDE_STYLE('',(#1584));
#1584=SURFACE_STYLE_FILL_AREA(#1585);
#1585=FILL_AREA_STYLE('Acero - Satinado',(#1586));
#1586=FILL_AREA_STYLE_COLOUR('Acero - Satinado',#1587);
#1587=COLOUR_RGB('Acero - Satinado',0.627450980392157,0.627450980392157,
0.627450980392157);
ENDSEC;
END-ISO-10303-21;
