ISO-10303-21;
HEADER;
/* Generated by software containing ST-Developer
 * from STEP Tools, Inc. (www.steptools.com) 
 */

FILE_DESCRIPTION(
/* description */ (''),
/* implementation_level */ '2;1');

FILE_NAME(
/* name */ 'pins_.step',
/* time_stamp */ '2026-09-25T21:15:57+02:00',
/* author */ (''),
/* organization */ (''),
/* preprocessor_version */ 'ST-DEVELOPER v20.2',
/* originating_system */ 'Autodesk Translation Framework v15.15.0.0',
/* authorisation */ '');

FILE_SCHEMA (('AUTOMOTIVE_DESIGN { 1 0 10303 214 3 1 1 }'));
ENDSEC;

DATA;
#10=MECHANICAL_DESIGN_GEOMETRIC_PRESENTATION_REPRESENTATION('',(#13,#14),
#642);
#11=SHAPE_REPRESENTATION_RELATIONSHIP('SRR','None',#648,#12);
#12=ADVANCED_BREP_SHAPE_REPRESENTATION('',(#15,#16),#641);
#13=STYLED_ITEM('',(#657),#15);
#14=STYLED_ITEM('',(#657),#16);
#15=MANIFOLD_SOLID_BREP('Cuerpo2',#379);
#16=MANIFOLD_SOLID_BREP('Cuerpo3',#380);
#17=FACE_BOUND('',#76,.T.);
#18=FACE_BOUND('',#81,.T.);
#19=FACE_BOUND('',#87,.T.);
#20=FACE_BOUND('',#92,.T.);
#21=FACE_BOUND('',#97,.T.);
#22=FACE_BOUND('',#103,.T.);
#23=PLANE('',#387);
#24=PLANE('',#391);
#25=PLANE('',#395);
#26=PLANE('',#396);
#27=PLANE('',#397);
#28=PLANE('',#398);
#29=PLANE('',#399);
#30=PLANE('',#400);
#31=PLANE('',#401);
#32=PLANE('',#407);
#33=PLANE('',#411);
#34=PLANE('',#415);
#35=PLANE('',#416);
#36=PLANE('',#417);
#37=PLANE('',#418);
#38=PLANE('',#419);
#39=PLANE('',#420);
#40=PLANE('',#421);
#41=CYLINDRICAL_SURFACE('',#385,3.15);
#42=CYLINDRICAL_SURFACE('',#389,1.);
#43=CYLINDRICAL_SURFACE('',#392,3.9);
#44=CYLINDRICAL_SURFACE('',#405,3.15);
#45=CYLINDRICAL_SURFACE('',#409,1.);
#46=CYLINDRICAL_SURFACE('',#412,3.9);
#47=FACE_OUTER_BOUND('',#73,.T.);
#48=FACE_OUTER_BOUND('',#74,.T.);
#49=FACE_OUTER_BOUND('',#75,.T.);
#50=FACE_OUTER_BOUND('',#77,.T.);
#51=FACE_OUTER_BOUND('',#78,.T.);
#52=FACE_OUTER_BOUND('',#79,.T.);
#53=FACE_OUTER_BOUND('',#80,.T.);
#54=FACE_OUTER_BOUND('',#82,.T.);
#55=FACE_OUTER_BOUND('',#83,.T.);
#56=FACE_OUTER_BOUND('',#84,.T.);
#57=FACE_OUTER_BOUND('',#85,.T.);
#58=FACE_OUTER_BOUND('',#86,.T.);
#59=FACE_OUTER_BOUND('',#88,.T.);
#60=FACE_OUTER_BOUND('',#89,.T.);
#61=FACE_OUTER_BOUND('',#90,.T.);
#62=FACE_OUTER_BOUND('',#91,.T.);
#63=FACE_OUTER_BOUND('',#93,.T.);
#64=FACE_OUTER_BOUND('',#94,.T.);
#65=FACE_OUTER_BOUND('',#95,.T.);
#66=FACE_OUTER_BOUND('',#96,.T.);
#67=FACE_OUTER_BOUND('',#98,.T.);
#68=FACE_OUTER_BOUND('',#99,.T.);
#69=FACE_OUTER_BOUND('',#100,.T.);
#70=FACE_OUTER_BOUND('',#101,.T.);
#71=FACE_OUTER_BOUND('',#102,.T.);
#72=FACE_OUTER_BOUND('',#104,.T.);
#73=EDGE_LOOP('',(#259,#260,#261,#262));
#74=EDGE_LOOP('',(#263,#264,#265,#266));
#75=EDGE_LOOP('',(#267));
#76=EDGE_LOOP('',(#268));
#77=EDGE_LOOP('',(#269,#270,#271,#272));
#78=EDGE_LOOP('',(#273));
#79=EDGE_LOOP('',(#274,#275,#276,#277));
#80=EDGE_LOOP('',(#278));
#81=EDGE_LOOP('',(#279));
#82=EDGE_LOOP('',(#280,#281,#282,#283));
#83=EDGE_LOOP('',(#284,#285,#286,#287));
#84=EDGE_LOOP('',(#288,#289,#290,#291));
#85=EDGE_LOOP('',(#292,#293,#294,#295));
#86=EDGE_LOOP('',(#296,#297,#298,#299));
#87=EDGE_LOOP('',(#300));
#88=EDGE_LOOP('',(#301,#302,#303,#304));
#89=EDGE_LOOP('',(#305,#306,#307,#308));
#90=EDGE_LOOP('',(#309,#310,#311,#312));
#91=EDGE_LOOP('',(#313));
#92=EDGE_LOOP('',(#314));
#93=EDGE_LOOP('',(#315,#316,#317,#318));
#94=EDGE_LOOP('',(#319));
#95=EDGE_LOOP('',(#320,#321,#322,#323));
#96=EDGE_LOOP('',(#324));
#97=EDGE_LOOP('',(#325));
#98=EDGE_LOOP('',(#326,#327,#328,#329));
#99=EDGE_LOOP('',(#330,#331,#332,#333));
#100=EDGE_LOOP('',(#334,#335,#336,#337));
#101=EDGE_LOOP('',(#338,#339,#340,#341));
#102=EDGE_LOOP('',(#342,#343,#344,#345));
#103=EDGE_LOOP('',(#346));
#104=EDGE_LOOP('',(#347,#348,#349,#350));
#105=LINE('',#541,#137);
#106=LINE('',#545,#138);
#107=LINE('',#552,#139);
#108=LINE('',#559,#140);
#109=LINE('',#565,#141);
#110=LINE('',#567,#142);
#111=LINE('',#569,#143);
#112=LINE('',#570,#144);
#113=LINE('',#573,#145);
#114=LINE('',#575,#146);
#115=LINE('',#576,#147);
#116=LINE('',#579,#148);
#117=LINE('',#581,#149);
#118=LINE('',#582,#150);
#119=LINE('',#584,#151);
#120=LINE('',#585,#152);
#121=LINE('',#592,#153);
#122=LINE('',#596,#154);
#123=LINE('',#603,#155);
#124=LINE('',#610,#156);
#125=LINE('',#616,#157);
#126=LINE('',#618,#158);
#127=LINE('',#620,#159);
#128=LINE('',#621,#160);
#129=LINE('',#624,#161);
#130=LINE('',#626,#162);
#131=LINE('',#627,#163);
#132=LINE('',#630,#164);
#133=LINE('',#632,#165);
#134=LINE('',#633,#166);
#135=LINE('',#635,#167);
#136=LINE('',#636,#168);
#137=VECTOR('',#428,2.9);
#138=VECTOR('',#433,3.15);
#139=VECTOR('',#442,1.);
#140=VECTOR('',#451,3.9);
#141=VECTOR('',#458,10.);
#142=VECTOR('',#459,10.);
#143=VECTOR('',#460,10.);
#144=VECTOR('',#461,10.);
#145=VECTOR('',#464,10.);
#146=VECTOR('',#465,10.);
#147=VECTOR('',#466,10.);
#148=VECTOR('',#469,10.);
#149=VECTOR('',#470,10.);
#150=VECTOR('',#471,10.);
#151=VECTOR('',#474,10.);
#152=VECTOR('',#475,10.);
#153=VECTOR('',#484,2.9);
#154=VECTOR('',#489,3.15);
#155=VECTOR('',#498,1.);
#156=VECTOR('',#507,3.9);
#157=VECTOR('',#514,10.);
#158=VECTOR('',#515,10.);
#159=VECTOR('',#516,10.);
#160=VECTOR('',#517,10.);
#161=VECTOR('',#520,10.);
#162=VECTOR('',#521,10.);
#163=VECTOR('',#522,10.);
#164=VECTOR('',#525,10.);
#165=VECTOR('',#526,10.);
#166=VECTOR('',#527,10.);
#167=VECTOR('',#530,10.);
#168=VECTOR('',#531,10.);
#169=CIRCLE('',#383,2.65);
#170=CIRCLE('',#384,3.15);
#171=CIRCLE('',#386,3.15);
#172=CIRCLE('',#388,1.);
#173=CIRCLE('',#390,1.);
#174=CIRCLE('',#393,3.9);
#175=CIRCLE('',#394,3.9);
#176=CIRCLE('',#403,2.65);
#177=CIRCLE('',#404,3.15);
#178=CIRCLE('',#406,3.15);
#179=CIRCLE('',#408,1.);
#180=CIRCLE('',#410,1.);
#181=CIRCLE('',#413,3.9);
#182=CIRCLE('',#414,3.9);
#183=VERTEX_POINT('',#538);
#184=VERTEX_POINT('',#540);
#185=VERTEX_POINT('',#544);
#186=VERTEX_POINT('',#548);
#187=VERTEX_POINT('',#551);
#188=VERTEX_POINT('',#556);
#189=VERTEX_POINT('',#558);
#190=VERTEX_POINT('',#563);
#191=VERTEX_POINT('',#564);
#192=VERTEX_POINT('',#566);
#193=VERTEX_POINT('',#568);
#194=VERTEX_POINT('',#572);
#195=VERTEX_POINT('',#574);
#196=VERTEX_POINT('',#578);
#197=VERTEX_POINT('',#580);
#198=VERTEX_POINT('',#589);
#199=VERTEX_POINT('',#591);
#200=VERTEX_POINT('',#595);
#201=VERTEX_POINT('',#599);
#202=VERTEX_POINT('',#602);
#203=VERTEX_POINT('',#607);
#204=VERTEX_POINT('',#609);
#205=VERTEX_POINT('',#614);
#206=VERTEX_POINT('',#615);
#207=VERTEX_POINT('',#617);
#208=VERTEX_POINT('',#619);
#209=VERTEX_POINT('',#623);
#210=VERTEX_POINT('',#625);
#211=VERTEX_POINT('',#629);
#212=VERTEX_POINT('',#631);
#213=EDGE_CURVE('',#183,#183,#169,.T.);
#214=EDGE_CURVE('',#183,#184,#105,.T.);
#215=EDGE_CURVE('',#184,#184,#170,.T.);
#216=EDGE_CURVE('',#184,#185,#106,.T.);
#217=EDGE_CURVE('',#185,#185,#171,.T.);
#218=EDGE_CURVE('',#186,#186,#172,.T.);
#219=EDGE_CURVE('',#186,#187,#107,.T.);
#220=EDGE_CURVE('',#187,#187,#173,.T.);
#221=EDGE_CURVE('',#188,#188,#174,.T.);
#222=EDGE_CURVE('',#188,#189,#108,.T.);
#223=EDGE_CURVE('',#189,#189,#175,.T.);
#224=EDGE_CURVE('',#190,#191,#109,.T.);
#225=EDGE_CURVE('',#192,#191,#110,.T.);
#226=EDGE_CURVE('',#192,#193,#111,.T.);
#227=EDGE_CURVE('',#193,#190,#112,.T.);
#228=EDGE_CURVE('',#191,#194,#113,.T.);
#229=EDGE_CURVE('',#195,#194,#114,.T.);
#230=EDGE_CURVE('',#195,#192,#115,.T.);
#231=EDGE_CURVE('',#194,#196,#116,.T.);
#232=EDGE_CURVE('',#197,#196,#117,.T.);
#233=EDGE_CURVE('',#197,#195,#118,.T.);
#234=EDGE_CURVE('',#196,#190,#119,.T.);
#235=EDGE_CURVE('',#193,#197,#120,.T.);
#236=EDGE_CURVE('',#198,#198,#176,.T.);
#237=EDGE_CURVE('',#198,#199,#121,.T.);
#238=EDGE_CURVE('',#199,#199,#177,.T.);
#239=EDGE_CURVE('',#199,#200,#122,.T.);
#240=EDGE_CURVE('',#200,#200,#178,.T.);
#241=EDGE_CURVE('',#201,#201,#179,.T.);
#242=EDGE_CURVE('',#201,#202,#123,.T.);
#243=EDGE_CURVE('',#202,#202,#180,.T.);
#244=EDGE_CURVE('',#203,#203,#181,.T.);
#245=EDGE_CURVE('',#203,#204,#124,.T.);
#246=EDGE_CURVE('',#204,#204,#182,.T.);
#247=EDGE_CURVE('',#205,#206,#125,.T.);
#248=EDGE_CURVE('',#207,#205,#126,.T.);
#249=EDGE_CURVE('',#208,#207,#127,.T.);
#250=EDGE_CURVE('',#208,#206,#128,.T.);
#251=EDGE_CURVE('',#206,#209,#129,.T.);
#252=EDGE_CURVE('',#210,#208,#130,.T.);
#253=EDGE_CURVE('',#210,#209,#131,.T.);
#254=EDGE_CURVE('',#209,#211,#132,.T.);
#255=EDGE_CURVE('',#212,#210,#133,.T.);
#256=EDGE_CURVE('',#212,#211,#134,.T.);
#257=EDGE_CURVE('',#211,#205,#135,.T.);
#258=EDGE_CURVE('',#207,#212,#136,.T.);
#259=ORIENTED_EDGE('',*,*,#213,.T.);
#260=ORIENTED_EDGE('',*,*,#214,.T.);
#261=ORIENTED_EDGE('',*,*,#215,.T.);
#262=ORIENTED_EDGE('',*,*,#214,.F.);
#263=ORIENTED_EDGE('',*,*,#215,.F.);
#264=ORIENTED_EDGE('',*,*,#216,.T.);
#265=ORIENTED_EDGE('',*,*,#217,.F.);
#266=ORIENTED_EDGE('',*,*,#216,.F.);
#267=ORIENTED_EDGE('',*,*,#213,.F.);
#268=ORIENTED_EDGE('',*,*,#218,.T.);
#269=ORIENTED_EDGE('',*,*,#218,.F.);
#270=ORIENTED_EDGE('',*,*,#219,.T.);
#271=ORIENTED_EDGE('',*,*,#220,.T.);
#272=ORIENTED_EDGE('',*,*,#219,.F.);
#273=ORIENTED_EDGE('',*,*,#220,.F.);
#274=ORIENTED_EDGE('',*,*,#221,.F.);
#275=ORIENTED_EDGE('',*,*,#222,.T.);
#276=ORIENTED_EDGE('',*,*,#223,.F.);
#277=ORIENTED_EDGE('',*,*,#222,.F.);
#278=ORIENTED_EDGE('',*,*,#221,.T.);
#279=ORIENTED_EDGE('',*,*,#217,.T.);
#280=ORIENTED_EDGE('',*,*,#224,.T.);
#281=ORIENTED_EDGE('',*,*,#225,.F.);
#282=ORIENTED_EDGE('',*,*,#226,.T.);
#283=ORIENTED_EDGE('',*,*,#227,.T.);
#284=ORIENTED_EDGE('',*,*,#228,.T.);
#285=ORIENTED_EDGE('',*,*,#229,.F.);
#286=ORIENTED_EDGE('',*,*,#230,.T.);
#287=ORIENTED_EDGE('',*,*,#225,.T.);
#288=ORIENTED_EDGE('',*,*,#231,.T.);
#289=ORIENTED_EDGE('',*,*,#232,.F.);
#290=ORIENTED_EDGE('',*,*,#233,.T.);
#291=ORIENTED_EDGE('',*,*,#229,.T.);
#292=ORIENTED_EDGE('',*,*,#234,.T.);
#293=ORIENTED_EDGE('',*,*,#227,.F.);
#294=ORIENTED_EDGE('',*,*,#235,.T.);
#295=ORIENTED_EDGE('',*,*,#232,.T.);
#296=ORIENTED_EDGE('',*,*,#224,.F.);
#297=ORIENTED_EDGE('',*,*,#234,.F.);
#298=ORIENTED_EDGE('',*,*,#231,.F.);
#299=ORIENTED_EDGE('',*,*,#228,.F.);
#300=ORIENTED_EDGE('',*,*,#223,.T.);
#301=ORIENTED_EDGE('',*,*,#235,.F.);
#302=ORIENTED_EDGE('',*,*,#226,.F.);
#303=ORIENTED_EDGE('',*,*,#230,.F.);
#304=ORIENTED_EDGE('',*,*,#233,.F.);
#305=ORIENTED_EDGE('',*,*,#236,.F.);
#306=ORIENTED_EDGE('',*,*,#237,.T.);
#307=ORIENTED_EDGE('',*,*,#238,.F.);
#308=ORIENTED_EDGE('',*,*,#237,.F.);
#309=ORIENTED_EDGE('',*,*,#238,.T.);
#310=ORIENTED_EDGE('',*,*,#239,.T.);
#311=ORIENTED_EDGE('',*,*,#240,.T.);
#312=ORIENTED_EDGE('',*,*,#239,.F.);
#313=ORIENTED_EDGE('',*,*,#236,.T.);
#314=ORIENTED_EDGE('',*,*,#241,.F.);
#315=ORIENTED_EDGE('',*,*,#241,.T.);
#316=ORIENTED_EDGE('',*,*,#242,.T.);
#317=ORIENTED_EDGE('',*,*,#243,.F.);
#318=ORIENTED_EDGE('',*,*,#242,.F.);
#319=ORIENTED_EDGE('',*,*,#243,.T.);
#320=ORIENTED_EDGE('',*,*,#244,.T.);
#321=ORIENTED_EDGE('',*,*,#245,.T.);
#322=ORIENTED_EDGE('',*,*,#246,.T.);
#323=ORIENTED_EDGE('',*,*,#245,.F.);
#324=ORIENTED_EDGE('',*,*,#244,.F.);
#325=ORIENTED_EDGE('',*,*,#240,.F.);
#326=ORIENTED_EDGE('',*,*,#247,.F.);
#327=ORIENTED_EDGE('',*,*,#248,.F.);
#328=ORIENTED_EDGE('',*,*,#249,.F.);
#329=ORIENTED_EDGE('',*,*,#250,.T.);
#330=ORIENTED_EDGE('',*,*,#251,.F.);
#331=ORIENTED_EDGE('',*,*,#250,.F.);
#332=ORIENTED_EDGE('',*,*,#252,.F.);
#333=ORIENTED_EDGE('',*,*,#253,.T.);
#334=ORIENTED_EDGE('',*,*,#254,.F.);
#335=ORIENTED_EDGE('',*,*,#253,.F.);
#336=ORIENTED_EDGE('',*,*,#255,.F.);
#337=ORIENTED_EDGE('',*,*,#256,.T.);
#338=ORIENTED_EDGE('',*,*,#257,.F.);
#339=ORIENTED_EDGE('',*,*,#256,.F.);
#340=ORIENTED_EDGE('',*,*,#258,.F.);
#341=ORIENTED_EDGE('',*,*,#248,.T.);
#342=ORIENTED_EDGE('',*,*,#247,.T.);
#343=ORIENTED_EDGE('',*,*,#251,.T.);
#344=ORIENTED_EDGE('',*,*,#254,.T.);
#345=ORIENTED_EDGE('',*,*,#257,.T.);
#346=ORIENTED_EDGE('',*,*,#246,.F.);
#347=ORIENTED_EDGE('',*,*,#258,.T.);
#348=ORIENTED_EDGE('',*,*,#255,.T.);
#349=ORIENTED_EDGE('',*,*,#252,.T.);
#350=ORIENTED_EDGE('',*,*,#249,.T.);
#351=CONICAL_SURFACE('',#382,2.9,0.785398163397451);
#352=CONICAL_SURFACE('',#402,2.9,0.785398163397451);
#353=ADVANCED_FACE('',(#47),#351,.T.);
#354=ADVANCED_FACE('',(#48),#41,.T.);
#355=ADVANCED_FACE('',(#49,#17),#23,.T.);
#356=ADVANCED_FACE('',(#50),#42,.F.);
#357=ADVANCED_FACE('',(#51),#24,.T.);
#358=ADVANCED_FACE('',(#52),#43,.T.);
#359=ADVANCED_FACE('',(#53,#18),#25,.T.);
#360=ADVANCED_FACE('',(#54),#26,.T.);
#361=ADVANCED_FACE('',(#55),#27,.T.);
#362=ADVANCED_FACE('',(#56),#28,.T.);
#363=ADVANCED_FACE('',(#57),#29,.T.);
#364=ADVANCED_FACE('',(#58,#19),#30,.F.);
#365=ADVANCED_FACE('',(#59),#31,.T.);
#366=ADVANCED_FACE('',(#60),#352,.T.);
#367=ADVANCED_FACE('',(#61),#44,.T.);
#368=ADVANCED_FACE('',(#62,#20),#32,.F.);
#369=ADVANCED_FACE('',(#63),#45,.F.);
#370=ADVANCED_FACE('',(#64),#33,.F.);
#371=ADVANCED_FACE('',(#65),#46,.T.);
#372=ADVANCED_FACE('',(#66,#21),#34,.F.);
#373=ADVANCED_FACE('',(#67),#35,.F.);
#374=ADVANCED_FACE('',(#68),#36,.F.);
#375=ADVANCED_FACE('',(#69),#37,.F.);
#376=ADVANCED_FACE('',(#70),#38,.F.);
#377=ADVANCED_FACE('',(#71,#22),#39,.T.);
#378=ADVANCED_FACE('',(#72),#40,.F.);
#379=CLOSED_SHELL('',(#353,#354,#355,#356,#357,#358,#359,#360,#361,#362,
#363,#364,#365));
#380=CLOSED_SHELL('',(#366,#367,#368,#369,#370,#371,#372,#373,#374,#375,
#376,#377,#378));
#381=AXIS2_PLACEMENT_3D('',#536,#422,#423);
#382=AXIS2_PLACEMENT_3D('',#537,#424,#425);
#383=AXIS2_PLACEMENT_3D('',#539,#426,#427);
#384=AXIS2_PLACEMENT_3D('',#542,#429,#430);
#385=AXIS2_PLACEMENT_3D('',#543,#431,#432);
#386=AXIS2_PLACEMENT_3D('',#546,#434,#435);
#387=AXIS2_PLACEMENT_3D('',#547,#436,#437);
#388=AXIS2_PLACEMENT_3D('',#549,#438,#439);
#389=AXIS2_PLACEMENT_3D('',#550,#440,#441);
#390=AXIS2_PLACEMENT_3D('',#553,#443,#444);
#391=AXIS2_PLACEMENT_3D('',#554,#445,#446);
#392=AXIS2_PLACEMENT_3D('',#555,#447,#448);
#393=AXIS2_PLACEMENT_3D('',#557,#449,#450);
#394=AXIS2_PLACEMENT_3D('',#560,#452,#453);
#395=AXIS2_PLACEMENT_3D('',#561,#454,#455);
#396=AXIS2_PLACEMENT_3D('',#562,#456,#457);
#397=AXIS2_PLACEMENT_3D('',#571,#462,#463);
#398=AXIS2_PLACEMENT_3D('',#577,#467,#468);
#399=AXIS2_PLACEMENT_3D('',#583,#472,#473);
#400=AXIS2_PLACEMENT_3D('',#586,#476,#477);
#401=AXIS2_PLACEMENT_3D('',#587,#478,#479);
#402=AXIS2_PLACEMENT_3D('',#588,#480,#481);
#403=AXIS2_PLACEMENT_3D('',#590,#482,#483);
#404=AXIS2_PLACEMENT_3D('',#593,#485,#486);
#405=AXIS2_PLACEMENT_3D('',#594,#487,#488);
#406=AXIS2_PLACEMENT_3D('',#597,#490,#491);
#407=AXIS2_PLACEMENT_3D('',#598,#492,#493);
#408=AXIS2_PLACEMENT_3D('',#600,#494,#495);
#409=AXIS2_PLACEMENT_3D('',#601,#496,#497);
#410=AXIS2_PLACEMENT_3D('',#604,#499,#500);
#411=AXIS2_PLACEMENT_3D('',#605,#501,#502);
#412=AXIS2_PLACEMENT_3D('',#606,#503,#504);
#413=AXIS2_PLACEMENT_3D('',#608,#505,#506);
#414=AXIS2_PLACEMENT_3D('',#611,#508,#509);
#415=AXIS2_PLACEMENT_3D('',#612,#510,#511);
#416=AXIS2_PLACEMENT_3D('',#613,#512,#513);
#417=AXIS2_PLACEMENT_3D('',#622,#518,#519);
#418=AXIS2_PLACEMENT_3D('',#628,#523,#524);
#419=AXIS2_PLACEMENT_3D('',#634,#528,#529);
#420=AXIS2_PLACEMENT_3D('',#637,#532,#533);
#421=AXIS2_PLACEMENT_3D('',#638,#534,#535);
#422=DIRECTION('axis',(0.,0.,1.));
#423=DIRECTION('refdir',(1.,0.,0.));
#424=DIRECTION('center_axis',(-1.,0.,0.));
#425=DIRECTION('ref_axis',(0.,1.,0.));
#426=DIRECTION('center_axis',(-1.,0.,0.));
#427=DIRECTION('ref_axis',(0.,1.,0.));
#428=DIRECTION('',(-0.707106781186546,-0.707106781186549,-8.65956056235495E-17));
#429=DIRECTION('center_axis',(1.,0.,0.));
#430=DIRECTION('ref_axis',(0.,1.,0.));
#431=DIRECTION('center_axis',(1.,0.,0.));
#432=DIRECTION('ref_axis',(0.,1.,0.));
#433=DIRECTION('',(-1.,0.,0.));
#434=DIRECTION('center_axis',(-1.,0.,0.));
#435=DIRECTION('ref_axis',(0.,1.,0.));
#436=DIRECTION('center_axis',(1.,0.,0.));
#437=DIRECTION('ref_axis',(0.,0.,-1.));
#438=DIRECTION('center_axis',(-1.,0.,0.));
#439=DIRECTION('ref_axis',(0.,1.,0.));
#440=DIRECTION('center_axis',(-1.,0.,0.));
#441=DIRECTION('ref_axis',(0.,1.,0.));
#442=DIRECTION('',(-1.,0.,0.));
#443=DIRECTION('center_axis',(-1.,0.,0.));
#444=DIRECTION('ref_axis',(0.,1.,0.));
#445=DIRECTION('center_axis',(1.,0.,0.));
#446=DIRECTION('ref_axis',(0.,0.,-1.));
#447=DIRECTION('center_axis',(1.,0.,0.));
#448=DIRECTION('ref_axis',(0.,1.,0.));
#449=DIRECTION('center_axis',(1.,0.,0.));
#450=DIRECTION('ref_axis',(0.,1.,0.));
#451=DIRECTION('',(-1.,0.,0.));
#452=DIRECTION('center_axis',(-1.,0.,0.));
#453=DIRECTION('ref_axis',(0.,1.,0.));
#454=DIRECTION('center_axis',(1.,0.,0.));
#455=DIRECTION('ref_axis',(0.,0.,-1.));
#456=DIRECTION('center_axis',(0.499999999999999,0.612372435695794,0.612372435695796));
#457=DIRECTION('ref_axis',(0.,-0.707106781186549,0.707106781186546));
#458=DIRECTION('',(0.,0.707106781186549,-0.707106781186546));
#459=DIRECTION('',(0.774596669241483,-0.632455532033676,4.0132169326193E-16));
#460=DIRECTION('',(0.,-0.707106781186549,0.707106781186546));
#461=DIRECTION('',(0.774596669241483,2.80925185283351E-15,-0.632455532033676));
#462=DIRECTION('center_axis',(0.499999999999999,0.612372435695793,-0.612372435695797));
#463=DIRECTION('ref_axis',(0.,0.70710678118655,0.707106781186545));
#464=DIRECTION('',(0.,-0.70710678118655,-0.707106781186545));
#465=DIRECTION('',(0.774596669241484,1.83461345491168E-15,0.632455532033675));
#466=DIRECTION('',(0.,0.70710678118655,0.707106781186545));
#467=DIRECTION('center_axis',(0.499999999999999,-0.612372435695797,-0.612372435695793));
#468=DIRECTION('ref_axis',(0.,0.707106781186545,-0.70710678118655));
#469=DIRECTION('',(0.,-0.707106781186545,0.70710678118655));
#470=DIRECTION('',(0.774596669241485,0.632455532033674,1.1466334093198E-16));
#471=DIRECTION('',(0.,0.707106781186545,-0.70710678118655));
#472=DIRECTION('center_axis',(0.5,-0.612372435695798,0.612372435695791));
#473=DIRECTION('ref_axis',(0.,-0.707106781186544,-0.707106781186551));
#474=DIRECTION('',(0.,0.707106781186544,0.707106781186551));
#475=DIRECTION('',(0.,-0.707106781186544,-0.707106781186551));
#476=DIRECTION('center_axis',(-1.,0.,0.));
#477=DIRECTION('ref_axis',(0.,0.,1.));
#478=DIRECTION('center_axis',(-1.,0.,0.));
#479=DIRECTION('ref_axis',(0.,0.,1.));
#480=DIRECTION('center_axis',(1.,0.,0.));
#481=DIRECTION('ref_axis',(0.,1.,0.));
#482=DIRECTION('center_axis',(-1.,0.,0.));
#483=DIRECTION('ref_axis',(0.,1.,0.));
#484=DIRECTION('',(0.707106781186546,-0.707106781186549,-8.65956056235495E-17));
#485=DIRECTION('center_axis',(1.,0.,0.));
#486=DIRECTION('ref_axis',(0.,1.,0.));
#487=DIRECTION('center_axis',(1.,0.,0.));
#488=DIRECTION('ref_axis',(0.,1.,0.));
#489=DIRECTION('',(1.,0.,0.));
#490=DIRECTION('center_axis',(-1.,0.,0.));
#491=DIRECTION('ref_axis',(0.,1.,0.));
#492=DIRECTION('center_axis',(1.,0.,0.));
#493=DIRECTION('ref_axis',(0.,0.,-1.));
#494=DIRECTION('center_axis',(-1.,0.,0.));
#495=DIRECTION('ref_axis',(0.,1.,0.));
#496=DIRECTION('center_axis',(-1.,0.,0.));
#497=DIRECTION('ref_axis',(0.,1.,0.));
#498=DIRECTION('',(1.,0.,0.));
#499=DIRECTION('center_axis',(-1.,0.,0.));
#500=DIRECTION('ref_axis',(0.,1.,0.));
#501=DIRECTION('center_axis',(1.,0.,0.));
#502=DIRECTION('ref_axis',(0.,0.,-1.));
#503=DIRECTION('center_axis',(1.,0.,0.));
#504=DIRECTION('ref_axis',(0.,1.,0.));
#505=DIRECTION('center_axis',(1.,0.,0.));
#506=DIRECTION('ref_axis',(0.,1.,0.));
#507=DIRECTION('',(1.,0.,0.));
#508=DIRECTION('center_axis',(-1.,0.,0.));
#509=DIRECTION('ref_axis',(0.,1.,0.));
#510=DIRECTION('center_axis',(1.,0.,0.));
#511=DIRECTION('ref_axis',(0.,0.,-1.));
#512=DIRECTION('center_axis',(0.499999999999999,-0.612372435695794,-0.612372435695796));
#513=DIRECTION('ref_axis',(0.,-0.707106781186549,0.707106781186546));
#514=DIRECTION('',(0.,0.707106781186549,-0.707106781186546));
#515=DIRECTION('',(-0.774596669241483,2.80925185283351E-15,-0.632455532033676));
#516=DIRECTION('',(0.,-0.707106781186549,0.707106781186546));
#517=DIRECTION('',(-0.774596669241483,-0.632455532033676,4.0132169326193E-16));
#518=DIRECTION('center_axis',(0.499999999999999,-0.612372435695793,0.612372435695797));
#519=DIRECTION('ref_axis',(0.,0.70710678118655,0.707106781186545));
#520=DIRECTION('',(0.,-0.70710678118655,-0.707106781186545));
#521=DIRECTION('',(0.,0.70710678118655,0.707106781186545));
#522=DIRECTION('',(-0.774596669241484,1.83461345491168E-15,0.632455532033675));
#523=DIRECTION('center_axis',(0.499999999999999,0.612372435695797,0.612372435695793));
#524=DIRECTION('ref_axis',(0.,0.707106781186545,-0.70710678118655));
#525=DIRECTION('',(0.,-0.707106781186545,0.70710678118655));
#526=DIRECTION('',(0.,0.707106781186545,-0.70710678118655));
#527=DIRECTION('',(-0.774596669241485,0.632455532033674,1.1466334093198E-16));
#528=DIRECTION('center_axis',(0.5,0.612372435695798,-0.612372435695791));
#529=DIRECTION('ref_axis',(0.,-0.707106781186544,-0.707106781186551));
#530=DIRECTION('',(0.,0.707106781186544,0.707106781186551));
#531=DIRECTION('',(0.,-0.707106781186544,-0.707106781186551));
#532=DIRECTION('center_axis',(-1.,0.,0.));
#533=DIRECTION('ref_axis',(0.,0.,1.));
#534=DIRECTION('center_axis',(-1.,0.,0.));
#535=DIRECTION('ref_axis',(0.,0.,1.));
#536=CARTESIAN_POINT('',(0.,0.,0.));
#537=CARTESIAN_POINT('Origin',(31.3862685714724,4.271,-11.7421659981702));
#538=CARTESIAN_POINT('',(31.6362685714724,1.621,-11.7421659981702));
#539=CARTESIAN_POINT('Origin',(31.6362685714724,4.271,-11.7421659981702));
#540=CARTESIAN_POINT('',(31.1362685714724,1.121,-11.7421659981702));
#541=CARTESIAN_POINT('',(31.3862685714724,1.371,-11.7421659981702));
#542=CARTESIAN_POINT('Origin',(31.1362685714724,4.271,-11.7421659981702));
#543=CARTESIAN_POINT('Origin',(26.6362685714724,4.271,-11.7421659981702));
#544=CARTESIAN_POINT('',(26.6362685714724,1.121,-11.7421659981702));
#545=CARTESIAN_POINT('',(26.6362685714724,1.121,-11.7421659981702));
#546=CARTESIAN_POINT('Origin',(26.6362685714724,4.271,-11.7421659981702));
#547=CARTESIAN_POINT('Origin',(31.6362685714724,4.271,-11.7421659981702));
#548=CARTESIAN_POINT('',(31.6362685714724,3.271,-11.7421659981702));
#549=CARTESIAN_POINT('Origin',(31.6362685714724,4.271,-11.7421659981702));
#550=CARTESIAN_POINT('Origin',(31.6362685714724,4.271,-11.7421659981702));
#551=CARTESIAN_POINT('',(25.6362685714724,3.271,-11.7421659981702));
#552=CARTESIAN_POINT('',(31.6362685714724,3.271,-11.7421659981702));
#553=CARTESIAN_POINT('Origin',(25.6362685714724,4.271,-11.7421659981702));
#554=CARTESIAN_POINT('Origin',(25.6362685714724,4.271,-11.7421659981702));
#555=CARTESIAN_POINT('Origin',(22.0362685714724,4.271,-11.7421659981702));
#556=CARTESIAN_POINT('',(26.6362685714724,0.370999999999998,-11.7421659981702));
#557=CARTESIAN_POINT('Origin',(26.6362685714724,4.271,-11.7421659981702));
#558=CARTESIAN_POINT('',(22.0362685714724,0.370999999999998,-11.7421659981702));
#559=CARTESIAN_POINT('',(22.0362685714724,0.370999999999998,-11.7421659981702));
#560=CARTESIAN_POINT('Origin',(22.0362685714724,4.271,-11.7421659981702));
#561=CARTESIAN_POINT('Origin',(26.6362685714724,4.271,-11.7421659981702));
#562=CARTESIAN_POINT('Origin',(20.0362685714724,4.27100000000003,-4.44927277935667));
#563=CARTESIAN_POINT('',(22.0362685714724,4.27100000000003,-6.08226594121213));
#564=CARTESIAN_POINT('',(22.0362685714724,9.93090005695811,-11.7421659981702));
#565=CARTESIAN_POINT('',(22.0362685714724,8.92417333318246,-10.7354392743945));
#566=CARTESIAN_POINT('',(20.0362685714724,11.5638932188136,-11.7421659981702));
#567=CARTESIAN_POINT('',(21.8226552849421,10.1053145750509,-11.7421659981702));
#568=CARTESIAN_POINT('',(20.0362685714724,4.27100000000003,-4.44927277935667));
#569=CARTESIAN_POINT('',(20.0362685714724,9.74066991411019,-9.91894269346681));
#570=CARTESIAN_POINT('',(21.8226552849421,4.27100000000003,-5.90785142311938));
#571=CARTESIAN_POINT('Origin',(20.0362685714724,11.5638932188136,-11.7421659981702));
#572=CARTESIAN_POINT('',(22.0362685714724,4.271,-17.4020660551283));
#573=CARTESIAN_POINT('',(22.0362685714724,5.27772672377567,-16.3953393313526));
#574=CARTESIAN_POINT('',(20.0362685714724,4.27099999999999,-19.0350592169837));
#575=CARTESIAN_POINT('',(21.8226552849421,4.271,-17.576480573221));
#576=CARTESIAN_POINT('',(20.0362685714724,6.09422330470339,-17.2118359122803));
#577=CARTESIAN_POINT('Origin',(20.0362685714724,4.27099999999999,-19.0350592169837));
#578=CARTESIAN_POINT('',(22.0362685714724,-1.388900056958,-11.7421659981702));
#579=CARTESIAN_POINT('',(22.0362685714724,-0.382173333182363,-12.7488927219459));
#580=CARTESIAN_POINT('',(20.0362685714724,-3.02189321881345,-11.7421659981702));
#581=CARTESIAN_POINT('',(21.8226552849421,-1.56331457505077,-11.7421659981702));
#582=CARTESIAN_POINT('',(20.0362685714724,-1.19866991411009,-13.5653893028736));
#583=CARTESIAN_POINT('Origin',(20.0362685714724,-3.02189321881345,-11.7421659981702));
#584=CARTESIAN_POINT('',(22.0362685714724,3.26427327622439,-7.08899266498779));
#585=CARTESIAN_POINT('',(20.0362685714724,2.44777669529665,-6.27249608406007));
#586=CARTESIAN_POINT('Origin',(22.0362685714724,4.27100000000006,-11.7421659981702));
#587=CARTESIAN_POINT('Origin',(20.0362685714724,4.27100000000006,-11.7421659981702));
#588=CARTESIAN_POINT('Origin',(-33.1137314285276,4.271,-11.7421659981702));
#589=CARTESIAN_POINT('',(-33.3637314285276,1.621,-11.7421659981702));
#590=CARTESIAN_POINT('Origin',(-33.3637314285276,4.271,-11.7421659981702));
#591=CARTESIAN_POINT('',(-32.8637314285276,1.121,-11.7421659981702));
#592=CARTESIAN_POINT('',(-33.1137314285276,1.371,-11.7421659981702));
#593=CARTESIAN_POINT('Origin',(-32.8637314285276,4.271,-11.7421659981702));
#594=CARTESIAN_POINT('Origin',(-28.3637314285276,4.271,-11.7421659981702));
#595=CARTESIAN_POINT('',(-28.3637314285276,1.121,-11.7421659981702));
#596=CARTESIAN_POINT('',(-28.3637314285276,1.121,-11.7421659981702));
#597=CARTESIAN_POINT('Origin',(-28.3637314285276,4.271,-11.7421659981702));
#598=CARTESIAN_POINT('Origin',(-33.3637314285276,4.271,-11.7421659981702));
#599=CARTESIAN_POINT('',(-33.3637314285276,3.271,-11.7421659981702));
#600=CARTESIAN_POINT('Origin',(-33.3637314285276,4.271,-11.7421659981702));
#601=CARTESIAN_POINT('Origin',(-33.3637314285276,4.271,-11.7421659981702));
#602=CARTESIAN_POINT('',(-27.3637314285276,3.271,-11.7421659981702));
#603=CARTESIAN_POINT('',(-33.3637314285276,3.271,-11.7421659981702));
#604=CARTESIAN_POINT('Origin',(-27.3637314285276,4.271,-11.7421659981702));
#605=CARTESIAN_POINT('Origin',(-27.3637314285276,4.271,-11.7421659981702));
#606=CARTESIAN_POINT('Origin',(-23.7637314285276,4.271,-11.7421659981702));
#607=CARTESIAN_POINT('',(-28.3637314285276,0.370999999999998,-11.7421659981702));
#608=CARTESIAN_POINT('Origin',(-28.3637314285276,4.271,-11.7421659981702));
#609=CARTESIAN_POINT('',(-23.7637314285276,0.370999999999998,-11.7421659981702));
#610=CARTESIAN_POINT('',(-23.7637314285276,0.370999999999998,-11.7421659981702));
#611=CARTESIAN_POINT('Origin',(-23.7637314285276,4.271,-11.7421659981702));
#612=CARTESIAN_POINT('Origin',(-28.3637314285276,4.271,-11.7421659981702));
#613=CARTESIAN_POINT('Origin',(-21.7637314285276,4.27100000000003,-4.44927277935667));
#614=CARTESIAN_POINT('',(-23.7637314285276,4.27100000000003,-6.08226594121213));
#615=CARTESIAN_POINT('',(-23.7637314285276,9.93090005695811,-11.7421659981702));
#616=CARTESIAN_POINT('',(-23.7637314285276,8.92417333318246,-10.7354392743945));
#617=CARTESIAN_POINT('',(-21.7637314285276,4.27100000000003,-4.44927277935667));
#618=CARTESIAN_POINT('',(-23.5501181419972,4.27100000000003,-5.90785142311938));
#619=CARTESIAN_POINT('',(-21.7637314285276,11.5638932188136,-11.7421659981702));
#620=CARTESIAN_POINT('',(-21.7637314285276,9.74066991411019,-9.91894269346681));
#621=CARTESIAN_POINT('',(-23.5501181419972,10.1053145750509,-11.7421659981702));
#622=CARTESIAN_POINT('Origin',(-21.7637314285276,11.5638932188136,-11.7421659981702));
#623=CARTESIAN_POINT('',(-23.7637314285276,4.271,-17.4020660551283));
#624=CARTESIAN_POINT('',(-23.7637314285276,5.27772672377567,-16.3953393313526));
#625=CARTESIAN_POINT('',(-21.7637314285276,4.27099999999999,-19.0350592169837));
#626=CARTESIAN_POINT('',(-21.7637314285276,6.09422330470339,-17.2118359122803));
#627=CARTESIAN_POINT('',(-23.5501181419973,4.271,-17.576480573221));
#628=CARTESIAN_POINT('Origin',(-21.7637314285276,4.27099999999999,-19.0350592169837));
#629=CARTESIAN_POINT('',(-23.7637314285276,-1.388900056958,-11.7421659981702));
#630=CARTESIAN_POINT('',(-23.7637314285276,-0.382173333182363,-12.7488927219459));
#631=CARTESIAN_POINT('',(-21.7637314285276,-3.02189321881345,-11.7421659981702));
#632=CARTESIAN_POINT('',(-21.7637314285276,-1.19866991411009,-13.5653893028736));
#633=CARTESIAN_POINT('',(-23.5501181419972,-1.56331457505077,-11.7421659981702));
#634=CARTESIAN_POINT('Origin',(-21.7637314285276,-3.02189321881345,-11.7421659981702));
#635=CARTESIAN_POINT('',(-23.7637314285276,3.26427327622439,-7.08899266498779));
#636=CARTESIAN_POINT('',(-21.7637314285276,2.44777669529665,-6.27249608406007));
#637=CARTESIAN_POINT('Origin',(-23.7637314285276,4.27100000000006,-11.7421659981702));
#638=CARTESIAN_POINT('Origin',(-21.7637314285276,4.27100000000006,-11.7421659981702));
#639=UNCERTAINTY_MEASURE_WITH_UNIT(LENGTH_MEASURE(0.01),#643,
'DISTANCE_ACCURACY_VALUE',
'Maximum model space distance between geometric entities at asserted c
onnectivities');
#640=UNCERTAINTY_MEASURE_WITH_UNIT(LENGTH_MEASURE(0.01),#643,
'DISTANCE_ACCURACY_VALUE',
'Maximum model space distance between geometric entities at asserted c
onnectivities');
#641=(
GEOMETRIC_REPRESENTATION_CONTEXT(3)
GLOBAL_UNCERTAINTY_ASSIGNED_CONTEXT((#639))
GLOBAL_UNIT_ASSIGNED_CONTEXT((#643,#644,#645))
REPRESENTATION_CONTEXT('','3D')
);
#642=(
GEOMETRIC_REPRESENTATION_CONTEXT(3)
GLOBAL_UNCERTAINTY_ASSIGNED_CONTEXT((#640))
GLOBAL_UNIT_ASSIGNED_CONTEXT((#643,#644,#645))
REPRESENTATION_CONTEXT('','3D')
);
#643=(
LENGTH_UNIT()
NAMED_UNIT(*)
SI_UNIT(.MILLI.,.METRE.)
);
#644=(
NAMED_UNIT(*)
PLANE_ANGLE_UNIT()
SI_UNIT($,.RADIAN.)
);
#645=(
NAMED_UNIT(*)
SI_UNIT($,.STERADIAN.)
SOLID_ANGLE_UNIT()
);
#646=SHAPE_DEFINITION_REPRESENTATION(#647,#648);
#647=PRODUCT_DEFINITION_SHAPE('',$,#650);
#648=SHAPE_REPRESENTATION('',(#381),#641);
#649=PRODUCT_DEFINITION_CONTEXT('part definition',#654,'design');
#650=PRODUCT_DEFINITION('gear box','gear box v36',#651,#649);
#651=PRODUCT_DEFINITION_FORMATION('',$,#656);
#652=PRODUCT_RELATED_PRODUCT_CATEGORY('gear box v36','gear box v36',(#656));
#653=APPLICATION_PROTOCOL_DEFINITION('international standard',
'automotive_design',2009,#654);
#654=APPLICATION_CONTEXT(
'Core Data for Automotive Mechanical Design Process');
#655=PRODUCT_CONTEXT('part definition',#654,'mechanical');
#656=PRODUCT('gear box','gear box v36',$,(#655));
#657=PRESENTATION_STYLE_ASSIGNMENT((#659));
#658=PRESENTATION_STYLE_ASSIGNMENT((#660));
#659=SURFACE_STYLE_USAGE(.BOTH.,#661);
#660=SURFACE_STYLE_USAGE(.BOTH.,#662);
#661=SURFACE_SIDE_STYLE('',(#663));
#662=SURFACE_SIDE_STYLE('',(#664));
#663=SURFACE_STYLE_FILL_AREA(#665);
#664=SURFACE_STYLE_FILL_AREA(#666);
#665=FILL_AREA_STYLE('Acero - Satinado',(#667));
#666=FILL_AREA_STYLE('Pl\X\E1stico - Brillante (gris)',(#668));
#667=FILL_AREA_STYLE_COLOUR('Acero - Satinado',#669);
#668=FILL_AREA_STYLE_COLOUR('Pl\X\E1stico - Brillante (gris)',#670);
#669=COLOUR_RGB('Acero - Satinado',0.627450980392157,0.627450980392157,
0.627450980392157);
#670=COLOUR_RGB('Pl\X\E1stico - Brillante (gris)',1.,1.,1.);
ENDSEC;
END-ISO-10303-21;
